<svg width="48" height="32" viewBox="0 0 48 32" fill="none" xmlns="http://www.w3.org/2000/svg">
<g clip-path="url(#clip0_588_1435)">
<path d="M8.65301 9.61C8.09401 10.294 7.20001 10.834 6.30501 10.756C6.19401 9.832 6.63201 8.848 7.14501 8.242C7.70301 7.539 8.68101 7.038 9.47301 7C9.56601 7.963 9.20301 8.907 8.65301 9.61ZM9.36901 11.235C8.06501 11.235 7.13201 11.941 6.52301 11.941C5.90401 11.941 4.98101 11.244 3.91401 11.244C2.61001 11.244 1.33301 12.056 0.659006 13.24C-0.724994 15.607 0.299006 19.112 1.63701 21.039C2.29301 21.993 3.08401 23 4.15101 23C5.12901 22.963 5.46001 22.412 6.64101 22.412C7.83101 22.412 8.18301 23 9.25001 23C10.317 23 10.964 22.03 11.619 21.075C12.367 19.993 12.671 18.937 12.689 18.882C12.671 18.864 10.623 18.084 10.604 15.735C10.586 13.772 12.219 12.835 12.293 12.78C11.37 11.423 9.84301 11.234 9.48801 11.234H9.36901V11.235ZM22.688 9H17.25V22.999H19.515V18.333H22.614C25.458 18.333 27.501 16.396 27.501 13.667C27.501 10.938 25.495 9 22.688 9ZM22.137 16.466H19.515V10.866H22.137C24.089 10.866 25.236 11.897 25.236 13.666C25.236 15.435 24.098 16.466 22.137 16.466ZM32.752 12.5C30.362 12.5 28.596 13.824 28.53 15.644H30.557C30.724 14.779 31.552 14.212 32.687 14.212C34.063 14.212 34.841 14.833 34.841 15.978L34.842 16.768L32.028 16.915C29.414 17.068 28 18.105 28 19.907C28 21.727 29.46 22.935 31.552 22.935C32.965 22.935 34.277 22.242 34.871 21.142H34.917V22.827H37V15.835C37.001 13.806 35.327 12.5 32.752 12.5ZM34.834 19.014C34.834 20.33 33.681 21.267 32.156 21.267C30.957 21.267 30.194 20.708 30.194 19.853C30.194 18.97 30.928 18.457 32.333 18.375L34.841 18.191L34.834 19.014ZM45.691 12.5L43.016 21.088H42.97L40.294 12.5H37.92L41.768 23.084L41.562 23.728C41.214 24.819 40.652 25.239 39.648 25.239C39.476 25.239 39.151 25.222 39.001 25.203V26.948C39.152 26.982 39.68 27 39.844 27C42.059 27 43.1 26.161 44.011 23.615L48 12.5H45.691Z" fill="#4B4B4B"/>
</g>
<defs>
<clipPath id="clip0_588_1435">
<rect width="48" height="32" fill="white"/>
</clipPath>
</defs>
</svg>
