<svg width="32" height="32" viewBox="0 0 32 32" fill="none" xmlns="http://www.w3.org/2000/svg">
<path d="M29.3333 16C29.3333 23.3627 23.3627 29.3333 16 29.3333C8.63732 29.3333 2.66666 23.3627 2.66666 16C2.66666 8.63734 8.63732 2.66667 16 2.66667C23.3627 2.66667 29.3333 8.63734 29.3333 16Z" fill="#FFC107"/>
<path d="M11.3333 22.6667V9.33333H16.7993C18.406 9.33333 19.622 9.64333 20.4527 10.2633C21.2833 10.8833 21.6973 11.792 21.6973 12.9873C21.6973 13.6407 21.5307 14.2167 21.2 14.714C20.8667 15.2113 20.4033 15.576 19.8093 15.808C20.4867 15.98 21.02 16.3233 21.4107 16.8447C21.802 17.362 22 17.9947 22 18.7473C22 20.0287 21.594 21 20.7813 21.6587C19.9687 22.3173 18.8127 22.6533 17.31 22.6667H11.3333ZM14 14.6667H16.9087C18.284 14.6433 18.974 14.1173 18.974 13.0367C18.974 12.4327 18.7993 11.9973 18.4507 11.732C18.102 11.4667 17.552 11.3333 16.7993 11.3333H14V14.6667ZM14 16.6667V20.6667H17.2293C17.87 20.6667 19.3333 20.354 19.3333 18.9273C19.3333 17.5007 18.5887 16.6847 17.3333 16.6667H14Z" fill="#FFF8E1"/>
<path d="M13.3333 7.33333H15.3333V10.6667H13.3333V7.33333ZM16.6667 7.33333H18.6667V10.6667H16.6667V7.33333ZM13.3333 21.3333H15.3333V24.6667H13.3333V21.3333ZM16.6667 21.3333H18.6667V24.6667H16.6667V21.3333Z" fill="#FFF8E1"/>
</svg>
