<svg width="32" height="32" viewBox="0 0 32 32" fill="none" xmlns="http://www.w3.org/2000/svg">
<path d="M28 24.6667C28 26.508 26.508 28 24.6667 28H7.33333C5.49267 28 4 26.508 4 24.6667V7.33333C4 5.492 5.49267 4 7.33333 4H24.6667C26.508 4 28 5.492 28 7.33333V24.6667Z" fill="#CFD8DC"/>
<path d="M24.6667 4H17.642L8.76935 28H24.6667C26.508 28 28 26.508 28 24.6667V7.33333C28 5.492 26.508 4 24.6667 4Z" fill="#536DFE"/>
<path d="M16.2267 15.9127V18.156H15.5153V12.616H17.4027C17.858 12.6067 18.298 12.7793 18.6247 13.0953C18.9553 13.3933 19.142 13.8193 19.1353 14.2647C19.1447 14.712 18.9587 15.142 18.6247 15.4407C18.2947 15.7553 17.8873 15.9127 17.4027 15.912L16.2267 15.9127ZM16.2267 13.298V15.232H17.42C17.6847 15.24 17.94 15.136 18.124 14.9453C18.498 14.582 18.506 13.984 18.1427 13.61C18.1367 13.6033 18.13 13.5973 18.124 13.5913C17.942 13.3967 17.686 13.29 17.42 13.2973L16.2267 13.298Z" fill="#FAFAFA"/>
<path d="M20.7753 14.2413C21.3013 14.2413 21.7167 14.382 22.0207 14.6633C22.3247 14.9447 22.4773 15.33 22.4767 15.8193V18.1553H21.796V17.6293H21.7653C21.4707 18.0627 21.0787 18.2793 20.5893 18.2793C20.172 18.2793 19.8227 18.1553 19.5413 17.908C19.268 17.678 19.1133 17.3367 19.1193 16.98C19.1193 16.588 19.2673 16.276 19.564 16.044C19.8607 15.8127 20.256 15.696 20.7513 15.696C21.174 15.696 21.522 15.7733 21.7953 15.928V15.7653C21.7967 15.522 21.6893 15.2907 21.5013 15.1353C21.3133 14.9653 21.068 14.8727 20.8147 14.876C20.4173 14.876 20.1027 15.044 19.8707 15.3793L19.244 14.9847C19.5893 14.4893 20.0993 14.2413 20.7753 14.2413ZM19.8547 16.9953C19.854 17.1793 19.9413 17.352 20.0907 17.4593C20.248 17.5833 20.4433 17.6487 20.6433 17.6447C20.9433 17.644 21.2313 17.5247 21.444 17.312C21.68 17.09 21.7973 16.83 21.7973 16.5307C21.5753 16.354 21.266 16.2653 20.8693 16.2653C20.58 16.2653 20.3393 16.3353 20.146 16.4747C19.9513 16.6167 19.8547 16.7887 19.8547 16.9953Z" fill="#FAFAFA"/>
<path d="M26.384 14.3653L24.008 19.8267H23.2733L24.1553 17.916L22.5927 14.366H23.366L24.4953 17.0887H24.5107L25.6093 14.366L26.384 14.3653Z" fill="#FAFAFA"/>
<path d="M11.5087 15.4287C11.5087 15.212 11.4907 14.9953 11.454 14.7813H8.45267V16.0073H10.1713C10.1 16.4027 9.87067 16.752 9.536 16.9747V17.77H10.562C11.1627 17.216 11.5087 16.3973 11.5087 15.4287Z" fill="#4285F4"/>
<path d="M8.45268 18.5387C9.31134 18.5387 10.0347 18.2567 10.562 17.7707L9.53601 16.9753C9.25068 17.1687 8.88268 17.2793 8.45268 17.2793C7.62268 17.2793 6.91801 16.72 6.66601 15.966H5.60934V16.786C6.14934 17.86 7.25001 18.5387 8.45268 18.5387Z" fill="#34A853"/>
<path d="M6.66599 15.9653C6.53266 15.57 6.53266 15.142 6.66599 14.7473V13.9273H5.60932C5.15732 14.8267 5.15732 15.886 5.60932 16.7853L6.66599 15.9653Z" fill="#FBBC04"/>
<path d="M8.45267 13.4333C8.90667 13.426 9.34534 13.5973 9.67334 13.9107L10.5813 13.0027C10.0053 12.462 9.24201 12.1647 8.45201 12.174C7.24867 12.174 6.14867 12.8527 5.60867 13.9273L6.66534 14.7473C6.91801 13.9933 7.62267 13.4333 8.45267 13.4333Z" fill="#EA4335"/>
</svg>
