<svg width="32" height="32" viewBox="0 0 32 32" fill="none" xmlns="http://www.w3.org/2000/svg">
<path d="M30 23.3333C30 24.806 28.806 26 27.3333 26H4.66667C3.194 26 2 24.806 2 23.3333V8.66667C2 7.194 3.194 6 4.66667 6H27.3333C28.806 6 30 7.194 30 8.66667V23.3333Z" fill="#3F51B5"/>
<path d="M20 9.33333C18.2319 9.33333 16.5362 10.0357 15.286 11.2859C14.0357 12.5362 13.3333 14.2319 13.3333 16C13.3333 17.7681 14.0357 19.4638 15.286 20.714C16.5362 21.9643 18.2319 22.6667 20 22.6667C21.7681 22.6667 23.4638 21.9643 24.7141 20.714C25.9643 19.4638 26.6667 17.7681 26.6667 16C26.6667 14.2319 25.9643 12.5362 24.7141 11.2859C23.4638 10.0357 21.7681 9.33333 20 9.33333Z" fill="#FFC107"/>
<path d="M14.676 20C14.3667 19.5887 14.1007 19.144 13.892 18.6667H17.442C17.6273 18.2427 17.7727 17.7973 17.8667 17.3333H13.468C13.38 16.9027 13.3333 16.4573 13.3333 16H18C18 15.5427 17.9533 15.0973 17.866 14.6667H13.4673C13.562 14.2027 13.7067 13.7573 13.892 13.3333H17.442C17.2333 12.856 16.968 12.4113 16.658 12H14.676C14.9673 11.6133 15.296 11.252 15.6633 10.9367C14.498 9.93933 12.9873 9.33333 11.3333 9.33333C7.65132 9.33333 4.66666 12.318 4.66666 16C4.66666 19.682 7.65132 22.6667 11.3333 22.6667C13.5127 22.6667 15.4413 21.6167 16.6573 20H14.676Z" fill="#FF3D00"/>
</svg>
