<svg width="32" height="32" viewBox="0 0 32 32" fill="none" xmlns="http://www.w3.org/2000/svg">
<path d="M16 29.3333L1.33334 15L6.66668 3.33333H25.3333L30.6667 15L16 29.3333Z" fill="#4DB6AC"/>
<path d="M25.3333 14.6667C25.3333 13.7093 22.1927 12.91 18 12.714V10.6667H23.3333V6.66667H8.66666V10.6667H14V12.714C9.80732 12.91 6.66666 13.7093 6.66666 14.6667C6.66666 15.624 9.80732 16.4233 14 16.6193V24H18V16.6193C22.1927 16.4233 25.3333 15.624 25.3333 14.6667ZM16 16C11.582 16 7.99999 15.3287 7.99999 14.5C7.99999 13.8013 10.5513 13.216 14 13.0493V15.28C14.64 15.32 15.3067 15.3333 16 15.3333C16.6933 15.3333 17.36 15.32 18 15.28V13.0493C21.4487 13.216 24 13.8013 24 14.5C24 15.3287 20.418 16 16 16Z" fill="white"/>
</svg>
