<svg width="32" height="32" viewBox="0 0 32 32" fill="none" xmlns="http://www.w3.org/2000/svg">
<g clip-path="url(#clip0_588_1453)">
<path d="M16.0049 29.34C23.3696 29.34 29.3399 23.3697 29.3399 16.005C29.3399 8.64028 23.3696 2.67 16.0049 2.67C8.6402 2.67 2.66992 8.64028 2.66992 16.005C2.66992 23.3697 8.6402 29.34 16.0049 29.34Z" fill="#0088CC"/>
<path fill-rule="evenodd" clip-rule="evenodd" d="M12.2944 11.4827L19.7736 11.4827C20.0382 11.4827 20.3026 11.5215 20.5789 11.6504C20.9102 11.8048 21.0858 12.0481 21.2089 12.2281C21.2184 12.2421 21.2274 12.2565 21.2357 12.2713C21.3804 12.5288 21.4549 12.8069 21.4549 13.1061C21.4549 13.3903 21.3873 13.6999 21.2357 13.9698C21.2343 13.9725 21.2328 13.975 21.2313 13.9776L16.506 22.0945C16.4018 22.2735 16.2101 22.3833 16.0029 22.3826C15.7958 22.3819 15.6048 22.2707 15.5019 22.0909L10.8634 13.9913C10.862 13.9891 10.8607 13.9869 10.8594 13.9847C10.7532 13.8098 10.5891 13.5393 10.5603 13.1902C10.534 12.8691 10.6061 12.5475 10.7674 12.2686C10.9287 11.9896 11.1716 11.7667 11.4636 11.6302C11.7768 11.4838 12.0942 11.4827 12.2944 11.4827ZM15.4252 12.6422H12.2944C12.0887 12.6422 12.0097 12.6549 11.9545 12.6807C11.8782 12.7163 11.8141 12.775 11.7712 12.8491C11.7283 12.9232 11.709 13.0091 11.716 13.0952C11.7201 13.1444 11.7402 13.2008 11.8587 13.3963C11.8612 13.4004 11.8636 13.4046 11.866 13.4087L15.4252 19.6237V12.6422ZM16.5848 12.6422V19.6544L20.2264 13.3989C20.2675 13.3242 20.2954 13.2163 20.2954 13.1061C20.2954 13.0167 20.2768 12.939 20.2354 12.859C20.1919 12.7965 20.1654 12.7634 20.1433 12.7407C20.1243 12.7213 20.1097 12.711 20.089 12.7013C20.0029 12.6612 19.9148 12.6422 19.7736 12.6422H16.5848Z" fill="white"/>
</g>
<defs>
<clipPath id="clip0_588_1453">
<rect width="26.67" height="26.67" fill="white" transform="translate(2.66992 2.67)"/>
</clipPath>
</defs>
</svg>
