<svg width="66" height="66" viewBox="0 0 66 66" fill="none" xmlns="http://www.w3.org/2000/svg">
<g filter="url(#filter0_dd_642_3508)">
<rect x="12" y="6" width="42" height="42" rx="16" fill="white" fill-opacity="0.2" shape-rendering="crispEdges"/>
<circle cx="33" cy="27" r="12" fill="white"/>
<path d="M26.5048 34.8952L33 28.3999L39.4951 34.8952L40.8951 33.4952L34.3999 27L40.8951 20.5048L39.4951 19.1048L33 25.6L26.5048 19.1048L25.1048 20.5048L31.6 27L25.1048 33.4952L26.5048 34.8952ZM33.0029 43.6249C30.7214 43.6249 28.5719 43.1886 26.5543 42.3159C24.5366 41.4433 22.7722 40.2517 21.261 38.7411C19.7498 37.2306 18.5576 35.4669 17.6846 33.4502C16.8115 31.4334 16.375 29.2843 16.375 27.0029C16.375 24.7035 16.8113 22.5422 17.684 20.519C18.5567 18.4957 19.7483 16.7358 21.2588 15.2392C22.7694 13.7425 24.533 12.5576 26.5498 11.6846C28.5665 10.8116 30.7156 10.375 32.997 10.375C35.2964 10.375 37.4577 10.8114 39.481 11.684C41.5042 12.5567 43.2642 13.741 44.7608 15.237C46.2574 16.733 47.4423 18.4921 48.3153 20.5145C49.1884 22.5368 49.6249 24.6977 49.6249 26.9971C49.6249 29.2785 49.1886 31.428 48.3159 33.4457C47.4432 35.4633 46.2589 37.2277 44.763 38.7389C43.267 40.2502 41.5078 41.4423 39.4855 42.3154C37.4631 43.1884 35.3023 43.6249 33.0029 43.6249Z" fill="#8951FF"/>
</g>
<defs>
<filter id="filter0_dd_642_3508" x="0" y="0" width="66" height="66" filterUnits="userSpaceOnUse" color-interpolation-filters="sRGB">
<feFlood flood-opacity="0" result="BackgroundImageFix"/>
<feColorMatrix in="SourceAlpha" type="matrix" values="0 0 0 0 0 0 0 0 0 0 0 0 0 0 0 0 0 0 127 0" result="hardAlpha"/>
<feOffset dy="6"/>
<feGaussianBlur stdDeviation="6"/>
<feComposite in2="hardAlpha" operator="out"/>
<feColorMatrix type="matrix" values="0 0 0 0 0.535333 0 0 0 0 0.316667 0 0 0 0 1 0 0 0 0.5 0"/>
<feBlend mode="normal" in2="BackgroundImageFix" result="effect1_dropShadow_642_3508"/>
<feColorMatrix in="SourceAlpha" type="matrix" values="0 0 0 0 0 0 0 0 0 0 0 0 0 0 0 0 0 0 127 0" result="hardAlpha"/>
<feOffset dy="2"/>
<feGaussianBlur stdDeviation="2"/>
<feComposite in2="hardAlpha" operator="out"/>
<feColorMatrix type="matrix" values="0 0 0 0 0 0 0 0 0 0 0 0 0 0 0 0 0 0 0.25 0"/>
<feBlend mode="normal" in2="effect1_dropShadow_642_3508" result="effect2_dropShadow_642_3508"/>
<feBlend mode="normal" in="SourceGraphic" in2="effect2_dropShadow_642_3508" result="shape"/>
</filter>
</defs>
</svg>
