<svg width="20" height="20" viewBox="0 0 20 20" fill="none" xmlns="http://www.w3.org/2000/svg">
<path d="M9.99988 12.5623C9.91655 12.5623 9.84016 12.5485 9.77071 12.5207C9.70127 12.4929 9.63183 12.4443 9.56238 12.3748L5.43738 8.24984C5.32627 8.13873 5.27419 7.98943 5.28113 7.80193C5.28807 7.61443 5.3471 7.46512 5.45821 7.35401C5.5971 7.21512 5.74641 7.15609 5.90613 7.17693C6.06585 7.19776 6.20821 7.26373 6.33321 7.37484L9.99988 11.0415L13.6665 7.37484C13.7777 7.26373 13.927 7.20123 14.1145 7.18734C14.302 7.17346 14.4513 7.23596 14.5624 7.37484C14.7013 7.48596 14.7603 7.63179 14.7395 7.81234C14.7186 7.9929 14.6527 8.14568 14.5415 8.27068L10.4374 12.3748C10.3679 12.4443 10.2985 12.4929 10.229 12.5207C10.1596 12.5485 10.0832 12.5623 9.99988 12.5623Z" fill="black"/>
</svg>
