<svg width="48" height="48" viewBox="0 0 48 48" fill="none" xmlns="http://www.w3.org/2000/svg">
<circle opacity="0.12" cx="24" cy="24" r="24" fill="#8951FF"/>
<path d="M22.6973 34.9537L21.1615 33.5383C18.4999 31.0939 16.1965 28.7576 14.2512 26.5294C12.3059 24.3012 11.3333 22.0059 11.3333 19.6435C11.3333 17.8145 11.9499 16.2833 13.1833 15.05C14.4166 13.8166 15.9409 13.2 17.7563 13.2C18.7956 13.2 19.8644 13.4636 20.9627 13.991C22.061 14.5183 23.0734 15.4769 23.9999 16.8667C25.0033 15.4769 26.0294 14.5183 27.0781 13.991C28.1268 13.4636 29.1819 13.2 30.2435 13.2C32.0588 13.2 33.5832 13.8166 34.8165 15.05C36.0499 16.2833 36.6665 17.8145 36.6665 19.6435C36.6665 22.0315 35.6725 24.3461 33.6845 26.5871C31.6964 28.8281 29.4144 31.1409 26.8383 33.5255L25.3025 34.9409C24.9332 35.2794 24.499 35.4486 23.9999 35.4486C23.5008 35.4486 23.0666 35.2836 22.6973 34.9537Z" fill="#8951FF"/>
</svg>
