<svg width="322" height="125" viewBox="0 0 322 125" fill="none" xmlns="http://www.w3.org/2000/svg">
<path d="M26.6253 124.25L26.6265 124.25L303.087 122.926C313.132 122.878 321.25 114.722 321.25 104.677V19C321.25 8.9208 313.079 0.75 303 0.75H25.7432C15.664 0.75 7.49315 8.92082 7.49315 19V95.7432C7.49315 96.208 7.50061 96.6703 7.51617 97.131C7.57057 101.746 7.50385 105.547 7.31657 108.536C7.12892 111.531 6.82109 113.693 6.40036 115.04C5.61153 117.565 3.93188 120.021 1.33979 122.406C1.33945 122.406 1.3391 122.406 1.33875 122.407L0.941442 122.765L0.926552 122.779L0.913996 122.794L0.859358 122.862L0.847554 122.877L0.838091 122.893C0.7371 123.068 0.721633 123.304 0.798552 123.498C0.853612 123.637 0.973461 123.787 1.16464 123.815C3.9618 124.222 6.52028 123.936 8.83261 122.948C11.0627 121.994 13.0502 120.394 14.7973 118.159C18.0388 121.96 22.1436 124.25 26.6253 124.25Z" fill="white" stroke="#B5CADD" stroke-width="0.5"/>
</svg>
