<svg width="20" height="20" viewBox="0 0 20 20" fill="none" xmlns="http://www.w3.org/2000/svg">
<g opacity="0.72">
<path d="M3.125 15.7917C2.94792 15.7917 2.79948 15.7314 2.67969 15.6109C2.5599 15.4904 2.5 15.3411 2.5 15.163C2.5 14.9849 2.5599 14.8368 2.67969 14.7188C2.79948 14.6007 2.94792 14.5417 3.125 14.5417H7.02083C7.19792 14.5417 7.34635 14.6019 7.46615 14.7224C7.58594 14.8429 7.64583 14.9922 7.64583 15.1703C7.64583 15.3484 7.58594 15.4965 7.46615 15.6146C7.34635 15.7326 7.19792 15.7917 7.02083 15.7917H3.125ZM3.125 5.45833C2.94792 5.45833 2.79948 5.39809 2.67969 5.2776C2.5599 5.1571 2.5 5.0078 2.5 4.82969C2.5 4.65156 2.5599 4.50347 2.67969 4.38542C2.79948 4.26736 2.94792 4.20833 3.125 4.20833H10.4792C10.6563 4.20833 10.8047 4.26858 10.9245 4.38906C11.0443 4.50956 11.1042 4.65887 11.1042 4.83698C11.1042 5.0151 11.0443 5.16319 10.9245 5.28125C10.8047 5.39931 10.6563 5.45833 10.4792 5.45833H3.125ZM9.51719 17.5C9.33906 17.5 9.19097 17.4401 9.07292 17.3203C8.95486 17.2005 8.89583 17.0521 8.89583 16.875V13.4375C8.89583 13.2604 8.95608 13.112 9.07656 12.9922C9.19706 12.8724 9.34637 12.8125 9.52448 12.8125C9.7026 12.8125 9.85069 12.8724 9.96875 12.9922C10.0868 13.112 10.1458 13.2604 10.1458 13.4375V14.5417H16.875C17.0521 14.5417 17.2005 14.6019 17.3203 14.7224C17.4401 14.8429 17.5 14.9922 17.5 15.1703C17.5 15.3484 17.4401 15.4965 17.3203 15.6146C17.2005 15.7326 17.0521 15.7917 16.875 15.7917H10.1458V16.875C10.1458 17.0521 10.0856 17.2005 9.9651 17.3203C9.8446 17.4401 9.6953 17.5 9.51719 17.5ZM7.01719 12.3333C6.83906 12.3333 6.69097 12.2734 6.57292 12.1536C6.45486 12.0339 6.39583 11.8854 6.39583 11.7083V10.625H3.125C2.94792 10.625 2.79948 10.5648 2.67969 10.4443C2.5599 10.3238 2.5 10.1745 2.5 9.99635C2.5 9.81823 2.5599 9.67014 2.67969 9.55208C2.79948 9.43403 2.94792 9.375 3.125 9.375H6.39583V8.25C6.39583 8.07292 6.45608 7.92448 6.57656 7.80469C6.69706 7.6849 6.84637 7.625 7.02448 7.625C7.2026 7.625 7.35069 7.6849 7.46875 7.80469C7.58681 7.92448 7.64583 8.07292 7.64583 8.25V11.7083C7.64583 11.8854 7.58559 12.0339 7.4651 12.1536C7.3446 12.2734 7.1953 12.3333 7.01719 12.3333ZM9.52083 10.625C9.34375 10.625 9.19531 10.5648 9.07552 10.4443C8.95573 10.3238 8.89583 10.1745 8.89583 9.99635C8.89583 9.81823 8.95573 9.67014 9.07552 9.55208C9.19531 9.43403 9.34375 9.375 9.52083 9.375H16.875C17.0521 9.375 17.2005 9.43524 17.3203 9.55573C17.4401 9.67623 17.5 9.82553 17.5 10.0036C17.5 10.1818 17.4401 10.3299 17.3203 10.4479C17.2005 10.566 17.0521 10.625 16.875 10.625H9.52083ZM12.9755 7.1875C12.7974 7.1875 12.6493 7.1276 12.5313 7.00781C12.4132 6.88802 12.3542 6.73958 12.3542 6.5625V3.125C12.3542 2.94792 12.4144 2.79948 12.5349 2.67969C12.6554 2.5599 12.8047 2.5 12.9828 2.5C13.1609 2.5 13.309 2.5599 13.4271 2.67969C13.5451 2.79948 13.6042 2.94792 13.6042 3.125V4.20833H16.875C17.0521 4.20833 17.2005 4.26858 17.3203 4.38906C17.4401 4.50956 17.5 4.65887 17.5 4.83698C17.5 5.0151 17.4401 5.16319 17.3203 5.28125C17.2005 5.39931 17.0521 5.45833 16.875 5.45833H13.6042V6.5625C13.6042 6.73958 13.5439 6.88802 13.4234 7.00781C13.3029 7.1276 13.1536 7.1875 12.9755 7.1875Z" fill="white"/>
</g>
</svg>
