<svg width="70" height="72" viewBox="0 0 70 72" fill="none" xmlns="http://www.w3.org/2000/svg">
<ellipse opacity="0.04" cx="35" cy="36" rx="35" ry="36" fill="#8951FF"/>
<path d="M32.0655 54.738C31.8818 54.6867 31.7609 54.8273 31.6266 54.8988C30.6766 55.4042 29.8316 56.0423 29.1666 56.9005C28.3014 58.0172 28.0098 59.456 28.9888 60.7837C29.0504 60.8673 29.1318 60.9475 29.1176 61.0691C29.0468 61.1364 28.9877 61.0816 28.9428 61.041C28.1486 60.3227 27.4746 59.521 27.2944 58.4237C27.2367 58.0725 27.0702 57.9307 26.7388 57.8497C25.2402 57.4833 24.0451 56.6761 23.3092 55.2966C22.2605 53.331 22.8607 51.0046 24.6857 49.6489C24.7302 49.6159 24.7797 49.5974 24.8673 49.653C23.3919 51.4608 23.486 53.341 24.6802 55.2459C24.5801 54.9769 24.4657 54.7123 24.3825 54.4381C24.0461 53.3302 24.2291 52.2779 24.7604 51.2743C25.5436 49.7947 26.7407 48.692 28.0666 47.7192C28.7942 47.1854 29.5593 46.7027 30.3015 46.1884C30.6342 45.958 30.9216 45.6733 31.1835 45.3544C30.2631 45.8925 29.3922 46.528 28.3218 46.8335C28.3355 46.6343 28.4585 46.6155 28.5464 46.565C31.0482 45.1257 32.6699 43.0424 33.1587 40.1637C33.4018 38.7324 33.3439 37.2907 33.1005 35.8602C32.745 33.7701 32.0066 31.8085 31.0723 29.9156C30.9554 29.6786 30.8 29.4606 30.6624 29.2339C30.6305 29.2471 30.5985 29.2604 30.5665 29.2737C30.7023 29.6834 30.84 30.0925 30.9734 30.503C31.4938 32.1052 31.9302 33.727 32.1539 35.4016C32.4865 37.8912 32.4053 40.3293 31.2 42.6076C30.1093 44.6696 28.3593 45.9904 26.2484 46.8802C26.1855 46.9068 26.1082 46.9732 25.9952 46.8852C26.4966 46.5795 26.9923 46.2932 27.472 45.9822C29.7258 44.521 31.0717 42.4593 31.489 39.8078C31.7927 37.8778 31.4923 35.9965 30.9412 34.1459C30.2512 31.8293 29.3583 29.5906 28.3627 27.389C27.8191 26.1871 27.2612 24.9801 27.086 23.6527C26.8047 21.52 26.9457 19.4444 28.1113 17.5603C29.1676 15.8528 30.7118 14.7835 32.6384 14.253C32.6847 14.2402 32.7377 14.2514 32.8327 14.3028C30.4597 15.4235 28.8061 17.1202 28.3204 19.7787C29.1311 17.8437 30.5828 16.6505 32.5708 16.0948C34.4974 15.5562 36.3851 15.7111 38.2334 16.4034C38.2305 16.4381 38.2275 16.4728 38.2246 16.5075C37.6364 16.4178 37.0498 16.3159 36.4596 16.2418C35.8604 16.1666 35.2714 16.2851 34.6814 16.3734C35.041 16.3821 35.3984 16.3151 35.7728 16.4007C34.855 16.766 33.9222 17.0854 33.1665 17.756C32.4133 18.4245 31.8692 19.2034 31.709 20.2276C32.6154 18.6035 33.9486 17.5479 35.7622 17.1304C36.9003 16.8684 38.0414 16.8707 39.2805 17.1132C38.9504 17.3328 38.658 17.2793 38.3957 17.332C35.55 17.9032 33.3751 19.3529 32.3004 22.1332C31.5993 23.9467 31.8115 25.7594 32.6188 27.5095C32.7461 27.7855 32.8935 28.0523 33.0343 28.3286C32.8618 28.4007 32.807 28.2815 32.7403 28.2112C31.4258 26.823 30.6703 25.1745 30.4459 23.2781C30.2891 21.9525 30.46 20.673 30.9698 19.439C31.5232 18.0995 32.5254 17.2354 33.8506 16.7083C34.0187 16.6414 34.2224 16.6388 34.3475 16.476C34.278 16.337 34.1544 16.3675 34.0588 16.3846C32.2159 16.7145 30.3111 17.7718 29.7445 19.9186C29.4256 21.1271 29.516 22.319 29.8049 23.5134C30.2955 25.5425 31.3078 27.3457 32.2515 29.1787C33.2215 31.0628 34.1428 32.967 34.5756 35.0618C34.8357 36.3207 34.9706 37.5897 34.7972 38.876C34.7712 39.0691 34.7757 39.2663 34.8148 39.4683C35.1304 38.8522 35.2805 38.1938 35.3767 37.5239C35.6731 35.4591 35.3148 33.4757 34.6386 31.5263C34.0882 29.9396 33.7462 28.3087 33.7648 26.619C33.7946 23.9078 34.7369 21.5945 36.7779 19.7658C36.8681 19.6849 36.9548 19.5999 37.0408 19.5145C37.0583 19.4971 37.0654 19.4692 37.0768 19.4459C36.5353 19.4276 35.5555 20.0481 34.6515 20.9582C33.9436 21.6708 33.4577 22.5167 33.102 23.4461C32.7448 24.3793 32.6816 25.3532 32.757 26.3589C32.5318 26.3001 32.5438 26.1399 32.5067 26.0227C31.5955 23.144 33.1139 19.8527 35.9018 18.6697C37.2938 18.0791 38.7316 17.7036 40.2616 17.7811C40.6125 17.7988 40.6137 17.791 40.9424 17.9482C40.7706 18.1594 40.5148 18.2322 40.3124 18.3717C38.5898 19.5589 37.546 21.2196 36.971 23.1918C36.2549 25.6482 36.5254 28.0963 37.1009 30.5352C37.4788 32.1364 38.0777 33.6719 38.4994 35.2601C38.886 36.7159 39.0917 38.1936 38.9872 39.6989C38.9207 40.6591 38.6753 41.5845 38.2577 42.4572C38.146 42.6909 38.054 42.9283 38.0368 43.1879C37.9093 45.1063 37.0202 46.6815 35.7972 48.0949C34.3555 49.7611 32.5305 50.8916 30.5388 51.7783C29.859 52.0809 29.2141 52.4397 28.6234 52.8969C27.5528 53.7256 26.8488 54.7077 27.2337 56.1727C26.8561 55.9624 26.5876 55.2187 26.6658 54.6321C26.7287 54.1598 26.8755 53.7144 27.1309 53.3064C27.8046 52.2303 28.7765 51.4898 29.8841 50.9281C31.6874 50.0136 33.3837 48.9525 34.832 47.5261C35.6908 46.6803 36.4377 45.7514 36.9839 44.6653C36.8572 44.5981 36.8019 44.6859 36.7585 44.7355C35.1047 46.6245 32.9923 47.8543 30.7662 48.9254C29.5396 49.5156 28.2748 50.03 27.1171 50.7581C26.4739 51.1628 25.8704 51.6164 25.3949 52.2145C24.5972 53.2178 24.5325 54.2197 25.206 55.325C25.6555 56.0625 26.3057 56.6141 26.9891 57.126C27.039 57.1633 27.1111 57.171 27.1561 57.1867C27.2646 57.1379 27.2787 57.0554 27.2984 56.9774C27.7352 55.2449 28.8756 54.0623 30.3322 53.1433C31.3799 52.4822 32.5087 51.955 33.4952 51.1903C35.3177 49.7775 36.8248 48.12 37.6533 45.9267C37.8724 45.3469 38.054 44.7545 38.0769 44.1263C38.0817 43.9942 38.074 43.8547 38.1859 43.7538C38.2669 43.76 38.3052 43.8175 38.3347 43.8774C39.1788 45.5945 39.5763 47.3616 38.8188 49.2142C38.264 50.5712 37.241 51.5446 36.0705 52.3796C34.9896 53.1508 33.8001 53.7294 32.6231 54.3306C32.5039 54.3916 32.3913 54.4656 32.2447 54.5747C32.1642 54.6566 32.1149 54.6973 32.0655 54.738ZM27.1667 57.5507C26.8119 57.2099 26.3887 56.9727 25.9477 56.7559C26.2117 57.1988 26.594 57.4982 27.0687 57.684C27.1198 57.704 27.1682 57.6614 27.1667 57.5507Z" fill="#110E34"/>
<path d="M21.9703 36.7555C22.9974 35.406 23.2113 33.896 23.0319 32.2863C22.9179 31.2639 22.553 30.2996 22.3857 29.2889C21.886 26.2702 21.9933 23.3202 23.3963 20.5321C24.5395 18.2603 26.3717 16.6998 28.6528 15.6357C28.7095 15.6093 28.7775 15.607 28.85 15.5913C28.8773 15.7686 28.7341 15.8059 28.6563 15.8775C26.5321 17.8313 25.6037 20.2576 25.7695 23.1249C25.9086 25.5298 26.8045 27.6825 27.9915 29.728C29.2066 31.822 30.1206 34.0264 30.5281 36.4176C30.9479 38.8808 30.7343 41.2553 29.369 43.43C28.3848 44.9979 26.9766 46.0799 25.3492 46.9019C25.0192 47.0686 24.6984 47.2749 24.2112 47.3427C25.6236 45.4611 26.5654 43.4669 26.7145 41.1701C26.8649 38.8523 26.2068 36.7821 24.8023 34.9076C24.6132 35.103 24.6662 35.2749 24.672 35.4276C24.8091 39.0895 22.0309 41.3636 19.2006 41.8832C17.4282 42.2085 15.7376 41.9852 14.1513 41.1198C12.6464 40.2989 11.8866 38.6152 12.25 36.9653C12.2722 36.8647 12.3184 36.7695 12.3734 36.6159C12.5633 36.9005 12.7001 37.1612 12.8881 37.3773C13.6159 38.2141 14.5692 38.6869 15.63 38.9083C18.1431 39.4329 20.2609 38.7229 21.9703 36.7555Z" fill="#110E34"/>
<path d="M43.0491 12.3533C45.0901 14.6393 45.8415 17.2942 45.5273 20.2816C45.073 17.8414 43.7716 15.9228 41.9253 14.3296C43.2978 15.7006 44.1826 17.3291 44.5314 19.2586C42.744 15.0178 39.389 12.6484 35.0871 11.6416C30.7229 10.6203 26.7917 11.7418 23.4207 14.7229C23.3364 14.6134 23.3913 14.5403 23.4314 14.4769C24.9998 11.9968 26.9567 9.9147 29.5727 8.51501C31.0276 7.73656 32.5898 7.27863 34.222 7.10444C35.9968 6.91504 37.757 6.97167 39.5217 7.36983C40.7677 7.65096 42.0493 7.78253 43.2224 8.32449C46.2157 9.7074 48.4076 11.8412 49.3561 15.074C50.0192 17.3341 49.8641 19.6004 49.2555 21.8507C49.2389 21.9123 49.218 21.9817 49.0832 22.01C49.0455 21.5635 49.1464 21.1349 49.1781 20.7053C49.485 16.5529 48.3987 12.9654 44.9792 10.3208C44.9418 10.2919 44.895 10.2751 44.8239 10.2746C47.6114 12.982 49.1116 16.2307 48.9268 20.1425C48.84 21.9789 48.608 23.8106 47.5473 25.4126C48.7979 22.3037 48.7363 19.1512 47.653 16.0553C46.5451 12.8889 44.3862 10.5521 41.3486 9.10626C37.6729 7.35667 33.9617 7.57703 30.2567 9.04523C35.1011 7.87274 39.4556 8.57279 43.0491 12.3533Z" fill="#110E34"/>
<path d="M20.2193 19.1348C19.8951 20.2571 19.6509 21.355 19.8092 22.4919C19.851 22.4984 19.8929 22.5049 19.9347 22.5114C20.0391 22.0619 20.1266 21.6077 20.2507 21.1637C21.2268 17.6708 23.1398 14.9157 26.5111 13.3505C28.4904 12.4316 30.5818 11.8833 32.7705 11.9688C36.6134 12.119 39.8561 13.4959 42.0515 16.8278C42.2629 17.1487 42.4817 17.4711 42.6098 17.9675C42.1303 17.5728 41.7445 17.2307 41.334 16.9216C39.7029 15.6935 37.9448 14.6724 35.9404 14.2377C30.3771 13.031 23.9088 15.5134 21.7817 22.0806C21.0929 24.2069 21.0173 26.3569 21.518 28.5391C21.8647 30.0501 22.1492 31.5778 22.0687 33.1396C21.9728 34.9986 21.4362 36.6713 19.8846 37.8578C18.9873 38.544 17.962 38.8723 16.8304 38.8431C16.6831 38.8393 16.5034 38.8657 16.3965 38.6907C16.5218 38.5372 16.7009 38.5972 16.8482 38.5669C18.8481 38.1556 20.2265 36.712 20.6531 34.6313C20.9842 33.0164 20.7678 31.4489 20.3723 29.8799C19.9776 28.3138 19.5567 26.7505 19.2565 25.1653C18.824 22.8815 18.9327 20.6266 19.9971 18.4979C20.2669 17.9583 20.5939 17.4493 21.0954 17.0667C20.7943 17.7434 20.4495 18.3981 20.2193 19.1348Z" fill="#110E34"/>
<path d="M47.8636 38.3329C48.4872 38.128 48.6371 37.5928 48.7185 37.0828C48.8957 35.9723 49.2731 34.9495 49.8495 33.9908C50.2586 33.3105 50.4765 32.5644 50.5862 31.7818C50.6231 31.5189 50.582 31.2692 50.4957 31.0269C50.3963 30.7478 50.1893 30.6296 49.8923 30.6766C49.3627 30.7604 48.9869 31.0424 48.7501 31.5618C49.1109 31.3837 49.4356 31.1602 49.9163 31.3626C48.7535 31.6531 48.3765 32.1972 48.1992 33.7328C47.7632 33.4159 47.8596 33.4087 47.818 32.8528C47.7488 31.928 47.7992 31.0084 47.7917 30.0871C47.7817 28.8578 47.7039 27.6369 47.4573 26.4309C47.3923 26.1126 47.5012 25.8711 47.6854 25.6133C48.9666 23.8199 49.9993 21.9036 50.396 19.7082C50.6722 18.1796 50.5698 16.6973 49.637 15.3703C49.6063 15.3266 49.581 15.2781 49.561 15.2287C49.5525 15.2077 49.5642 15.1784 49.5688 15.131C49.7395 15.1215 49.8254 15.2506 49.9196 15.3509C50.5449 16.0174 51.0555 16.7689 51.3671 17.624C51.9252 19.1559 52.3771 20.7142 52.4522 22.3651C52.5266 24.0002 52.2895 25.5874 51.8343 27.1473C51.5084 28.264 51.0504 29.3285 50.4451 30.3358C51.2455 31.2232 50.9301 32.1957 50.6533 33.1537C50.4916 33.7133 50.1913 34.2172 49.8927 34.7138C49.3976 35.5371 49.1789 36.4527 48.9533 37.3694C48.8652 37.7273 48.7068 38.0563 48.4226 38.3057C47.9385 38.7304 47.249 38.4895 47.0801 37.7782C47.3146 38.0502 47.5128 38.286 47.8636 38.3329ZM50.4482 29.8164C50.5901 29.2066 50.8541 28.6196 50.7787 27.966C50.3854 28.7321 49.9921 29.4982 49.5845 30.2921C50.0391 30.381 50.3595 30.3586 50.4482 29.8164Z" fill="#110E34"/>
<path d="M17.9332 45.3575C16.6139 45.2432 15.3796 44.9562 14.2309 44.4078C17.8381 46.3237 21.334 46.3577 24.7359 43.6227C24.4912 44.5556 24.0067 45.1773 23.3501 45.673C22.4534 46.3499 21.4146 46.6841 20.3154 46.7984C18.8379 46.952 17.3807 46.8416 15.9898 46.259C14.5971 45.6756 13.5217 44.7349 12.8026 43.4008C12.7111 43.2311 12.5918 43.0914 12.4575 42.9569C11.0024 41.4991 10.5947 39.3323 11.4254 37.465C11.5161 37.2612 11.5997 37.047 11.8064 36.876C11.9193 37.1066 11.7905 37.2954 11.7847 37.4838C11.7226 39.4956 12.7048 40.9281 14.3039 41.9954C17.0137 43.8041 20.9438 43.6934 23.426 41.759C24.3566 41.0338 25.0315 40.131 25.2959 38.957C25.3158 38.8685 25.3549 38.7843 25.402 38.6499C25.6157 38.9065 25.6207 39.1722 25.6272 39.4264C25.6731 41.2248 24.8968 42.6328 23.5119 43.7162C21.8874 44.9871 20.0004 45.4241 17.9332 45.3575Z" fill="#110E34"/>
<path d="M46.4612 22.2138C46.4449 22.1714 46.4402 22.1587 46.4343 22.1466C46.0371 21.3342 45.9365 20.51 46.0421 19.5883C46.2213 18.0239 46.0042 16.4718 45.4459 14.9827C44.8658 13.4353 43.9499 12.1248 42.6911 11.0533C42.5936 10.9703 42.4492 10.9219 42.4355 10.7606C43.4888 10.8683 46.0073 13.4488 46.9444 15.4396C48.4338 18.6038 48.2616 21.8372 47.2795 25.0994C46.9679 24.1533 46.7843 23.1805 46.4612 22.2138Z" fill="#110E34"/>
<path d="M18.7326 51.6536C17.6048 50.774 17.1155 49.6042 17.0106 48.2415C16.974 47.767 17.0236 47.7285 17.487 47.8011C19.1096 48.0554 20.7048 47.9154 22.275 47.4481C22.365 47.4213 22.4549 47.3935 22.5463 47.3723C22.5673 47.3674 22.5942 47.3877 22.6272 47.3996C22.6303 47.5969 22.4692 47.6991 22.3674 47.8297C21.7839 48.5784 21.2817 49.3726 21.0054 50.2889C20.7755 51.0515 20.7332 51.8006 21.2482 52.4852C21.2703 52.5145 21.2729 52.5595 21.281 52.5979C21.2834 52.6093 21.2734 52.6233 21.2557 52.6762C20.3325 52.572 19.5154 52.1966 18.7326 51.6536Z" fill="#110E34"/>
<path d="M32.0473 54.7551C32.1149 54.6973 32.1642 54.6566 32.2277 54.5969C32.4883 54.7373 32.2344 54.8301 32.1756 54.9086C31.6811 55.5692 31.2382 56.26 30.8762 57.0022C30.3755 58.029 30.2049 58.7784 30.2631 59.7397C30.6326 58.5488 31.3802 57.6488 32.3098 56.7506C32.2931 57.0946 32.1476 57.2847 32.0574 57.4914C31.6974 58.3167 31.4252 59.1645 31.5836 60.0757C31.7841 61.2283 32.5518 61.9345 33.5465 62.4394C33.9758 62.6573 34.4459 62.7694 34.9852 62.9415C34.6816 63.0627 34.4742 62.9627 34.2748 62.9338C32.8859 62.7323 31.5021 62.4969 30.2696 61.7657C29.5312 61.3275 28.9244 60.7806 28.7801 59.8598C28.69 59.2843 28.8342 58.7641 29.0613 58.2548C29.5326 57.1978 30.3059 56.3708 31.1273 55.5839C31.4192 55.3042 31.728 55.0422 32.0473 54.7551Z" fill="#110E34"/>
<path d="M13.9947 35.6492C13.2797 34.5939 13.4595 33.4613 14.4478 32.7063C15.3426 32.0227 16.3479 31.9127 17.4195 32.1096C17.4202 32.2842 17.3045 32.2801 17.2301 32.3223C17.0434 32.4283 16.8462 32.5194 16.6719 32.6429C15.5995 33.4031 15.5836 34.7487 16.6393 35.5284C17.0928 35.8635 17.6046 36.0556 18.1737 36.0794C18.2782 36.0837 18.3881 36.0657 18.4838 36.1335C17.8244 36.992 15.207 37.1754 13.9947 35.6492Z" fill="#110E34"/>
<path d="M46.1566 33.3951C45.9793 33.4133 45.8009 33.3182 45.6929 33.5074C45.7666 33.7493 46.0805 33.5917 46.1844 33.8107C45.8207 33.9893 45.3651 33.6461 45.041 34.0249C45.1913 34.3093 45.5462 34.1634 45.7828 34.4071C45.3386 34.4505 44.9782 34.339 44.6347 34.172C44.3662 34.0414 44.1363 34.0413 43.8332 34.1329C43.1776 34.331 42.5616 34.1222 42 33.7461C41.8418 33.6401 41.6933 33.463 41.4138 33.6098C41.6509 34.0574 42.0925 34.1315 42.5428 34.2611C42.4516 34.3647 42.3573 34.365 42.2761 34.3515C41.5956 34.2382 40.8918 34.2348 40.3535 33.6628C40.0384 33.328 39.5773 33.2562 39.1121 33.3367C38.9575 33.3635 38.8096 33.4444 38.5674 33.3935C39.0767 32.9984 39.617 32.9015 40.1745 32.8586C40.3858 32.8423 40.6281 32.8725 40.4628 32.5029C41.4883 32.4461 42.4706 32.4378 43.4353 32.2379C44.4032 32.0373 45.2649 31.6318 46.0184 30.8918C46.051 31.2337 45.8976 31.438 45.7641 31.6439C45.6248 31.8586 45.4699 32.0632 45.3214 32.272C45.0619 32.6369 45.1613 32.8599 45.6121 32.9233C45.9657 32.973 46.3038 32.8891 46.6667 32.8135C46.4887 32.9996 46.6348 33.4271 46.1566 33.3951Z" fill="#110E34"/>
<path d="M43.7307 49.5899C43.3266 51.6575 43.0005 53.7044 42.8297 55.7678C42.6776 57.6047 42.5672 59.4549 43.1121 61.2619C43.1991 61.5505 43.3139 61.8307 43.455 62.224C43.0951 61.9321 42.9989 61.6186 42.8775 61.3298C42.3844 60.1565 42.2354 58.9098 42.2006 57.6571C42.1322 55.1969 42.475 52.7735 42.9512 50.3657C43.4035 48.0787 44.0073 45.8332 44.7633 43.6283C44.8089 43.4955 44.8147 43.3387 45.0319 43.1988C44.5868 45.3637 44.1013 47.448 43.7307 49.5899Z" fill="#110E34"/>
<path d="M43.6921 27.9861C45.1951 27.9728 46.4938 28.5277 46.8481 29.3175C46.7762 29.3602 46.7192 29.3154 46.665 29.2802C45.7935 28.7152 44.8577 28.7288 43.9057 28.9957C42.1704 29.4822 40.4432 29.9962 38.7485 30.6135C38.4148 30.7351 38.2589 30.6129 38.2863 30.2539C38.3159 29.8665 38.4684 29.5324 38.7443 29.282C38.9083 29.2649 38.8182 29.4146 38.8938 29.4455C38.9174 29.4338 38.9474 29.4281 38.9631 29.41C39.5979 28.6792 40.5036 28.5816 41.3653 28.4053C42.1248 28.2498 42.9 28.1743 43.6921 27.9861Z" fill="#110E34"/>
<path d="M17.4727 38.1147C16.1888 38.4778 14.993 38.3851 13.8685 37.6827C12.7267 36.9694 12.2812 35.6866 12.7918 34.5518C12.8467 34.4298 12.9003 34.3069 13.0153 34.228C13.1099 34.2534 13.1013 34.3292 13.0929 34.3917C12.9132 35.7367 13.9926 36.8705 15.2671 37.2185C16.7461 37.6224 18.1248 37.4424 19.297 36.3554C19.3447 36.3111 19.3894 36.253 19.4692 36.2698C19.471 36.9157 18.555 37.7699 17.4727 38.1147Z" fill="#110E34"/>
<path d="M43.9422 44.3127C42.5879 46.2366 41.0872 47.9814 39.1323 49.4108C39.1675 49.1486 39.3221 49.0717 39.427 48.9685C41.6176 46.8116 43.5125 44.4195 45.0752 41.7737C45.687 40.7379 46.1235 39.6201 46.2354 38.4014C46.2428 38.3206 46.2524 38.2367 46.4038 38.2184C46.3352 40.5529 45.2207 42.4501 43.9422 44.3127Z" fill="#110E34"/>
<path d="M49.5021 33.8015C49.4177 34.1528 49.2956 34.4521 49.1123 34.7224C48.8821 35.062 48.7366 35.4358 48.6308 35.8291C48.575 36.0368 48.5229 36.2482 48.377 36.4182C48.2698 36.5431 48.1335 36.5844 47.9773 36.5464C47.8079 36.5052 47.7366 36.3707 47.7277 36.2157C47.7201 36.0834 47.7328 35.9439 47.7682 35.8164C47.8815 35.4075 48.0652 35.0105 47.9339 34.5687C47.9237 34.5344 47.9403 34.4883 47.9551 34.452C47.963 34.4325 47.9935 34.4221 47.9983 34.4187C48.386 35.0215 47.8536 35.6456 47.9782 36.2696C48.2726 36.2646 48.3161 36.0812 48.3527 35.9151C48.4732 35.3672 48.7066 34.8695 49.0082 34.4021C49.3738 33.8356 49.4451 33.2804 48.9851 32.7252C48.9322 32.6612 48.8495 32.585 48.9264 32.4406C49.3211 32.8089 49.6033 33.2005 49.5021 33.8015Z" fill="#110E34"/>
</svg>
