<svg xmlns="http://www.w3.org/2000/svg" width="70" height="72" fill="none">
    <path fill="currentColor"
          d="M32.066 54.738c-.184-.051-.305.09-.44.16-.95.506-1.794 1.144-2.46 2.002-.865 1.117-1.156 2.556-.177 3.884.061.083.143.163.129.285-.071.067-.13.013-.175-.028-.794-.718-1.468-1.52-1.649-2.617-.057-.352-.224-.493-.555-.574-1.499-.367-2.694-1.174-3.43-2.553-1.049-1.966-.448-4.292 1.377-5.648.044-.033.094-.052.181.004-1.475 1.808-1.381 3.688-.187 5.593-.1-.27-.214-.534-.297-.808-.337-1.108-.154-2.16.377-3.164.784-1.48 1.98-2.582 3.307-3.555.727-.534 1.492-1.016 2.235-1.53.332-.231.62-.516.881-.835-.92.538-1.79 1.174-2.861 1.48.014-.2.137-.219.224-.269 2.502-1.44 4.124-3.523 4.613-6.401.243-1.432.185-2.873-.059-4.304-.355-2.09-1.093-4.052-2.028-5.944-.117-.237-.272-.455-.41-.682l-.095.04c.135.41.273.819.406 1.229.52 1.602.957 3.224 1.18 4.899.334 2.49.252 4.927-.953 7.206-1.09 2.062-2.84 3.382-4.952 4.272-.063.027-.14.093-.253.005.502-.305.997-.592 1.477-.903 2.254-1.461 3.6-3.523 4.017-6.174.304-1.93.003-3.812-.548-5.662-.69-2.317-1.583-4.555-2.578-6.757-.544-1.202-1.102-2.409-1.277-3.736-.281-2.133-.14-4.209 1.025-6.093 1.057-1.707 2.6-2.776 4.527-3.307.047-.013.1-.002.195.05-2.373 1.12-4.027 2.817-4.513 5.476.811-1.935 2.263-3.128 4.25-3.684 1.927-.539 3.815-.384 5.663.308l-.008.105c-.589-.09-1.175-.192-1.765-.266-.6-.075-1.189.043-1.779.131.36.01.717-.058 1.092.028-.918.365-1.85.684-2.607 1.355-.753.668-1.297 1.447-1.457 2.472.906-1.625 2.24-2.68 4.053-3.098 1.138-.262 2.28-.26 3.519-.017-.33.22-.623.166-.885.219-2.846.571-5.02 2.02-6.096 4.801-.7 1.814-.488 3.626.319 5.377.127.275.275.542.415.819-.172.072-.227-.047-.294-.118-1.314-1.388-2.07-3.037-2.294-4.933a7.564 7.564 0 0 1 .524-3.839c.553-1.34 1.555-2.204 2.88-2.73.169-.068.372-.07.497-.233-.069-.139-.193-.108-.288-.091-1.843.33-3.748 1.387-4.314 3.534-.32 1.208-.229 2.4.06 3.594.49 2.03 1.503 3.833 2.447 5.666.97 1.884 1.89 3.788 2.324 5.883.26 1.259.395 2.528.221 3.814-.026.193-.021.39.018.592.315-.616.466-1.274.562-1.944.296-2.065-.062-4.048-.738-5.998-.55-1.586-.893-3.217-.874-4.907.03-2.711.972-5.024 3.013-6.853.09-.081.177-.166.263-.251.017-.018.024-.046.036-.07-.542-.017-1.521.603-2.425 1.513-.708.713-1.194 1.559-1.55 2.488-.357.933-.42 1.907-.345 2.913-.225-.059-.213-.22-.25-.336-.911-2.879.607-6.17 3.395-7.353 1.392-.59 2.83-.966 4.36-.889.35.018.352.01.68.167-.171.211-.427.284-.63.424-1.722 1.187-2.766 2.848-3.341 4.82-.716 2.456-.446 4.904.13 7.343.378 1.601.977 3.137 1.398 4.725.387 1.456.593 2.934.488 4.439a7.568 7.568 0 0 1-.73 2.758c-.111.234-.203.471-.22.73-.128 1.92-1.017 3.495-2.24 4.908-1.441 1.666-3.266 2.797-5.258 3.683a9.225 9.225 0 0 0-1.916 1.119c-1.07.829-1.774 1.81-1.39 3.276-.377-.21-.645-.954-.567-1.54a3.28 3.28 0 0 1 .465-1.327c.674-1.076 1.645-1.816 2.753-2.378 1.803-.914 3.5-1.975 4.948-3.402.859-.846 1.606-1.775 2.152-2.86-.127-.068-.182.02-.226.07-1.653 1.889-3.766 3.118-5.992 4.19-1.226.59-2.491 1.104-3.649 1.832-.643.405-1.247.858-1.722 1.456-.798 1.004-.863 2.006-.189 3.111.45.737 1.1 1.29 1.783 1.801.05.037.122.045.167.06.109-.048.123-.13.142-.209.437-1.732 1.578-2.915 3.034-3.834 1.048-.66 2.177-1.188 3.163-1.953 1.823-1.412 3.33-3.07 4.158-5.263.22-.58.401-1.172.424-1.8.005-.133-.003-.272.109-.373.08.006.12.064.149.123.844 1.717 1.241 3.485.484 5.337-.555 1.357-1.578 2.33-2.748 3.166-1.081.77-2.27 1.35-3.448 1.95a2.63 2.63 0 0 0-.378.245c-.08.082-.13.122-.18.163Zm-4.9 2.813c-.354-.341-.777-.578-1.218-.795.264.443.646.742 1.12.928.052.02.1-.023.099-.133Z"/>
    <path fill="currentColor"
          d="M21.97 36.755c1.027-1.349 1.241-2.859 1.062-4.469-.114-1.022-.479-1.986-.646-2.997-.5-3.019-.393-5.969 1.01-8.757 1.143-2.272 2.976-3.832 5.257-4.896.056-.027.125-.029.197-.045.027.178-.116.215-.194.287-2.124 1.953-3.052 4.38-2.886 7.247.139 2.405 1.035 4.558 2.221 6.603 1.216 2.094 2.13 4.298 2.537 6.69.42 2.463.206 4.837-1.159 7.012-.984 1.568-2.392 2.65-4.02 3.472-.33.167-.65.373-1.138.44 1.413-1.88 2.354-3.875 2.504-6.172.15-2.318-.508-4.388-1.913-6.262-.189.195-.136.367-.13.52.137 3.662-2.641 5.936-5.471 6.455-1.773.325-3.463.102-5.05-.763a3.788 3.788 0 0 1-1.901-4.155c.022-.1.068-.196.123-.35.19.285.327.546.515.762.728.837 1.681 1.31 2.742 1.531 2.513.525 4.63-.185 6.34-2.153Z"/>
    <path fill="currentColor"
          d="M43.05 12.353c2.04 2.286 2.792 4.941 2.477 7.929-.454-2.44-1.755-4.36-3.602-5.952 1.373 1.37 2.258 3 2.606 4.929-1.787-4.241-5.142-6.61-9.444-7.617-4.364-1.022-8.295.1-11.666 3.08-.085-.109-.03-.182.01-.245 1.569-2.48 3.526-4.562 6.142-5.962a12.614 12.614 0 0 1 4.649-1.41c1.775-.19 3.535-.133 5.3.265 1.246.281 2.527.413 3.7.954 2.994 1.383 5.186 3.517 6.134 6.75.663 2.26.508 4.526-.1 6.777-.017.061-.038.13-.173.159-.038-.447.063-.875.095-1.305.307-4.152-.78-7.74-4.199-10.384a.242.242 0 0 0-.155-.046c2.787 2.707 4.288 5.956 4.103 9.867-.087 1.837-.319 3.669-1.38 5.27 1.25-3.108 1.19-6.26.106-9.357-1.108-3.166-3.267-5.503-6.304-6.949-3.676-1.75-7.387-1.529-11.092-.06 4.844-1.173 9.199-.473 12.792 3.307Z"/>
    <path fill="currentColor"
          d="M20.22 19.135c-.325 1.122-.57 2.22-.41 3.357l.125.02c.104-.45.192-.904.316-1.348.976-3.493 2.889-6.248 6.26-7.814 1.98-.918 4.07-1.467 6.26-1.381 3.842.15 7.085 1.527 9.28 4.859.212.32.43.643.559 1.14-.48-.395-.865-.737-1.276-1.046-1.631-1.229-3.39-2.25-5.394-2.684-5.563-1.207-12.031 1.275-14.158 7.843-.69 2.126-.765 4.276-.264 6.458.347 1.511.631 3.039.55 4.6-.095 1.86-.632 3.532-2.183 4.719a4.702 4.702 0 0 1-3.055.985c-.147-.004-.327.023-.433-.152.125-.154.304-.094.451-.124 2-.411 3.379-1.855 3.805-3.936.331-1.615.115-3.182-.28-4.751-.395-1.566-.816-3.13-1.117-4.715-.432-2.284-.323-4.538.741-6.667.27-.54.597-1.049 1.098-1.431-.3.676-.645 1.331-.876 2.068ZM47.864 38.333c.623-.205.773-.74.855-1.25a8.54 8.54 0 0 1 1.13-3.092c.41-.68.628-1.427.737-2.21a1.568 1.568 0 0 0-.09-.754c-.1-.28-.307-.397-.604-.35-.53.083-.905.365-1.142.885.36-.178.686-.402 1.166-.2-1.162.291-1.54.835-1.717 2.37-.436-.316-.34-.323-.381-.88-.07-.924-.019-1.844-.026-2.765-.01-1.23-.088-2.45-.335-3.656-.065-.318.044-.56.228-.818 1.282-1.793 2.314-3.71 2.711-5.905.276-1.528.174-3.01-.759-4.338a.712.712 0 0 1-.076-.141c-.008-.021.003-.05.008-.098.17-.01.256.12.35.22.626.666 1.137 1.418 1.448 2.273.558 1.532 1.01 3.09 1.085 4.741.075 1.635-.163 3.222-.618 4.782a13.504 13.504 0 0 1-1.389 3.189c.8.887.485 1.86.208 2.818-.161.56-.462 1.063-.76 1.56-.495.823-.714 1.739-.94 2.655-.088.358-.246.687-.53.937-.485.424-1.174.184-1.343-.528.235.272.433.508.784.555Zm2.584-8.517c.142-.61.406-1.196.33-1.85l-1.194 2.326c.455.089.775.067.864-.476Z"/>
    <path fill="currentColor"
          d="M17.933 45.358c-1.32-.115-2.553-.402-3.702-.95 3.607 1.916 7.103 1.95 10.505-.785-.245.933-.73 1.554-1.386 2.05-.897.677-1.935 1.011-3.035 1.125-1.477.154-2.934.044-4.325-.539-1.393-.583-2.468-1.524-3.187-2.858-.092-.17-.211-.31-.346-.444a4.918 4.918 0 0 1-1.032-5.492c.091-.204.175-.418.381-.589.113.23-.015.42-.021.608-.062 2.012.92 3.444 2.519 4.511 2.71 1.81 6.64 1.698 9.122-.236.93-.725 1.606-1.628 1.87-2.802.02-.089.059-.173.106-.307.214.257.219.522.225.776.046 1.799-.73 3.207-2.115 4.29-1.625 1.271-3.512 1.708-5.579 1.642ZM46.461 22.214c-.016-.043-.02-.055-.027-.067-.397-.813-.497-1.637-.392-2.559.18-1.564-.038-3.116-.596-4.605a9.416 9.416 0 0 0-2.755-3.93c-.097-.083-.242-.131-.256-.292 1.054.107 3.572 2.688 4.51 4.679 1.489 3.164 1.317 6.397.334 9.66-.311-.947-.495-1.92-.818-2.886ZM18.733 51.654c-1.128-.88-1.617-2.05-1.722-3.413-.037-.474.013-.513.476-.44 1.623.254 3.218.114 4.788-.353.09-.027.18-.054.271-.076.021-.005.048.016.081.028.003.197-.158.3-.26.43-.583.748-1.085 1.543-1.362 2.459-.23.762-.272 1.512.243 2.196.022.03.025.075.033.113.002.011-.008.025-.025.078-.924-.104-1.74-.48-2.523-1.022ZM32.047 54.755c.068-.058.117-.098.18-.158.261.14.007.233-.051.312-.495.66-.938 1.351-1.3 2.093-.5 1.027-.671 1.776-.613 2.738.37-1.191 1.117-2.091 2.047-2.99-.017.345-.162.535-.253.741-.36.826-.632 1.673-.473 2.585.2 1.152.968 1.858 1.963 2.363.429.218.899.33 1.438.502-.303.122-.51.022-.71-.007-1.39-.202-2.773-.437-4.005-1.168-.739-.438-1.346-.985-1.49-1.906-.09-.576.054-1.096.281-1.605.472-1.057 1.245-1.884 2.066-2.671.292-.28.601-.542.92-.829ZM13.995 35.65c-.715-1.056-.535-2.189.453-2.944.895-.683 1.9-.793 2.971-.596.001.174-.114.17-.189.212-.187.106-.384.197-.558.32-1.072.761-1.088 2.107-.033 2.886a2.73 2.73 0 0 0 1.535.551c.104.005.214-.013.31.054-.66.859-3.277 1.042-4.49-.484ZM46.157 33.395c-.178.018-.356-.077-.464.112.074.242.388.085.491.304-.363.178-.819-.165-1.143.214.15.284.505.138.742.382-.444.044-.805-.068-1.148-.235-.269-.13-.499-.13-.802-.04-.655.199-1.271-.01-1.833-.386-.158-.106-.307-.283-.586-.136.237.447.678.522 1.129.651-.091.104-.186.104-.267.09-.68-.113-1.384-.116-1.923-.688-.315-.335-.776-.407-1.24-.326-.155.026-.303.107-.546.056.51-.395 1.05-.492 1.608-.534.21-.017.453.014.288-.356 1.025-.057 2.008-.065 2.972-.265.968-.2 1.83-.606 2.583-1.346.033.342-.12.546-.254.752-.14.215-.294.42-.443.628-.26.365-.16.588.291.651.354.05.692-.034 1.055-.11-.178.187-.032.614-.51.582ZM43.73 49.59c-.403 2.067-.73 4.114-.9 6.178-.152 1.837-.263 3.687.282 5.494.087.288.202.569.343.962-.36-.292-.456-.605-.578-.894-.493-1.173-.642-2.42-.676-3.673-.069-2.46.274-4.883.75-7.291a51.634 51.634 0 0 1 1.812-6.738c.046-.133.052-.29.269-.43-.445 2.166-.93 4.25-1.301 6.392ZM43.692 27.986c1.503-.013 2.802.542 3.156 1.331-.072.043-.129-.002-.183-.037-.871-.565-1.807-.551-2.76-.284-1.735.486-3.462 1-5.157 1.617-.333.122-.49 0-.462-.36a1.42 1.42 0 0 1 .458-.971c.164-.017.074.133.15.163.023-.011.053-.017.07-.035.634-.73 1.54-.828 2.401-1.005.76-.155 1.535-.23 2.327-.419Z"/>
    <path fill="currentColor"
          d="M17.473 38.115c-1.284.363-2.48.27-3.604-.432-1.142-.714-1.588-1.996-1.077-3.131.055-.122.108-.245.223-.324.095.025.086.101.078.164-.18 1.345.9 2.478 2.174 2.826 1.48.404 2.858.224 4.03-.863.048-.044.092-.102.172-.085.002.646-.914 1.5-1.996 1.845ZM43.942 44.313c-1.354 1.924-2.855 3.668-4.81 5.098.035-.262.19-.34.295-.443a35.195 35.195 0 0 0 5.648-7.194c.612-1.036 1.048-2.154 1.16-3.373.008-.08.017-.164.169-.183-.069 2.335-1.183 4.232-2.462 6.095ZM49.502 33.801c-.084.352-.206.651-.39.921-.23.34-.375.714-.481 1.107-.056.208-.108.42-.254.59a.377.377 0 0 1-.4.127c-.17-.04-.24-.175-.25-.33a1.25 1.25 0 0 1 .041-.4c.114-.409.297-.806.166-1.247-.01-.035.006-.08.021-.117.008-.02.038-.03.043-.033.388.603-.144 1.227-.02 1.85.295-.004.338-.188.375-.354a4.61 4.61 0 0 1 .655-1.513c.366-.566.437-1.122-.023-1.677-.053-.064-.136-.14-.059-.284.395.368.677.76.576 1.36Z"/>
</svg>