<svg width="70" height="72" viewBox="0 0 70 72" fill="none" xmlns="http://www.w3.org/2000/svg">
<g id="Group 292">
<ellipse id="Ellipse 61" opacity="0.04" cx="35" cy="36" rx="35" ry="36" fill="#8951FF"/>
<mask id="mask0_666_3921" style="mask-type:alpha" maskUnits="userSpaceOnUse" x="0" y="0" width="70" height="72">
<ellipse id="Ellipse 62" cx="35" cy="36" rx="35" ry="36" fill="#8951FF"/>
</mask>
<g mask="url(#mask0_666_3921)">
<g id="Group">
<path id="Vector" d="M40.0307 34.4238C40.0187 34.4056 40.0037 34.3392 40.0156 34.3573C40.001 34.32 39.9909 34.2811 39.9855 34.2414C39.8649 34.2352 39.7413 34.2352 39.6211 34.2263C39.2803 34.2082 38.943 34.1931 38.6026 34.1842C38.6561 34.4873 38.6932 34.7929 38.7139 35.1V36.1046C38.7139 36.7073 37.9666 36.7073 37.9666 36.1046C37.9666 35.8032 37.9937 35.3318 37.9608 34.9415C37.9396 34.6734 37.8975 34.4261 37.8762 34.1688C37.355 34.1568 36.8307 34.1537 36.3063 34.1537C36.3187 34.3195 36.345 34.4821 36.3488 34.651C36.3417 34.738 36.3021 34.8192 36.2379 34.8783C36.1737 34.9375 36.0896 34.9704 36.0023 34.9704C35.9149 34.9704 35.8308 34.9375 35.7666 34.8783C35.7024 34.8192 35.6628 34.738 35.6557 34.651C35.6526 34.4852 35.6255 34.3195 35.6136 34.1537C35.1557 34.1568 34.6974 34.1626 34.2396 34.1688C34.2651 34.4795 34.2651 34.7919 34.2396 35.1027C34.2578 35.674 34.2032 36.2453 34.0769 36.8028C34.0482 36.8868 33.9885 36.9567 33.9099 36.9981C33.8313 37.0396 33.7399 37.0493 33.6543 37.0255C33.5688 37.0016 33.4956 36.9459 33.4498 36.8698C33.404 36.7936 33.3891 36.7029 33.4081 36.6161C33.5204 36.1202 33.5669 35.6115 33.5464 35.1034C33.5464 34.8925 33.643 34.4045 33.5433 34.2236C33.5361 34.2091 33.5301 34.194 33.5255 34.1784C33.2902 34.1784 33.0553 34.1815 32.8235 34.1846C32.8204 34.1877 32.8204 34.1877 32.8204 34.1904C32.7301 34.5415 32.5623 34.8679 32.3293 35.1455C32.0202 35.4713 31.5337 34.9802 31.8413 34.6575C31.9564 34.5211 32.0416 34.3619 32.0913 34.1904C31.8533 34.1904 31.618 34.1935 31.383 34.1935C31.3378 34.1935 31.2895 34.1877 31.2416 34.1846C31.1796 34.4789 31.074 34.7623 30.9283 35.0254C30.8077 35.2452 30.5484 35.5014 30.5245 35.7545C30.4824 36.1973 29.7903 36.2004 29.8313 35.7545C29.8873 35.4273 30.0229 35.1189 30.2262 34.8565C30.3766 34.612 30.4882 34.3458 30.5573 34.0671C30.3317 34.01 30.1025 33.9346 29.8827 33.8651C29.8519 33.9202 29.8059 33.9653 29.7502 33.9949C29.2316 34.287 29.0207 34.9168 28.7224 35.4017C28.3995 35.8838 28.1398 36.4053 27.9496 36.9534C27.8171 37.3785 27.1483 37.1976 27.2808 36.7668C27.4945 36.0648 27.9106 35.5343 28.2178 34.8774C28.4175 34.4082 28.7096 33.9841 29.0767 33.6301C28.1938 33.4072 27.3318 33.1931 26.4431 33.0274C26.6599 34.6502 27.0095 36.2093 27.0578 37.8634C27.1436 39.4697 27.127 41.0798 27.008 42.6839V42.6928C27.6174 42.7707 28.2205 42.8915 28.8128 43.0545C28.8769 43.0716 28.9346 43.1072 28.9786 43.1569C31.844 43.702 34.767 43.5432 37.6745 43.5432C40.4828 43.5432 43.5773 43.1306 46.1715 41.9343C47.2804 41.422 48.5698 41.2473 49.6366 40.6477C50.7664 40.0121 51.8962 39.2976 53.0534 38.7192C54.4664 38.0141 55.6175 37.2668 56.4702 35.8839C56.8265 35.3589 57.0857 34.7741 57.2356 34.1576C57.3651 33.5579 56.7503 33.413 56.1812 33.3848C56.2777 33.5273 56.3435 33.6884 56.3744 33.8577C56.3964 33.946 56.3837 34.0393 56.3388 34.1185C56.2939 34.1976 56.2204 34.2564 56.1333 34.2828C56.0446 34.3075 55.9497 34.296 55.8695 34.2509C55.7892 34.2058 55.7301 34.1307 55.7052 34.042C55.6398 33.7736 55.4738 33.5406 55.2415 33.391C55.0576 33.3972 54.8706 33.406 54.6871 33.418C54.9416 33.8605 55.1534 34.3263 55.3196 34.809C55.4822 35.2278 54.8103 35.4056 54.6507 34.996C54.5021 34.6107 54.3291 34.2353 54.1326 33.872C54.0583 33.7285 53.965 33.5957 53.8552 33.4771C53.6233 33.4984 53.3942 33.5223 53.1624 33.5494C53.4887 33.9451 53.6694 34.4407 53.6743 34.9535C53.6667 35.0401 53.6269 35.1207 53.5628 35.1794C53.4986 35.2381 53.4149 35.2706 53.3279 35.2706C53.241 35.2706 53.1572 35.2381 53.0931 35.1794C53.029 35.1207 52.9892 35.0401 52.9815 34.9535C52.9903 34.7089 52.9314 34.4666 52.8112 34.2534C52.691 34.0402 52.5142 33.8644 52.3004 33.7453C52.2603 33.7271 52.2245 33.7008 52.1953 33.668C51.8154 33.719 51.4356 33.7704 51.0531 33.8245C51.2122 34.0655 51.3304 34.3312 51.4028 34.6108C51.4206 34.6973 51.4049 34.7874 51.3587 34.8627C51.3126 34.938 51.2395 34.9929 51.1544 35.0163C51.0692 35.0397 50.9783 35.0299 50.9001 34.9887C50.822 34.9475 50.7624 34.8782 50.7336 34.7947C50.6601 34.4733 50.4997 34.1783 50.2699 33.942C50.26 33.9306 50.251 33.9186 50.2429 33.906C49.9724 33.9238 49.7019 33.9389 49.4264 33.9539C49.6482 34.2964 49.7636 34.697 49.7579 35.105C49.7508 35.192 49.7112 35.2732 49.647 35.3323C49.5828 35.3915 49.4987 35.4244 49.4114 35.4244C49.324 35.4244 49.2399 35.3915 49.1757 35.3323C49.1115 35.2732 49.0719 35.192 49.0648 35.105C49.0617 34.8098 48.9925 34.2974 48.6672 34.1831C48.6249 34.1693 48.5859 34.1473 48.5522 34.1184C48.5186 34.0894 48.4911 34.054 48.4713 34.0142C48.2062 34.0386 47.947 34.0718 47.6939 34.1197C47.847 34.3367 47.9792 34.5678 48.0888 34.8098C48.186 35.1163 48.2407 35.4347 48.2514 35.756C48.2443 35.8431 48.2047 35.9242 48.1405 35.9834C48.0763 36.0426 47.9922 36.0754 47.9048 36.0754C47.8175 36.0754 47.7334 36.0426 47.6692 35.9834C47.605 35.9242 47.5654 35.8431 47.5583 35.756C47.5567 35.575 47.5324 35.3948 47.486 35.2197C47.4559 35.1143 47.4288 34.8882 47.3384 34.8129C47.1848 34.6635 47.069 34.4796 47.0007 34.2766C46.3089 34.3989 45.6046 34.4354 44.9038 34.3851C45.0048 34.6469 45.0599 34.9242 45.0665 35.2047C45.0966 35.6324 45.187 36.1084 45.187 36.4098C45.187 37.0126 44.4938 37.0126 44.4938 36.4098C44.4938 36.1084 44.4305 35.8012 44.3945 35.4547C44.4214 35.1382 44.352 34.8211 44.1955 34.5447C44.1499 34.4908 44.1207 34.425 44.1113 34.355C43.9668 34.3488 43.8219 34.3457 43.6863 34.3457C43.388 34.3457 43.0897 34.3368 42.7945 34.3338C42.8065 34.5385 42.8247 34.7464 42.8277 34.9543C42.8206 35.0413 42.781 35.1225 42.7168 35.1816C42.6526 35.2408 42.5685 35.2737 42.4812 35.2737C42.3938 35.2737 42.3097 35.2408 42.2455 35.1816C42.1813 35.1225 42.1417 35.0413 42.1346 34.9543C42.1315 34.7437 42.1137 34.5327 42.0986 34.3218C41.6315 34.3125 41.1644 34.2947 40.6972 34.2766C40.7285 34.5173 40.7357 34.7605 40.7185 35.0026C40.7113 35.0896 40.6717 35.1708 40.6075 35.2299C40.5433 35.2891 40.4592 35.322 40.3719 35.322C40.2846 35.322 40.2004 35.2891 40.1362 35.2299C40.072 35.1708 40.0324 35.0896 40.0253 35.0026C40.0253 34.8867 40.0377 34.7646 40.0377 34.6471C40.0369 34.5698 40.0369 34.4991 40.0307 34.4238ZM57.7028 29.4371C58.1035 30.2806 58.8086 32.3686 57.9918 33.3009C58.0356 33.4077 58.049 33.5244 58.0304 33.6383C57.6777 36.103 56.0324 38.0013 53.854 39.0921C52.4348 39.8034 51.1211 40.689 49.6841 41.376C48.5659 41.9123 47.3218 42.1627 46.1947 42.6839C43.5943 43.8817 40.4909 44.2356 37.6738 44.2356C34.8744 44.2356 32.0905 44.3589 29.3333 43.913C29.6076 44.9949 29.4809 46.4048 29.5052 47.4353C29.5438 49.186 29.5686 50.9278 29.5686 52.6781C29.5686 53.5282 29.5299 54.3898 29.5805 55.2364C29.6601 55.6994 29.6693 56.1717 29.6076 56.6374C29.4179 57.3275 28.1432 57.2761 27.5679 57.2912H27.5648C26.3144 57.3878 25.1843 57.9361 23.9127 57.9422C22.2616 57.9511 20.6133 57.9422 18.9623 57.9422C17.712 57.9422 16.338 58.12 15.1116 57.8518C14.3342 57.683 13.3609 57.7224 12.6499 57.3395C12.2636 57.1347 12.2852 55.8511 12.216 55.4563C12.056 54.4537 11.9847 53.439 12.0027 52.4239C12.0027 49.703 12.1534 44.2403 12.1534 44.2403C12.155 44.2117 12.1632 44.1839 12.1774 44.1591C12.1831 44.092 12.2076 44.0278 12.2482 43.9739C12.2887 43.9201 12.3436 43.8788 12.4065 43.8547C12.8887 43.6707 13.3435 43.4752 13.8106 43.3064C13.8106 40.0009 13.8075 36.5779 14.1271 33.2457C14.323 31.1874 14.2144 29.0152 14.8612 27.0249C14.8545 26.9742 14.8597 26.9226 14.8763 26.8742C14.9248 26.7426 14.9542 26.6046 14.9636 26.4646C14.9651 26.4532 14.9681 26.4421 14.9725 26.4314C14.9625 26.3907 14.9608 26.3484 14.9674 26.3069C14.974 26.2655 14.9889 26.2259 15.0111 26.1903C15.7735 25.1208 16.569 24.1112 17.3101 23.0355C17.6838 22.4903 18.368 22.231 19.0489 22.0595C19.0544 22.029 19.0646 21.9995 19.079 21.9721C20.8328 18.572 24.9907 15.4786 28.6277 14.3789C29.5762 14.0846 30.5746 13.9862 31.5623 14.0895C32.7315 14.1981 33.9548 15.1532 35.0908 15.0149C35.9856 14.9032 36.7631 14.4121 37.6158 14.2282C38.736 13.995 39.886 13.9401 41.0233 14.0656C42.048 14.1741 43.1326 15.0601 43.9599 15.6084C45.1318 16.3916 46.3041 17.1601 47.5003 17.9043C49.7209 19.2903 51.3479 21.4358 53.0256 23.4064C54.6113 25.2638 56.6422 27.2011 57.7028 29.4371ZM57.4497 32.8446C57.8685 32.3207 57.5942 30.9556 57.4196 30.5128C57.221 29.9847 56.9642 29.4803 56.6541 29.009C56.0548 28.1384 55.41 27.3001 54.7222 26.4975C53.1705 24.6231 51.6311 22.7109 49.9678 20.9335C48.326 19.1863 46.391 18.0712 44.4204 16.7486C42.5345 15.4824 40.0697 13.802 37.6776 14.962C36.7345 15.4171 35.1615 15.9925 34.1159 15.637C33.0553 15.2784 32.0731 14.7301 30.9252 14.712C29.8163 14.7204 28.7228 14.9723 27.722 15.45C24.8114 16.773 21.5994 19.0325 19.9395 21.8578C20.0086 21.8427 20.0747 21.8276 20.1412 21.8126C20.1678 21.8057 20.1952 21.8017 20.2227 21.8006C21.1052 21.68 22.2292 21.5564 23.0433 21.9362C23.2059 21.919 23.3698 21.9516 23.5135 22.0296C23.6571 22.1077 23.7737 22.2275 23.8478 22.3732C24.3544 23.2744 24.8023 24.2074 25.1885 25.1664C25.3574 25.6814 25.5289 26.1876 25.6858 26.6938C25.9508 26.5392 26.2372 26.4233 26.4902 26.251C26.4871 26.251 26.4841 26.251 26.4841 26.2479C26.4207 26.215 26.3967 26.2027 26.3936 26.2C26.3844 26.1936 26.3742 26.1885 26.3635 26.1849C26.0882 26.0494 25.8487 25.8508 25.6645 25.6053C25.3844 25.2618 25.8724 24.7676 26.1525 25.1142C26.291 25.316 26.4817 25.4762 26.7043 25.5779C26.7592 25.6038 26.8125 25.6329 26.8639 25.6652C26.9091 25.6652 26.9543 25.6652 27.0026 25.6683L27.144 25.6865C27.1923 25.6478 27.2406 25.6049 27.2916 25.5705C27.3676 25.5093 27.4328 25.436 27.4848 25.3534C27.0682 25.2083 26.6784 24.9955 26.331 24.7236C25.8156 24.3291 25.3214 24.0911 25.0081 23.4763C24.8033 23.0788 25.403 22.7291 25.6046 23.1286C25.8783 23.599 26.2894 23.9744 26.7827 24.2043C27.0849 24.3986 27.4024 24.5679 27.7321 24.7105C27.7735 24.6857 27.8197 24.6703 27.8677 24.6652C28.0275 24.6407 28.1847 24.6019 28.3375 24.5493C28.035 24.386 27.7521 24.1888 27.4941 23.9616C27.1023 23.6004 26.7708 23.2387 26.4184 22.8438C26.1201 22.5127 26.6081 22.0185 26.9064 22.3527C27.2228 22.7082 27.5149 23.0339 27.8615 23.3593C28.2622 23.6883 28.693 23.9788 29.1482 24.2271C29.2745 24.1699 29.3951 24.1112 29.5067 24.0551C29.4554 24.0192 29.4044 23.9779 29.3499 23.9439C29.1788 23.8102 29.0205 23.6609 28.8769 23.498C28.8165 23.4319 28.7839 23.3451 28.7859 23.2556C28.7879 23.1661 28.8243 23.0808 28.8876 23.0175C28.9508 22.9542 29.0361 22.9177 29.1256 22.9157C29.2151 22.9136 29.3019 22.9461 29.368 23.0065C29.4828 23.1338 29.6046 23.2545 29.7328 23.3682C29.8019 23.4253 29.8773 23.4705 29.9464 23.5339C29.9817 23.5706 30.0237 23.6002 30.0701 23.6212C30.12 23.641 30.166 23.6697 30.2057 23.7059C30.3746 23.6286 30.543 23.5513 30.7119 23.474C30.3858 23.3222 30.0953 23.1035 29.8591 22.8322C29.4306 22.3133 29.1013 21.7198 28.8878 21.0815C28.8707 20.9953 28.8868 20.9059 28.933 20.8311C28.9792 20.7564 29.0519 20.7019 29.1367 20.6786C29.2214 20.6553 29.3118 20.6649 29.3897 20.7056C29.4676 20.7462 29.5272 20.8148 29.5566 20.8976C29.7387 21.4343 30.0165 21.9335 30.3765 22.3713C30.697 22.6828 31.0704 22.9348 31.4792 23.1155C31.5001 23.1155 31.5214 23.1124 31.5422 23.1124C31.3213 22.8187 31.1541 22.4883 31.0484 22.1364C31.0313 22.0502 31.0475 21.9607 31.0937 21.886C31.1399 21.8112 31.2126 21.7567 31.2973 21.7334C31.382 21.7101 31.4724 21.7198 31.5503 21.7604C31.6282 21.801 31.6879 21.8696 31.7173 21.9524C31.8639 22.4123 32.1271 22.8264 32.4811 23.1545C32.5009 23.1752 32.519 23.1974 32.5352 23.2209C32.7191 23.2391 32.9027 23.2542 33.0897 23.2661C32.9585 22.9909 32.8085 22.7251 32.6407 22.4706C32.3938 22.0969 32.9931 21.7477 33.2404 22.1228C33.4529 22.4411 33.6374 22.7773 33.7917 23.1274C33.814 23.1841 33.8263 23.2443 33.8281 23.3052C34.4424 23.3264 35.0603 23.3326 35.675 23.3295C35.7094 23.0881 35.7185 22.8437 35.702 22.6004V21.6422C35.702 21.0394 36.35 21.0394 36.35 21.6422C36.35 21.9432 36.3349 22.4536 36.3527 22.8713C36.362 23.0208 36.362 23.1707 36.3527 23.3202C36.8983 23.3144 37.4346 23.3052 37.9647 23.3052C38.1154 22.6966 38.4832 22.124 38.5192 21.4915C38.5466 21.0483 39.2394 21.0456 39.2123 21.4915C39.1615 21.8481 39.0737 22.1986 38.9504 22.537C38.9106 22.7246 38.8603 22.9097 38.7997 23.0915C38.7545 23.197 38.6838 23.3172 38.6397 23.435C38.8661 23.5601 39.1031 23.6649 39.348 23.7484C39.3615 23.7318 39.3766 23.7166 39.3932 23.7031C39.5014 23.628 39.5952 23.5341 39.6702 23.4257C39.7181 23.3475 39.7945 23.2909 39.8833 23.2679C39.9721 23.2448 40.0663 23.2571 40.1462 23.3021C40.1855 23.325 40.2198 23.3554 40.2473 23.3916C40.2747 23.4278 40.2948 23.4691 40.3063 23.5131C40.3178 23.5571 40.3205 23.6029 40.3142 23.6479C40.308 23.6929 40.2929 23.7362 40.2699 23.7754C40.2217 23.8408 40.1694 23.9031 40.1134 23.962C40.4055 24.0254 40.7007 24.0779 40.9932 24.1309C41.2625 23.9583 41.495 23.734 41.6771 23.4709C41.8316 23.1939 41.8668 22.8527 42.0326 22.573C42.0839 22.5051 42.1582 22.4584 42.2416 22.4417C42.325 22.425 42.4116 22.4394 42.4851 22.4822C42.5586 22.5251 42.6138 22.5933 42.6403 22.6741C42.6669 22.7549 42.6629 22.8427 42.6291 22.9207C42.4452 23.2298 42.4182 23.6077 42.2134 23.9091C42.1 24.0692 41.9663 24.214 41.8158 24.3399C42.1677 24.4741 42.5117 24.628 42.8463 24.8009C42.8973 24.7769 42.997 24.644 43.0395 24.6077C43.1032 24.5597 43.1618 24.5052 43.2141 24.445C43.3497 24.2881 43.4641 24.1166 43.5939 23.9566C43.6257 23.9242 43.6637 23.8984 43.7056 23.8808C43.7475 23.8631 43.7925 23.8541 43.8379 23.8541C43.8834 23.8541 43.9284 23.8631 43.9703 23.8808C44.0122 23.8984 44.0501 23.9242 44.082 23.9566C44.1461 24.0217 44.1821 24.1094 44.1821 24.2008C44.1821 24.2922 44.1461 24.3799 44.082 24.445C43.9122 24.6806 43.7285 24.9057 43.5317 25.1193C43.7755 25.2216 44.0136 25.3302 44.2516 25.4415C44.2837 25.408 44.3215 25.3806 44.3632 25.3604C44.6142 25.2194 44.8321 25.0264 45.0023 24.7943C45.1942 24.5819 45.3747 24.3595 45.5433 24.1282C45.7963 23.7638 46.3991 24.11 46.1429 24.4779C45.9331 24.7894 45.6961 25.0818 45.4347 25.3515C45.2969 25.5039 45.1489 25.647 44.9919 25.7796C45.272 25.9059 45.5583 26.0265 45.8473 26.1273C45.8748 26.1366 45.9018 26.1455 45.932 26.1575C46.5436 25.8441 47.2395 25.6965 47.758 25.2116C48.0834 24.9071 48.5744 25.3982 48.2491 25.7027C47.9464 25.9704 47.605 26.1908 47.2364 26.3565C47.1101 26.4167 46.9833 26.4677 46.8539 26.516C47.0695 26.6206 47.2678 26.7578 47.4416 26.9229C47.4686 26.9499 47.4987 26.9739 47.5258 27.0002C47.6854 26.8375 47.8932 26.7258 48.059 26.5663C48.3816 26.2572 48.8727 26.7471 48.5501 27.0574C48.3955 27.2019 48.2097 27.3073 48.0532 27.4492C48.1857 27.5515 48.3152 27.6508 48.4508 27.7501C48.4712 27.742 48.4925 27.736 48.5142 27.7324C48.8675 27.6169 49.1878 27.4181 49.4481 27.1528C49.7104 26.9391 50.0118 26.7583 50.2888 26.5624C50.6536 26.3031 50.9998 26.9028 50.6385 27.1621C50.2908 27.409 49.943 27.6532 49.5953 27.9001C49.4508 28.0055 49.297 28.1292 49.1343 28.2258C49.3395 28.3672 49.5443 28.5059 49.746 28.6508C49.7552 28.6446 49.761 28.6388 49.7672 28.6357C49.9268 28.5786 50.0655 28.4762 50.222 28.4097C50.3785 28.3432 50.5384 28.2938 50.6891 28.22C50.7692 28.1755 50.8633 28.1635 50.9519 28.1865C51.0405 28.2095 51.1169 28.2658 51.1652 28.3436C51.2107 28.4237 51.223 28.5185 51.1994 28.6075C51.1758 28.6965 51.1181 28.7727 51.0388 28.8197C50.8429 28.9101 50.6289 28.9673 50.436 29.0696C50.411 29.0839 50.3852 29.0968 50.3588 29.1083C50.5853 29.2869 50.8016 29.4781 51.0067 29.6809C51.0244 29.6965 51.0406 29.7137 51.055 29.7323C51.0577 29.7323 51.0608 29.7292 51.0639 29.7292C51.6906 29.708 52.2783 29.3015 52.8799 29.1384C52.9664 29.1206 53.0565 29.1363 53.1318 29.1825C53.2071 29.2286 53.2621 29.3017 53.2855 29.3869C53.3089 29.472 53.299 29.5629 53.2578 29.6411C53.2167 29.7192 53.1473 29.7788 53.0638 29.8076C52.5666 29.9433 52.1025 30.1963 51.6083 30.332C51.8587 30.6179 52.0967 30.9073 52.3316 31.1994C52.7474 30.9606 53.1829 30.7581 53.6334 30.5939C53.7221 30.5703 53.8166 30.5827 53.8962 30.6284C53.9759 30.6742 54.0342 30.7496 54.0584 30.8381C54.0809 30.9263 54.0684 31.0198 54.0235 31.099C53.9786 31.1783 53.9049 31.2371 53.8177 31.2632C53.4597 31.3984 53.1112 31.5574 52.7744 31.7392C52.9012 31.8937 53.0306 32.0437 53.1608 32.1943C53.1644 32.1922 53.1686 32.1911 53.1728 32.1913C53.7839 32.1026 54.3721 31.897 54.9054 31.5858C55.306 31.3868 55.6553 31.9834 55.2531 32.1824C55.0599 32.2817 54.8524 32.381 54.6415 32.4745C54.6388 32.5285 54.6267 32.5816 54.6055 32.6313C55.5514 32.5676 56.7461 32.5606 57.4497 32.8446ZM52.8243 32.8539C52.6013 32.6039 52.3904 32.3516 52.1825 32.0947H52.1736C51.3217 32.1073 50.4844 31.8729 49.763 31.4196C48.9902 30.8891 49.1154 29.1747 49.1154 29.1747C49.1163 29.129 49.1224 29.0835 49.1335 29.0391C49.1061 29.0183 49.076 28.9939 49.0458 28.9731C48.7537 29.6056 48.365 30.2837 47.5965 30.3497C46.9362 30.4049 46.2721 30.3939 45.614 30.3169C47.5212 30.7419 48.9253 31.4467 48.3801 32.6159C48.586 32.6422 48.7813 32.7224 48.9464 32.8483C49.1114 32.9742 49.2403 33.1414 49.3202 33.333C50.4952 33.1974 51.6644 33.0347 52.8243 32.8539ZM50.3928 30.9946C50.7656 31.1696 51.1628 31.2869 51.5709 31.3424C51.1825 30.8535 50.7562 30.3962 50.2958 29.9746C50.13 29.827 49.9643 29.6883 49.7935 29.5526C49.778 30.094 49.7912 30.7025 50.3928 30.9946ZM48.4585 28.599C48.4643 28.584 48.4736 28.572 48.4794 28.5604C47.9643 28.1899 47.4489 27.8193 46.952 27.4155C46.6325 27.1739 46.2792 26.9807 45.9034 26.8421L45.8763 26.8333C45.364 26.6285 44.8215 26.4596 44.3636 26.2456C44.1828 26.1613 43.9989 26.0798 43.8123 25.9956C43.8629 26.4471 43.8639 26.9028 43.8153 27.3545C43.7427 27.9001 43.4657 29.1203 44.2883 29.3312C45.0846 29.5572 45.9072 29.6778 46.7349 29.6898C47.6297 29.6689 48.0818 29.4186 48.4585 28.599ZM47.6417 32.5073C48.5126 31.1163 44.7523 30.9073 43.9208 30.7898C42.1925 30.525 40.4473 30.386 38.6988 30.3741C37.0598 30.3741 35.4389 30.0213 33.7995 30.2114C32.6743 30.3439 28.7718 30.609 29.0037 32.4532C29.4615 32.1576 29.9947 32.1607 30.6307 32.1441C31.1291 32.0802 31.633 32.2109 32.0376 32.5089C32.5198 32.0568 33.4869 32.1263 34.1739 32.1742C34.8431 32.2225 36.0212 32.2075 36.4458 32.8462C37.1749 32.3551 38.4315 32.5541 39.239 32.5452C39.9322 32.5359 40.7274 32.5479 41.1644 33.0571C41.7853 32.4575 42.7582 32.4907 43.6353 32.4969C44.3976 32.5 45.2171 32.5873 45.7144 33.1294C45.9489 32.9003 46.2305 32.725 46.5395 32.6158C46.8486 32.5066 47.1778 32.466 47.5042 32.4969C47.5501 32.4984 47.5938 32.5011 47.6417 32.5073ZM48.5428 33.4172C48.2206 33.256 47.8635 33.1773 47.5034 33.1881C47.1719 33.2005 46.4486 33.2268 46.2349 33.5981C47.003 33.556 47.7746 33.4957 48.5428 33.4172ZM43.6863 33.6495C44.1955 33.6584 44.7048 33.6495 45.2171 33.6344C44.7832 33.1402 43.9668 33.1974 43.3339 33.1823C42.7157 33.1704 42.0171 33.1491 41.6014 33.6101C42.2953 33.6251 42.9908 33.6371 43.6863 33.6495ZM44.4548 30.0997C44.3389 30.0696 44.2199 30.0364 44.102 29.9974C43.8584 29.9506 43.6333 29.8353 43.4529 29.665C43.2726 29.4948 43.1446 29.2765 43.0839 29.036C43.0121 29.1573 42.9261 29.2696 42.8277 29.3706C42.636 29.5592 42.4153 29.7157 42.174 29.8343C42.9135 29.8946 43.7014 29.9823 44.4548 30.0997ZM43.0831 25.6675C42.9595 25.6103 42.8359 25.5516 42.7153 25.4867C42.6932 25.4792 42.672 25.4691 42.6523 25.4566C42.5859 25.4233 42.5225 25.3932 42.4564 25.3573C41.1064 24.637 39.5199 24.7727 38.1989 23.9833C38.1704 23.9913 38.1411 23.9964 38.1115 23.9983C37.4906 23.9983 36.8457 24.0041 36.192 24.0103C36.1889 24.0223 36.1889 24.0316 36.1862 24.0436C35.8522 25.3885 35.6632 26.7653 35.6224 28.1504C35.5745 29.4371 38.8766 29.5213 39.6633 29.5001C41.1095 29.4614 42.2814 29.4158 42.6975 27.8127C42.8842 27.1018 42.842 26.3514 43.0831 25.6675ZM40.6995 33.5919C40.4345 33.095 39.5095 33.2364 39.0667 33.2364C38.5876 33.2364 37.093 33.0197 36.7043 33.5196C38.0362 33.5378 39.3677 33.5652 40.6995 33.5919ZM35.954 33.5108C35.9552 33.5056 35.9567 33.5006 35.9586 33.4957C35.9418 33.4599 35.9288 33.4225 35.92 33.384C35.8176 32.7816 32.8138 32.6113 32.4672 33.1429L32.473 33.1491C32.4971 33.2006 32.5048 33.2582 32.4952 33.3143C32.4855 33.3703 32.4589 33.422 32.4189 33.4625C32.9641 33.4895 33.5186 33.4988 34.0974 33.4988C34.7156 33.4988 35.3334 33.5046 35.954 33.5108ZM34.4173 29.5364C34.7971 29.5333 35.1766 29.5426 35.5564 29.5577C35.3132 29.444 35.1232 29.241 35.0259 28.9908C34.8698 29.219 34.6611 29.4061 34.4173 29.5364ZM34.119 28.9309C35.306 27.6199 34.6464 25.5168 35.3875 24.0134C34.1222 24.0259 32.8573 23.9564 31.6009 23.8055C31.5708 23.8296 31.5359 23.847 31.4986 23.8565C30.8678 24.1942 30.2156 24.4901 29.5462 24.7425C29.1938 24.8781 28.8592 25.0516 28.5095 25.1853C28.4674 26.3935 28.2324 28.4124 29.8657 28.7401C30.4893 28.8637 31.1551 28.9603 31.7818 29.0295C32.242 29.0832 33.7875 29.2953 34.119 28.9309ZM31.8923 29.7957C31.9557 29.7806 32.0217 29.7682 32.0855 29.757C30.9796 29.6411 29.7444 29.6063 28.783 29.0279C28.6158 29.3453 28.3462 29.597 28.018 29.742C27.5338 29.9873 27.011 30.1475 26.4725 30.2153C26.5432 30.9178 26.5371 31.626 26.4543 32.3273C27.0992 32.4478 27.7294 32.6074 28.3588 32.7701C27.8789 30.8319 30.5453 30.094 31.8923 29.7957ZM31.7377 33.2426C31.7377 33.2306 31.7408 33.2214 31.7408 33.2125C31.4317 32.682 30.7165 32.8207 30.1771 32.8597C29.8994 32.8441 29.6224 32.9002 29.3727 33.0228C29.6014 33.0768 29.8336 33.1309 30.0682 33.1792C30.6356 33.292 31.2091 33.3725 31.7856 33.4203C31.752 33.3674 31.7347 33.3053 31.7377 33.2426ZM27.9125 56.5942C28.3978 56.5911 28.892 56.537 28.8708 55.9914C28.8499 55.425 28.7684 54.8616 28.7684 54.2913V50.5159C28.8277 49.3313 28.8148 48.1442 28.7297 46.9612C28.6092 46.0061 28.9558 44.6429 28.5698 43.7612C28.5606 43.7422 28.5546 43.7218 28.552 43.7009C28.2097 43.6093 27.8626 43.5369 27.5122 43.4841C27.5424 45.7078 27.5242 47.9557 27.7081 50.1686C27.8916 52.3051 27.9606 54.4499 27.9148 56.5938L27.9125 56.5942ZM27.4237 29.2412C27.7162 29.1357 28.1861 28.9367 28.2224 28.5751C27.7672 28.0086 27.7402 26.948 27.7734 26.0713C27.5837 26.2309 27.3967 26.3935 27.207 26.5566C26.9929 26.7432 26.7433 26.8549 26.5138 27.0203C26.3152 27.1652 26.0888 27.2436 25.8956 27.385C26.1032 28.0863 26.2672 28.7998 26.3867 29.5213C26.7431 29.4737 27.0918 29.3795 27.4237 29.2412ZM27 56C27.0574 55.0815 25.5814 58.1403 25.5 57.2236C25.3373 55.9099 27.2174 51.2006 26.9585 49.9051C26.7538 48.8835 27.5694 57.6787 27.5122 56.6394C27.4489 55.5428 21.2339 58.2514 21.2169 57.1544C20.3459 57.0771 20.0388 46.9612 20.2755 45.5C19.5221 44.7401 20 45 20.0477 43.282C20.4483 45.4126 20.1864 47.7146 20.5086 49.866C20.8703 52.2914 20.4878 54.7832 21.2169 57.1544C21.2273 57.1907 21.2324 57.2283 21.2319 57.2661C22.4432 57.3233 21.9154 56.3291 23 55.9914C23.7387 55.7511 26.2302 56.1045 27 56ZM26.321 42.6163C26.6301 39.5098 26.1885 36.4755 25.7967 33.4203C25.2214 33.6012 24.3987 33.1112 23.8354 32.5587C22.8891 31.6275 22.4552 30.4552 21.9579 29.2532C21.6268 28.4518 21.2439 27.0508 20.6713 26.3483C20.4734 26.4955 20.2553 26.6133 20.0237 26.698C18.8382 27.0491 17.5937 27.1557 16.3658 27.0114C16.1201 27.0014 15.8755 26.9743 15.6336 26.9302C14.7144 29.2652 15.025 31.9981 14.7897 34.4327C14.5127 37.3101 14.5038 40.1666 14.5038 43.0954C14.639 43.0591 14.7778 43.029 14.9196 43.0019C16.3098 42.7612 17.7179 42.6394 19.1288 42.6376C21.4611 42.6376 23.9467 42.3995 26.321 42.6163ZM25.8117 31.5101C25.8117 29.5878 25.3268 28.0179 24.7844 26.1919C24.6638 25.785 23.6936 23.0672 23.0939 22.6758C22.6862 23.501 22.2341 24.3035 21.7396 25.0798C21.579 25.3654 21.3914 25.6349 21.1794 25.8847C21.7879 26.6188 22.0742 27.7285 22.4266 28.5813C22.8064 29.4943 23.0924 30.5306 23.6862 31.3354C24.1847 32.0197 25.8117 33.6012 25.8117 31.5101ZM21.9865 23.1545C22.303 22.4826 22.7458 22.4014 21.9626 22.4285C21.417 22.4497 20.8656 22.4045 20.3235 22.4799C19.4646 22.6846 18.1509 22.8353 17.6811 23.7163C17.4181 24.254 17.0835 24.7536 16.6865 25.2016C16.5149 25.3855 16.1622 25.8074 15.9091 26.1289C16.0683 26.1725 16.2212 26.2363 16.3643 26.3186C16.979 26.3186 17.6115 26.3611 18.2232 26.3186C20.3402 26.1706 21.1446 24.9442 21.9881 23.1545H21.9865ZM20.5299 57.2506C20.111 55.8376 20.1261 54.4907 20.0388 53.0294C19.9754 52.0047 20.0477 50.7497 19.7977 49.7571C19.2764 47.6706 19.7795 45.418 19.3549 43.318C19.2776 43.3211 19.2042 43.3242 19.1288 43.33C18.297 43.3995 17.4566 43.4536 16.622 43.5258C16.7483 46.2104 16.7765 48.9132 16.8086 51.5982C16.8884 52.767 17.0433 53.9295 17.2723 55.0784C17.3236 55.4307 17.2603 56.6904 17.4469 57.2236C18.4658 57.2506 19.4874 57.2506 20.5299 57.2506ZM16.7047 57.1965C16.5389 56.4493 16.7166 55.4396 16.5331 54.777C16.2911 53.9125 16.1525 53.0224 16.1201 52.1252C16.0841 49.2841 16.0629 46.4276 15.9269 43.5892C15.5293 43.6313 15.1313 43.6765 14.7399 43.7337C14.4407 43.7867 14.1478 43.8705 13.8659 43.9837C14.068 45.7588 14.0919 47.6718 14.1132 49.4495C14.1402 51.7245 14.1101 55.9732 14.1008 56.9794C14.9779 57.0914 15.8415 57.1575 16.7062 57.1969L16.7047 57.1965ZM13.4084 56.8708C13.4235 54.2585 13.58 51.5286 13.4084 48.8831C13.3076 47.3592 13.3466 45.7893 13.2005 44.2681C13.08 44.3195 12.9594 44.3736 12.842 44.4226C12.8358 46.7668 12.6944 48.9936 12.6944 51.2717C12.6959 52.177 12.4486 56.4825 13.41 56.8712L13.4084 56.8708Z" fill="black"/>
<path id="Vector_2" d="M53.3731 28.0751C53.4376 28.1406 53.4737 28.2288 53.4737 28.3207C53.4737 28.4125 53.4376 28.5007 53.3731 28.5662C53.3248 28.6025 53.2572 28.6354 53.2224 28.6655C53.1563 28.7287 53.0683 28.7639 52.9769 28.7639C52.8854 28.7639 52.7975 28.7287 52.7313 28.6655C52.6673 28.6004 52.6313 28.5128 52.6313 28.4215C52.6313 28.3302 52.6673 28.2426 52.7313 28.1775C52.7765 28.1412 52.8472 28.1052 52.8816 28.0751C52.9479 28.0121 53.0359 27.9769 53.1274 27.9769C53.2188 27.9769 53.3068 28.0121 53.3731 28.0751Z" fill="black"/>
<path id="Vector_3" d="M52.9984 26.6165C53.0776 26.6628 53.1354 26.7385 53.159 26.8271C53.1827 26.9158 53.1704 27.0102 53.1247 27.0898C52.9615 27.2684 52.7645 27.4128 52.5451 27.5148C52.1653 27.7529 51.8191 27.1536 52.1955 26.9183C52.3088 26.8666 52.4186 26.8072 52.5239 26.7405C52.5714 26.6624 52.6475 26.6057 52.736 26.5826C52.8246 26.5594 52.9186 26.5716 52.9984 26.6165Z" fill="black"/>
<path id="Vector_4" d="M50.7665 38.817V39.118C50.7665 39.5639 49.8628 39.5639 49.8628 39.118V38.817C49.8628 38.3707 50.7665 38.3707 50.7665 38.817Z" fill="black"/>
<path id="Vector_5" d="M49.5613 39.118V39.7207C49.5613 40.3235 48.9585 40.3235 48.9585 39.7207V39.118C48.9585 38.5156 49.5613 38.5156 49.5613 39.118Z" fill="black"/>
<path id="Vector_6" d="M41.673 40.0221C41.673 40.6245 41.6371 41.0677 41.622 41.604C41.6097 42.0499 40.9169 42.0649 40.9289 41.616C40.9432 41.0797 40.9818 40.6245 40.9818 40.0221C40.9818 39.4197 41.673 39.4194 41.673 40.0221Z" fill="black"/>
<path id="Vector_7" d="M41.4261 38.2142V38.817C41.4261 39.2629 40.522 39.2629 40.522 38.817V38.2142C40.522 37.7683 41.4261 37.7683 41.4261 38.2142Z" fill="black"/>
<path id="Vector_8" d="M38.3673 17.7764C38.3744 17.6894 38.414 17.6082 38.4782 17.5491C38.5424 17.4899 38.6265 17.457 38.7139 17.457C38.8012 17.457 38.8853 17.4899 38.9495 17.5491C39.0137 17.6082 39.0533 17.6894 39.0604 17.7764C39.0485 18.6651 39.1207 19.8343 38.6115 20.6117C38.3673 20.9853 37.768 20.6357 38.0118 20.262C38.4426 19.6052 38.3541 18.5326 38.3673 17.7764Z" fill="black"/>
<path id="Vector_9" d="M39.0154 16.5199V16.8209C39.0154 17.1222 38.4126 17.1222 38.4126 16.8209V16.5199C38.4126 16.2185 39.0154 16.2185 39.0154 16.5199Z" fill="black"/>
<path id="Vector_10" d="M38.211 37.9669C38.3032 37.9669 38.3917 38.0036 38.4569 38.0688C38.5221 38.134 38.5587 38.2224 38.5587 38.3147C38.5525 38.4352 38.5166 38.5589 38.5104 38.6674C38.5092 38.7593 38.4722 38.847 38.4073 38.912C38.3423 38.977 38.2545 39.014 38.1627 39.0152C38.0705 39.0152 37.982 38.9785 37.9168 38.9133C37.8516 38.8481 37.8149 38.7597 37.8149 38.6674C37.8211 38.5469 37.8574 38.4232 37.8632 38.3147C37.865 38.223 37.9022 38.1356 37.9671 38.0707C38.0319 38.0059 38.1193 37.9687 38.211 37.9669Z" fill="black"/>
<path id="Vector_11" d="M38.458 39.7961C38.4703 40.5491 38.5094 42.1314 38.5094 42.1314C38.5094 42.4324 37.8162 42.4324 37.8162 42.1314C37.8162 41.2273 37.7775 40.5886 37.7652 39.8351C37.759 39.3861 38.4522 39.3502 38.458 39.7961Z" fill="black"/>
<path id="Vector_12" d="M37.8099 17.7235V18.9286C37.8099 19.23 36.9058 19.23 36.9058 18.9286V17.7235C36.9058 17.4236 37.8099 17.4236 37.8099 17.7235Z" fill="black"/>
<path id="Vector_13" d="M37.8099 16.5199V16.8209C37.8099 17.2672 36.9058 17.2672 36.9058 16.8209V16.5199C36.9058 16.074 37.8099 16.074 37.8099 16.5199Z" fill="black"/>
<path id="Vector_14" d="M34.0769 20.9973C34.2365 21.4161 33.5646 21.5969 33.4081 21.1812C33.2732 20.8809 33.1847 20.5618 33.1457 20.2349C33.1182 20.0523 33.1012 19.8682 33.0947 19.6836C33.1151 19.5146 33.1191 19.344 33.1067 19.1743C33.0464 18.7373 33.7122 18.5476 33.7755 18.9873C33.8269 19.352 33.8088 19.7257 33.8296 20.0931C33.8664 20.4052 33.9498 20.7099 34.0769 20.9973Z" fill="black"/>
<path id="Vector_15" d="M33.6339 17.2911C33.7212 17.3171 33.795 17.3759 33.8399 17.4551C33.8849 17.5343 33.8974 17.6278 33.875 17.7161C33.8654 17.7529 33.8534 17.7891 33.839 17.8243C33.8378 17.9161 33.8008 18.0039 33.7359 18.0689C33.6709 18.1338 33.5832 18.1708 33.4913 18.172C33.3991 18.172 33.3106 18.1354 33.2454 18.0702C33.1802 18.005 33.1436 17.9165 33.1436 17.8243C33.1497 17.7188 33.1919 17.6311 33.2038 17.5322C33.2161 17.4881 33.237 17.4468 33.2653 17.4108C33.2936 17.3747 33.3288 17.3447 33.3687 17.3223C33.4087 17.2998 33.4527 17.2856 33.4982 17.2802C33.5437 17.2749 33.5898 17.2786 33.6339 17.2911Z" fill="black"/>
<path id="Vector_16" d="M32.6819 41.9293C32.6969 42.3783 32.0041 42.3752 31.9891 41.9293C31.9798 41.6248 31.8987 41.3327 31.8863 41.0283C31.8743 40.694 31.8442 40.3594 31.8384 40.0237C31.846 39.9371 31.8858 39.8565 31.95 39.7978C32.0141 39.7391 32.0978 39.7065 32.1848 39.7065C32.2717 39.7065 32.3555 39.7391 32.4196 39.7978C32.4837 39.8565 32.5235 39.9371 32.5312 40.0237C32.5404 40.6639 32.6637 41.2929 32.6819 41.9293Z" fill="black"/>
<path id="Vector_17" d="M32.058 16.2243C32.2388 16.2243 32.3412 16.3812 32.3323 16.5721C32.3213 16.7946 32.2316 17.006 32.0792 17.1686C32.0484 17.2001 32.0116 17.2252 31.9709 17.2423C31.9303 17.2594 31.8867 17.2682 31.8426 17.2682C31.7985 17.2682 31.7548 17.2594 31.7142 17.2423C31.6736 17.2252 31.6367 17.2001 31.6059 17.1686C31.5448 17.1004 31.5125 17.011 31.5159 16.9194C31.5193 16.8278 31.558 16.7411 31.6241 16.6775C31.6179 16.6868 31.7083 16.5902 31.7014 16.6173C31.7075 16.5964 31.7856 16.5871 31.7856 16.584V16.5721C31.7856 16.3812 31.8629 16.2243 32.058 16.2243Z" fill="black"/>
<path id="Vector_18" d="M32.0793 20.0843C32.1002 20.5333 31.3529 20.5302 31.3347 20.0843C31.3197 19.7829 31.1802 19.4846 31.1802 19.1801V18.3278C31.1802 18.0264 31.9784 18.0264 31.9784 18.3278C31.9784 18.6292 31.9665 18.888 31.9784 19.1562C31.9916 19.4622 32.0669 19.7798 32.0793 20.0843Z" fill="black"/>
<path id="Vector_19" d="M30.6325 40.3235C30.6396 40.2364 30.6792 40.1553 30.7434 40.0961C30.8077 40.0369 30.8918 40.0041 30.9791 40.0041C31.0664 40.0041 31.1505 40.0369 31.2147 40.0961C31.279 40.1553 31.3186 40.2364 31.3257 40.3235C31.3195 40.8115 31.2322 41.2937 31.2264 41.7786C31.2193 41.8656 31.1797 41.9468 31.1154 42.0059C31.0512 42.0651 30.9671 42.098 30.8798 42.098C30.7925 42.098 30.7084 42.0651 30.6441 42.0059C30.5799 41.9468 30.5403 41.8656 30.5332 41.7786C30.5394 41.2929 30.6263 40.8115 30.6325 40.3235Z" fill="black"/>
<path id="Vector_20" d="M29.476 40.3505C29.5258 40.2788 29.6008 40.2284 29.6861 40.2094C29.7713 40.1904 29.8606 40.2042 29.9362 40.248C30.0117 40.2918 30.068 40.3624 30.0939 40.4459C30.1197 40.5293 30.1132 40.6194 30.0757 40.6983C29.9628 40.8533 29.8921 41.0351 29.8705 41.2257C29.8629 41.3123 29.8231 41.3929 29.7589 41.4516C29.6948 41.5102 29.6111 41.5428 29.5241 41.5428C29.4372 41.5428 29.3534 41.5102 29.2893 41.4516C29.2252 41.3929 29.1854 41.3123 29.1777 41.2257C29.199 40.9129 29.3018 40.6112 29.476 40.3505Z" fill="black"/>
<path id="Vector_21" d="M26.1056 19.8613C26.3409 20.2407 25.7412 20.5873 25.5063 20.2091C25.2724 19.9286 25.1178 19.5907 25.0585 19.2304C25.0403 18.7845 25.7335 18.7845 25.7512 19.2304C25.7632 19.4575 25.9923 19.6743 26.1056 19.8613Z" fill="black"/>
<path id="Vector_22" d="M25.2636 21.3941C25.3537 21.3976 25.4391 21.4357 25.5019 21.5004C25.5647 21.5652 25.6002 21.6517 25.6009 21.7419C25.6013 21.7876 25.5926 21.8331 25.5753 21.8754C25.5579 21.9178 25.5323 21.9563 25.5 21.9887C25.4676 22.0211 25.4291 22.0467 25.3867 22.064C25.3443 22.0813 25.2989 22.09 25.2531 22.0896C25.1153 22.0754 24.9826 22.0297 24.8653 21.956C24.7479 21.8823 24.6492 21.7826 24.5766 21.6646C24.5101 21.5773 24.4711 21.4749 24.4077 21.3845C24.3323 21.2729 24.2687 21.1538 24.218 21.029C24.1942 20.9407 24.2062 20.8465 24.2513 20.767C24.2965 20.6874 24.3711 20.6289 24.4591 20.604C24.5477 20.5812 24.6417 20.5936 24.7214 20.6385C24.8012 20.6835 24.8604 20.7575 24.8868 20.8451C24.9214 20.9117 24.9617 20.9752 25.0074 21.0348C25.0495 21.0981 25.0889 21.1974 25.1233 21.2488C25.1554 21.2952 25.1929 21.3376 25.235 21.3752C25.2454 21.386 25.2786 21.3941 25.2636 21.3941Z" fill="black"/>
<path id="Vector_23" d="M24.2995 19.8613C24.3371 19.9402 24.3436 20.0303 24.3177 20.1137C24.2919 20.1972 24.2355 20.2678 24.16 20.3117C24.0844 20.3555 23.9951 20.3692 23.9099 20.3502C23.8246 20.3312 23.7496 20.2808 23.6998 20.2091C23.621 20.0612 23.5709 19.8996 23.5522 19.7331C23.5522 19.6408 23.5889 19.5524 23.6541 19.4872C23.7193 19.422 23.8078 19.3853 23.9 19.3853C23.992 19.3859 24.0801 19.4228 24.1452 19.4878C24.2103 19.5529 24.2471 19.641 24.2477 19.7331C24.2579 19.7784 24.2754 19.8217 24.2995 19.8613Z" fill="black"/>
</g>
</g>
</g>
</svg>
