<svg width="70" height="72" viewBox="0 0 70 72" fill="none" xmlns="http://www.w3.org/2000/svg">
<g id="Group 291">
<ellipse id="Ellipse 61" opacity="0.04" cx="35" cy="36" rx="35" ry="36" fill="#8951FF"/>
<g id="Layer 2">
<g id="Group">
<g id="Group_2">
<path id="Vector" d="M17.3361 56.2704C17.8884 53.68 18.2394 51.0856 18.5369 48.4483C18.8265 45.8804 19.1447 43.316 19.2718 40.7339C19.2391 40.0424 19.2923 39.3495 19.43 38.6711C19.6133 38.0675 19.8957 37.4906 20.0987 36.891C20.515 35.6614 20.9724 34.4503 21.4518 33.2441C22.3922 30.8781 23.2475 28.4815 23.9474 26.0326C24.5266 23.8506 24.9801 21.6371 25.3057 19.4031C25.3904 18.8907 25.2834 18.9552 25.1416 19.4975C24.6446 21.3992 24.0067 23.2603 23.4365 25.1422C22.7139 27.5283 21.8912 29.8808 20.9685 32.1999C20.4895 33.4051 19.9895 34.6042 19.5708 35.8323C19.3656 36.3847 19.21 36.9543 19.1058 37.5343C19.0565 38.2199 18.946 38.8997 18.7756 39.5655C18.1056 42.0191 17.6903 44.5352 17.5362 47.074C17.1914 50.1094 16.8609 53.1142 16.8155 56.1656C16.8113 56.4503 17.2695 56.5833 17.3361 56.2704Z" fill="black"/>
<path id="Vector_2" d="M33.2679 57.9473C34.059 54.8657 34.258 51.6618 33.8542 48.5059C33.6411 46.8768 33.3378 45.2608 32.9458 43.6653C32.8001 42.9612 32.7173 42.232 32.6286 41.5185C32.4968 40.6283 32.3123 39.7468 32.0762 38.8784C31.6805 37.2737 31.2423 35.6502 30.9518 34.0225C30.6641 32.2988 30.6493 30.5406 30.9081 28.8124C31.6398 25.4949 32.0657 22.1173 32.1804 18.722C32.2077 17.0228 31.7947 15.3456 30.9814 13.8534C30.1682 12.3613 28.9825 11.1051 27.5397 10.2072C27.5129 10.1929 27.4817 10.1889 27.4522 10.1962C27.4226 10.2035 27.3968 10.2214 27.3797 10.2466C27.3626 10.2717 27.3554 10.3023 27.3595 10.3325C27.3637 10.3626 27.3788 10.3902 27.402 10.4098C28.7056 11.3556 29.7276 12.6379 30.3587 14.1196C31.0049 15.6369 31.3449 17.2669 31.3593 18.9161C31.2103 22.1431 30.7577 25.3489 30.0076 28.491C29.4672 31.6681 29.8014 34.9322 30.9742 37.9339C31.5552 39.432 32.1205 40.9668 32.5699 42.5102C32.9367 44.0567 33.101 45.6443 33.0587 47.2332C33.1038 48.9992 33.071 50.7531 32.9773 52.5172C32.8836 54.2812 32.5979 56.026 32.4738 57.7872C32.4698 57.8847 32.5007 57.9804 32.561 58.0572C32.6212 58.1339 32.7069 58.1867 32.8025 58.206C32.8982 58.2253 32.9976 58.2098 33.0829 58.1624C33.1681 58.115 33.2337 58.0388 33.2679 57.9473Z" fill="black"/>
<path id="Vector_3" d="M53.2861 27.8264C53.4752 27.3871 53.6296 26.9337 53.748 26.4703C54.024 25.5559 54.3179 24.6442 54.5594 23.7198C54.783 22.8643 54.9818 22.0025 55.2044 21.1466C55.3987 20.5627 55.4077 19.9329 55.2301 19.3437C55.0013 18.739 54.6251 18.2009 54.1357 17.7784C53.6462 17.3559 53.0589 17.0624 52.4272 16.9244C51.1364 16.4239 49.7075 16.4107 48.4077 16.8875L48.3213 16.7495C47.7765 15.5303 47.0266 14.4135 46.1043 13.4477C45.6699 13.0493 45.1487 12.7577 44.5819 12.5961C44.0151 12.4344 43.4185 12.4071 42.8393 12.5164C42.8029 12.5251 42.7712 12.5474 42.7509 12.5788C42.7306 12.6102 42.7231 12.6483 42.7301 12.685C42.7371 12.7218 42.758 12.7544 42.7885 12.7762C42.8189 12.7979 42.8566 12.807 42.8936 12.8017C45.3438 12.6476 46.8771 15.3843 47.8303 17.2574C48.3018 18.184 48.923 19.038 49.3471 19.9861C49.5045 20.2595 49.5955 20.566 49.6126 20.881C49.6297 21.196 49.5725 21.5107 49.4456 21.7995C49.1838 22.3122 48.8668 22.7948 48.5002 23.2386C48.3043 23.5087 48.7196 23.7806 48.9243 23.5267C49.7602 22.6134 50.2215 21.4188 50.2166 20.1807C50.017 19.1894 49.5467 18.2727 48.8577 17.5325C49.9731 17.3127 51.1185 17.2919 52.2411 17.4709C52.8774 17.6526 53.4633 17.9786 53.9532 18.4235C54.2617 18.6426 54.4989 18.9477 54.6351 19.3007C54.7712 19.6538 54.8004 20.0392 54.7188 20.4087C54.3365 21.8026 53.8706 23.1723 53.3236 24.5102C53.0912 25.2381 52.8631 25.9676 52.6396 26.6987C52.5036 27.3814 52.4098 28.0719 52.3585 28.7661C52.3231 28.9599 52.6068 28.9871 52.6761 28.8298C52.8379 28.463 53.112 28.1868 53.2861 27.8264Z" fill="black"/>
<path id="Vector_4" d="M52.3226 29.5725C52.3231 29.5589 52.3197 29.5454 52.3127 29.5336C52.3058 29.5218 52.2956 29.5123 52.2834 29.5062C52.2712 29.5 52.2575 29.4975 52.244 29.4989C52.2304 29.5003 52.2175 29.5056 52.2068 29.5141C51.496 30.1469 50.8636 30.8627 50.3231 31.646C49.6678 32.4105 49.0064 33.1654 48.3429 33.9226C48.2859 33.9875 48.3788 34.0798 48.4484 34.0458C49.3759 33.5939 50.2054 32.9641 50.8898 32.1921C51.616 31.4799 52.1146 30.5682 52.3226 29.5725Z" fill="black"/>
<path id="Vector_5" d="M55.5131 33.0504C56.4071 31.5578 56.9777 29.8941 57.1882 28.167C57.2116 27.843 57.168 27.5177 57.0602 27.2112C56.9525 26.9048 56.7827 26.6238 56.5617 26.3858C56.3406 26.1478 56.0729 25.9578 55.7752 25.8278C55.4776 25.6977 55.1563 25.6303 54.8315 25.6297C54.7817 25.6284 54.7334 25.6464 54.6966 25.68C54.6598 25.7135 54.6374 25.7599 54.634 25.8096C54.6307 25.8592 54.6466 25.9083 54.6785 25.9465C54.7105 25.9846 54.7559 26.009 54.8054 26.0145C56.5481 26.3143 56.8964 28.6525 56.2313 29.9886C55.5501 31.357 54.6414 32.6091 54.0308 34.0145C53.7026 34.8762 53.1837 35.6526 52.5129 36.2854C51.9323 36.7758 51.3486 37.2713 50.7653 37.762C49.5598 38.776 48.2805 39.7204 47.0999 40.7598C47.0653 40.791 47.0429 40.8335 47.0368 40.8797C47.0307 40.9259 47.0413 40.9727 47.0666 41.0118C47.092 41.0509 47.1304 41.0797 47.175 41.093C47.2197 41.1064 47.2676 41.1034 47.3103 41.0846C49.0537 40.2527 50.6534 39.1485 52.0495 37.8134C52.6671 37.0987 53.2357 36.3431 53.7517 35.5518C54.4071 34.7683 54.9963 33.9316 55.5131 33.0504Z" fill="black"/>
<path id="Vector_6" d="M56.8877 37.6772C56.6067 37.1066 55.9254 35.3776 55.0327 35.7471L55.0491 35.8334C55.3094 35.8463 55.5989 36.4304 55.6896 36.6463L55.7971 36.9524C55.9296 37.3032 56.0882 37.6443 56.2234 37.994C56.3263 38.1976 56.3828 38.4215 56.3886 38.6495C56.3945 38.8775 56.3495 39.104 56.2571 39.3125C56.0709 39.7002 55.6954 39.9353 55.4742 40.3025C55.4508 40.3393 55.4399 40.3827 55.4431 40.4262C55.4462 40.4697 55.4633 40.5111 55.4917 40.5442C55.5201 40.5773 55.5584 40.6004 55.601 40.6101C55.6435 40.6198 55.688 40.6156 55.728 40.5981C56.0075 40.4973 56.2624 40.3383 56.4758 40.1315C56.6893 39.9248 56.8563 39.6751 56.966 39.3989C57.0756 39.1228 57.1253 38.8265 57.1118 38.5297C57.0983 38.2328 57.0219 37.9423 56.8877 37.6772Z" fill="black"/>
<path id="Vector_7" d="M55.1025 40.9304C54.2598 41.3583 53.4435 41.836 52.6577 42.3611C51.7823 42.8237 50.8594 43.2 49.9757 43.6499C49.1226 44.0842 48.3459 44.6389 47.478 45.0442C46.6194 45.366 45.7905 45.7621 45.0007 46.2278C44.9059 46.2943 44.9965 46.4172 45.0879 46.4097C46.047 46.2517 46.9767 45.9492 47.8451 45.5125C48.786 45.1837 49.7064 44.7984 50.601 44.3589C51.4071 43.8779 52.1819 43.3462 52.9208 42.7671C53.7429 42.2804 54.5 41.6913 55.1738 41.014L55.1025 40.9304Z" fill="black"/>
<path id="Vector_8" d="M40.777 16.3726L40.7566 16.3409L40.7204 16.33L40.6858 16.3451L40.6693 16.379C40.6063 16.8701 40.7347 17.3666 41.0278 17.7656C39.4505 17.4354 37.8311 17.3547 36.2287 17.5266C37.2026 16.8573 38.1374 16.1329 39.0286 15.357C39.5732 14.9602 40.1344 14.5856 40.6998 14.2193C41.2297 13.9601 41.7011 13.5954 42.0852 13.1477C42.1112 13.107 42.1249 13.0596 42.1246 13.0113C42.1243 12.963 42.11 12.9158 42.0835 12.8755C42.0569 12.8351 42.0193 12.8033 41.9751 12.7838C41.9309 12.7644 41.882 12.7581 41.8343 12.7659C41.2544 12.9372 40.7245 13.2461 40.2896 13.6662C39.7818 14.0559 39.2888 14.463 38.8013 14.8774C37.7586 15.6203 36.8372 16.5201 36.0698 17.5448C34.8901 17.6837 33.7374 17.9959 32.6489 18.4714L32.6672 18.5271C34.3602 18.391 36.0286 18.1919 37.7324 18.2069C39.3661 18.2261 40.9969 18.3524 42.6141 18.5848C42.8348 18.6153 40.9672 16.9898 40.777 16.3726Z" fill="black"/>
<path id="Vector_9" d="M42.7612 27.5563C42.7709 27.2265 42.7373 26.8967 42.661 26.5757C42.6146 26.1436 42.6046 25.7084 42.6312 25.2746C42.7096 24.375 42.9162 23.4911 43.2447 22.65C43.5331 21.8719 43.7358 21.0648 43.8491 20.2428C43.9057 19.3869 43.8334 18.5275 43.6346 17.6931C43.632 17.6809 43.6251 17.67 43.6151 17.6624C43.6051 17.6548 43.5928 17.651 43.5803 17.6518C43.5677 17.6525 43.5559 17.6577 43.5469 17.6664C43.5379 17.6752 43.5324 17.6868 43.5312 17.6993C43.4868 18.2017 43.4136 18.7012 43.3121 19.1952C43.2455 19.7525 43.1834 20.3068 43.0658 20.8571C42.842 21.801 42.5617 22.7306 42.2263 23.6408C41.9088 24.3814 41.7438 25.1783 41.7412 25.9841C41.7772 26.5854 41.9725 27.4175 42.5721 27.6825C42.5929 27.6892 42.615 27.6912 42.6366 27.6882C42.6583 27.6852 42.679 27.6774 42.6972 27.6652C42.7154 27.6531 42.7306 27.637 42.7417 27.6181C42.7528 27.5993 42.7594 27.5781 42.7612 27.5563Z" fill="black"/>
<path id="Vector_10" d="M41.9837 19.6624C41.3112 19.593 40.6325 19.614 39.9655 19.7248C39.1349 19.8145 38.305 19.8657 37.47 19.8933C36.731 19.918 35.9852 19.9549 35.2458 19.9314C34.4676 19.9064 33.6983 19.7683 32.9213 19.7241C32.9094 19.7236 32.8977 19.7274 32.8883 19.7347C32.8789 19.7421 32.8725 19.7526 32.8701 19.7643C32.8678 19.7759 32.8697 19.7881 32.8755 19.7985C32.8813 19.809 32.8906 19.817 32.9018 19.8211C34.4081 20.2837 35.9738 20.5241 37.5496 20.5347C39.0739 20.7039 40.6159 20.4654 42.0179 19.8436C42.0363 19.8341 42.0512 19.8189 42.0603 19.8002C42.0694 19.7816 42.0722 19.7606 42.0683 19.7402C42.0645 19.7198 42.0542 19.7013 42.0389 19.6872C42.0237 19.6732 42.0043 19.6645 41.9837 19.6624Z" fill="black"/>
<path id="Vector_11" d="M41.6374 33.0919C40.7955 33.186 39.9661 33.4458 39.1157 33.5457C38.2255 33.6586 37.3273 33.6974 36.4306 33.6615C35.613 33.6203 34.7992 33.523 33.9949 33.37C32.9928 33.2207 32.0157 32.9357 31.0904 32.523C31.0344 32.4942 30.9774 32.5742 31.0343 32.6056C31.8652 33.1304 32.7418 33.5789 33.6535 33.9457C34.5321 34.2476 35.447 34.4313 36.3741 34.4919C38.2489 34.7123 40.1457 34.3389 41.7971 33.4244C41.9683 33.3067 41.806 33.0731 41.6374 33.0919Z" fill="black"/>
<path id="Vector_12" d="M43.5377 35.9999C43.1136 35.1231 42.9144 34.1546 42.9582 33.1816C43.1451 32.1228 43.4549 31.0894 43.8813 30.1024C43.8863 30.0859 43.8853 30.0681 43.8785 30.0523C43.8717 30.0365 43.8595 30.0235 43.8441 30.0158C43.8286 30.0081 43.811 30.0062 43.7942 30.0103C43.7775 30.0144 43.7627 30.0243 43.7526 30.0382C42.4805 31.4694 41.2065 34.8624 43.2785 36.2224C43.3108 36.2431 43.3489 36.2527 43.3871 36.25C43.4253 36.2473 43.4617 36.2324 43.4907 36.2074C43.5198 36.1825 43.5401 36.1488 43.5486 36.1114C43.557 36.074 43.5532 36.0349 43.5377 35.9999Z" fill="black"/>
<path id="Vector_13" d="M43.4477 42.2246C42.9341 41.4975 42.6776 40.6199 42.7189 39.7306C42.7601 38.8414 43.0968 37.9913 43.6755 37.3149L43.6067 37.2352C43.148 37.4915 42.7593 37.8566 42.4749 38.2983C42.1905 38.7401 42.0191 39.2451 41.9758 39.7687C41.9324 40.2923 42.0185 40.8185 42.2263 41.3011C42.4342 41.7836 42.7575 42.2076 43.1678 42.5358C43.3603 42.7003 43.5772 42.4043 43.4477 42.2246Z" fill="black"/>
<path id="Vector_14" d="M44.2147 45.8493C43.9958 45.4839 43.5896 45.2779 43.3741 44.8957C43.1888 44.4799 43.0584 44.0418 42.9862 43.5924L42.9234 43.5703C42.7537 43.7838 42.6532 44.044 42.6352 44.3162C42.6173 44.5883 42.6827 44.8595 42.8228 45.0935C43.0356 45.5458 43.5422 46.1876 44.1141 46.0481C44.1351 46.0438 44.1548 46.0348 44.1719 46.0218C44.1889 46.0088 44.2028 45.9921 44.2124 45.973C44.2221 45.9539 44.2274 45.9328 44.2277 45.9114C44.2281 45.89 44.2237 45.8687 44.2147 45.8493Z" fill="black"/>
<path id="Vector_15" d="M43.1992 49.4511C43.2156 49.4366 43.2262 49.4167 43.2291 49.395C43.232 49.3734 43.227 49.3514 43.2151 49.3331C43.2031 49.3148 43.185 49.3014 43.164 49.2953C43.143 49.2893 43.1205 49.2909 43.1007 49.3001C42.4577 49.5929 41.7828 49.8098 41.0896 49.9465C40.3541 50.0306 39.6145 50.0738 38.8742 50.0759C37.4636 49.9552 36.0467 49.923 34.632 49.9795L34.6108 50.0821C35.4349 50.4763 36.3213 50.724 37.2304 50.8138C37.279 51.2033 37.3868 51.583 37.55 51.9398C37.7074 52.4189 37.8297 52.9088 37.916 53.4056C38.1225 54.5013 38.1801 55.62 38.0873 56.7311C38.0805 56.8062 38.1777 56.8127 38.2064 56.755C38.7399 55.697 38.9731 54.5129 38.8805 53.3315C38.832 52.4735 38.5903 51.6375 38.1735 50.886C38.5554 50.9003 38.9308 50.8983 39.2914 50.8814C40.7118 50.8265 42.0789 50.326 43.1992 49.4511Z" fill="black"/>
<path id="Vector_16" d="M44.1385 46.7855L44.0555 46.8252C44.103 47.1953 44.116 47.5689 44.0946 47.9414C44.0425 48.3078 43.9571 48.6687 43.8396 49.0196C43.8338 49.0384 43.8341 49.0585 43.8406 49.077C43.847 49.0955 43.8592 49.1115 43.8755 49.1225C43.8917 49.1335 43.911 49.1391 43.9306 49.1383C43.9502 49.1375 43.969 49.1305 43.9843 49.1182C44.3118 48.8279 44.5117 48.4202 44.5406 47.9835C44.5694 47.5468 44.425 47.1163 44.1385 46.7855Z" fill="black"/>
<path id="Vector_17" d="M51.4594 44.554L51.4091 44.509C50.7758 45.1101 50.0832 45.6727 49.4901 46.3126C48.8456 47.0079 48.4351 47.8678 47.8054 48.5675C47.2304 49.1421 46.7359 49.7919 46.3353 50.4992C45.8258 51.286 45.3579 52.099 44.9336 52.9348C44.9247 52.9634 44.9252 52.9941 44.935 53.0223C44.9449 53.0506 44.9636 53.0749 44.9883 53.0917C45.013 53.1085 45.0425 53.117 45.0724 53.1157C45.1023 53.1145 45.131 53.1037 45.1543 53.0849C45.7661 52.4813 46.135 51.6781 46.7316 51.0571C47.3155 50.4036 47.8255 49.6877 48.2522 48.9222C48.7022 48.1955 49.3902 47.6235 49.8989 46.9352C50.4613 46.1748 50.9152 45.3306 51.4594 44.554Z" fill="black"/>
<path id="Vector_18" d="M43.2461 57.146C43.8216 55.997 44.3206 54.8112 44.7397 53.5964L44.6595 53.5563C43.2957 55.7268 41.7854 57.8018 40.1392 59.7667C39.3118 60.7712 38.4268 61.7269 37.4888 62.629C36.5242 63.4177 35.6474 64.3081 34.8737 65.2848C34.8443 65.3312 34.8307 65.3858 34.8347 65.4406C34.8387 65.4953 34.8601 65.5473 34.8959 65.589C34.9316 65.6306 34.9798 65.6597 35.0333 65.672C35.0868 65.6842 35.1429 65.679 35.1932 65.657C36.3816 65.1301 37.4453 64.3581 38.3147 63.3916C39.2568 62.4798 40.1423 61.5113 40.966 60.4913C41.8371 59.4561 42.6011 58.3353 43.2461 57.146Z" fill="black"/>
<path id="Vector_19" d="M45.4382 23.0021C46.0408 22.2834 47.0209 22.618 47.6383 23.492C48.2558 24.366 46.8083 27.6774 44.4246 29.5816C44.2544 29.6073 44.0807 29.5942 43.9163 29.5435C43.7519 29.4928 43.6011 29.4058 43.4749 29.2888C43.3488 29.1718 43.2506 29.0279 43.1877 28.8678C43.1248 28.7076 43.0988 28.5354 43.1116 28.3638C43.118 27.3594 43.3274 26.3667 43.7272 25.4453C44.1271 24.5239 44.7091 23.6929 45.4382 23.0021Z" fill="black"/>
<path id="Vector_20" d="M46.573 30.4229C47.3957 29.8654 48.2973 30.4908 48.6729 31.5609C49.0484 32.631 46.6119 35.5855 43.6296 36.8342C43.4487 36.8111 43.2753 36.7474 43.1224 36.6481C42.9694 36.5487 42.8409 36.4162 42.7462 36.2603C42.6515 36.1044 42.5932 35.9292 42.5755 35.7477C42.5579 35.5662 42.5813 35.383 42.6442 35.2118C42.829 34.3621 43.4003 32.5723 46.573 30.4229Z" fill="black"/>
<path id="Vector_21" d="M46.6448 36.7192C47.4314 36.1862 48.2934 36.7842 48.6525 37.8073C49.0115 38.8303 46.6817 41.6551 43.8306 42.8489C43.6576 42.8267 43.4919 42.7658 43.3457 42.6707C43.1995 42.5757 43.0766 42.4489 42.9862 42.2998C42.8957 42.1507 42.84 41.9832 42.8233 41.8096C42.8065 41.6361 42.829 41.4609 42.8892 41.2973C43.0652 40.4852 43.6115 38.7743 46.6448 36.7192Z" fill="black"/>
<path id="Vector_22" d="M47.3712 41.7357C47.549 41.764 47.7169 41.8361 47.8598 41.9456C48.0027 42.0551 48.1161 42.1984 48.1897 42.3627C48.2634 42.527 48.2949 42.707 48.2815 42.8865C48.2682 43.066 48.2103 43.2394 48.1132 43.3909C47.2891 44.3784 46.1328 45.031 44.8615 45.2262C44.1076 45.2671 42.4885 44.6563 43.8122 43.4634C44.8097 42.5602 46.0445 41.9607 47.3712 41.7357Z" fill="black"/>
<path id="Vector_23" d="M25.7316 9.72244C26.1369 9.46058 27.5254 10.3591 27.7405 12.6631C28.0151 14.1472 28.0361 15.667 27.8029 17.1581C27.6029 17.4273 27.3384 17.6419 27.0336 17.782C26.7289 17.9221 26.3938 17.9833 26.0593 17.9598C25.5278 17.8592 25.0058 17.1411 25.0021 14.0217C24.9984 10.9023 25.0599 10.1565 25.7316 9.72244Z" fill="black"/>
</g>
<path id="Vector_24" d="M32.4879 35.6958C32.5371 34.5279 34.6002 35.8962 37.3161 35.6958C40.032 35.4954 41.4874 34.9156 41.7729 35.9421C42.0584 36.9686 40.6788 38.3953 41.1961 40.3579C41.384 41.2124 41.6539 42.0468 42.002 42.8495C42.002 42.8495 41.4884 44.729 42.2045 45.6656C42.9206 46.6022 43.8396 49.0203 39.7852 48.5649C35.8084 48.1182 34.9221 50.8296 34.33 44.5003C33.7379 38.171 32.4016 37.7253 32.4879 35.6958Z" fill="black"/>
</g>
</g>
</g>
</svg>
