<svg width="70" height="72" viewBox="0 0 70 72" fill="none" xmlns="http://www.w3.org/2000/svg">
<g id="Group 291">
<ellipse id="Ellipse 61" opacity="0.04" cx="35" cy="36" rx="35" ry="36" fill="#8951FF"/>
<g id="Layer 2">
<g id="Group">
<path id="Vector" d="M31.0177 9.92756C31.025 9.85731 30.9241 9.85485 30.9024 9.91201C30.4201 11.1862 30.389 12.5434 30.0197 13.8542C29.6537 15.1329 29.2221 16.3919 28.7266 17.6261C28.2134 18.9168 27.6529 20.1769 27.0343 21.4182C26.7567 21.9952 26.5879 22.6185 26.5364 23.2568C26.0887 22.7552 25.5759 22.316 25.0115 21.9508C24.3085 21.6225 23.6482 21.2096 23.0453 20.7212C22.5251 20.1071 22.0906 19.4253 21.7537 18.6943C20.9786 17.1694 20.4453 15.5249 19.7143 13.9746C19.6807 13.9052 19.5649 13.9544 19.5886 14.028C20.0959 15.5935 20.3116 17.2318 20.8838 18.7833C21.1024 19.5016 21.4634 20.1685 21.9455 20.7441C22.4534 21.1606 23.0285 21.4875 23.6461 21.7111C25.0244 22.5779 26.1667 23.7724 26.971 25.1881C28.0585 26.5711 28.9809 28.0763 29.7195 29.6731L29.7761 29.6575C29.6344 28.8841 29.3617 28.1405 28.9699 27.4588C28.4676 26.7612 28.0293 26.0197 27.6604 25.2433C27.4681 24.6793 27.1993 24.1444 26.8613 23.6537C26.8003 23.2162 26.8636 22.7704 27.044 22.3672C27.3315 21.8183 27.7024 21.2555 28.0445 20.7344C28.8199 19.7047 29.4726 18.5881 29.9893 17.4072C30.4382 16.2061 30.7538 14.9593 30.9305 13.6893C31.1058 12.4267 30.8864 11.1754 31.0177 9.92756Z" fill="black"/>
<path id="Vector_2" d="M17.685 31.6523C17.5697 30.5659 17.3901 29.4911 17.2269 28.4114C17.1587 27.3857 16.9969 26.3682 16.7435 25.3719C16.3469 24.5583 15.8777 23.7822 15.3417 23.0529C14.8775 22.1535 14.5019 21.2109 14.2202 20.2387C13.8639 19.1397 13.4474 18.063 13.0582 16.9754C12.5738 16.0121 12.2342 14.9825 12.0505 13.9199H12.0065C11.966 14.8503 12.1154 15.7792 12.4457 16.65C12.7458 17.7116 12.9994 18.7871 13.3005 19.8493C13.5369 20.7247 13.8573 21.5751 14.2572 22.3889C14.8164 23.263 15.3028 24.1815 15.7115 25.1352C16.3629 27.2098 16.8185 29.341 17.0721 31.5007C17.291 32.694 17.3174 33.9147 17.1503 35.1164C16.8825 35.9938 16.8595 36.9277 17.0837 37.8173C17.1023 37.8778 17.1398 37.9308 17.1907 37.9685C17.2417 38.0061 17.3034 38.0264 17.3667 38.0264C17.43 38.0264 17.4917 38.0061 17.5426 37.9685C17.5936 37.9308 17.6311 37.8778 17.6497 37.8173C17.7731 37.2723 17.4929 36.9742 17.441 36.4379C17.4547 35.861 17.5411 35.2882 17.698 34.7328C17.8349 33.7103 17.8305 32.6737 17.685 31.6523Z" fill="black"/>
<path id="Vector_3" d="M34.9762 40.7495C34.2579 39.5888 32.6269 39.3658 31.4231 39.0131C29.9279 38.5754 27.6569 38.4436 26.7914 36.9951C26.4216 36.3762 26.0975 35.7402 25.7605 35.1029C25.5059 34.6214 25.2092 34.1431 24.9901 33.6379C25.0356 33.3616 25.1216 33.0936 25.2453 32.8425C25.3187 32.6842 25.3877 32.5287 25.4456 32.3634C25.4953 32.1244 25.5718 31.8918 25.6736 31.6699C25.7128 31.6104 25.6267 31.5492 25.5781 31.5958C25.2426 31.9271 24.9572 32.3054 24.7309 32.719L24.7182 32.7402C24.6613 31.9702 24.6898 31.1963 24.8032 30.4326C24.8161 30.1497 24.7939 29.8662 24.7373 29.5887L24.789 29.6477C25.5296 30.4847 26.2223 31.9239 27.3033 32.3495C27.3842 32.3814 27.4461 32.2621 27.3865 32.2065C26.9052 31.734 26.4631 31.2231 26.0647 30.6788C25.69 30.2996 25.3482 29.8893 25.0428 29.4523C24.8426 29.0739 24.8518 28.6361 24.6837 28.2487C24.3926 27.5803 23.4794 26.2504 22.5996 26.5115L22.585 26.6232C23.1017 26.9112 23.2827 27.5349 23.5645 28.019C23.6959 28.2446 23.829 28.4478 23.9677 28.6413C23.9333 29.1021 23.9424 29.5653 23.995 30.0244C23.8557 30.8911 23.8191 31.7712 23.8859 32.6465C23.9872 33.0484 24.137 33.4366 24.3318 33.8025C24.3445 33.8906 24.3771 33.9746 24.4273 34.048L24.5004 34.1188L24.8695 34.7666C25.2924 35.4991 25.6316 36.2888 26.0883 36.9998C26.9486 38.2583 28.2653 39.1321 29.7592 39.436C30.6255 39.6511 31.5182 39.5929 32.3789 39.8036C33.2371 40.1022 34.0745 40.4576 34.8854 40.8676C34.9519 40.8939 35.011 40.8058 34.9762 40.7495Z" fill="black"/>
<path id="Vector_4" d="M33.5831 44.8946C32.9659 44.2912 32.1611 43.9168 31.3021 43.8333C30.7514 43.7176 30.1835 43.6788 29.6388 43.5403C29.053 43.3623 28.4882 43.1213 27.9543 42.8215C27.5474 42.6179 27.1369 42.4186 26.7184 42.2402C26.3552 42.1233 26.0185 41.9366 25.7269 41.6906C25.5059 41.4493 25.3064 41.1891 25.1307 40.913C25.3315 41.0273 25.5399 41.1276 25.7545 41.2131C26.9102 41.634 28.1072 41.9315 29.3255 42.1007C30.5046 42.3516 31.7164 42.4112 32.9144 42.2771L32.9663 42.2407L32.9862 42.1805L32.9663 42.1203L32.9144 42.0838C32.3326 42.0004 31.762 42.1223 31.182 42.065C30.6012 41.9399 30.0286 41.7793 29.4674 41.5843C28.3009 41.4189 27.1494 41.1609 26.0239 40.8127C24.9798 40.263 24.0842 39.469 23.4135 38.4984C22.6983 37.7372 21.895 37.0639 21.0207 36.4925L20.9639 36.5494C21.6174 37.5005 22.4832 38.3141 23.2146 39.2118C23.3184 39.339 24.1124 40.5475 24.3543 40.8463C24.662 41.2262 24.8623 41.6978 25.2071 42.0467C25.5747 42.3562 26.005 42.5823 26.4683 42.7095C27.5408 43.3271 28.6804 43.8199 29.8649 44.1784C30.442 44.267 31.0107 44.3617 31.5824 44.4808C32.253 44.5536 32.9121 44.7094 33.5443 44.9446L33.5831 44.8946Z" fill="black"/>
<path id="Vector_5" d="M31.6565 46.6667C31.0383 46.4782 30.39 46.4087 29.746 46.4621C28.9545 46.3757 28.1838 46.1533 27.468 45.8047C26.7913 45.5261 26.0955 45.2967 25.3858 45.118C24.8375 45.0003 24.2771 45.0457 23.7274 44.9584C22.8736 44.8227 22.654 44.1536 22.1894 43.5247C21.8004 42.998 21.3064 42.5584 20.9016 42.0448C20.2206 41.1813 19.9032 39.7459 18.823 39.2738L18.7661 39.3307C19.082 39.9078 19.4655 40.4365 19.7658 41.0264C20.0868 41.69 20.465 42.3245 20.8961 42.9224C21.3108 43.4753 21.6713 44.0464 22.0628 44.6125C22.3861 45.0455 22.8452 45.3577 23.3667 45.4992C23.7302 45.6264 24.1067 45.7125 24.4894 45.7559C25.0504 46.2491 25.4952 46.9613 26.0565 47.4055C26.4996 47.7559 26.9664 48.0812 27.4173 48.4221C27.876 48.6643 28.3148 48.9426 28.7295 49.2542L28.8035 49.2118C28.7757 49.0175 28.6999 48.8331 28.583 48.6754C28.4661 48.5177 28.3118 48.3915 28.134 48.3083C27.5005 47.9123 26.9056 47.4576 26.3571 46.9504C26.0144 46.6259 25.7116 46.246 25.3539 45.9355C25.995 46.1159 26.6209 46.383 27.2531 46.5861C28.6673 47.0854 30.1937 47.1754 31.6568 46.8459C31.7543 46.8238 31.7344 46.6974 31.6565 46.6667Z" fill="black"/>
<path id="Vector_6" d="M25.6277 49.8445C25.2763 49.5699 24.8801 49.3581 24.4566 49.2185C23.8679 48.929 23.3565 48.5035 22.9647 47.9772C22.2037 47.2345 21.3507 46.5922 20.4266 46.066C19.1794 45.2748 19.1193 43.9098 18.7993 42.5914C18.6368 41.9213 18.4364 41.2609 18.1991 40.6135C17.9586 40.1204 17.7593 39.6083 17.6031 39.0823L17.5791 39.0856C17.6504 39.629 17.7885 40.1615 17.9904 40.6711C18.2065 41.5041 18.3462 42.3551 18.4078 43.2134C18.4097 43.7857 18.5299 44.3513 18.7607 44.8749C18.9915 45.3985 19.328 45.8688 19.7491 46.2563C19.8998 46.3896 20.0593 46.5127 20.2265 46.6246C20.3988 47.9791 21.7373 50.0449 20.5831 51.0487L20.6067 51.0794C21.2019 50.7607 21.2284 49.8411 21.2246 49.2469C21.2465 48.5247 21.1629 47.8033 20.9765 47.1053L21.1343 47.2098C21.6918 47.6299 22.2252 48.0813 22.7318 48.5617C23.1565 48.9065 23.6127 49.2106 24.0943 49.47C24.5058 49.8052 25.0042 50.016 25.5312 50.0779C25.5579 50.077 25.5838 50.0685 25.6057 50.0534C25.6277 50.0382 25.6447 50.017 25.6549 49.9924C25.6651 49.9677 25.668 49.9406 25.6631 49.9144C25.6583 49.8882 25.646 49.8639 25.6277 49.8445Z" fill="black"/>
<path id="Vector_7" d="M18.233 44.7825L18.2159 44.741L18.1744 44.7238L18.1329 44.741L18.1157 44.7825C18.1663 46.2349 18.4698 47.6674 19.0126 49.0155C19.0303 49.0665 19.1202 49.0803 19.1305 49.0155C19.3678 47.5214 18.3338 46.2392 18.233 44.7825Z" fill="black"/>
<path id="Vector_8" d="M44.8926 10.4037C44.0684 11.3414 43.0669 12.1339 42.3281 13.1485C42.0995 13.4051 41.9377 13.7142 41.8571 14.0482C41.7765 14.3823 41.7795 14.7311 41.866 15.0637L41.9467 15.0292C41.7997 14.2987 42.7886 13.4503 43.2231 12.9233C43.8521 12.1358 44.4229 11.3035 44.9309 10.4329L44.8926 10.4037Z" fill="black"/>
<path id="Vector_9" d="M49.6497 11.4469C49.1782 11.8188 48.7413 12.2325 48.3443 12.6829C47.8364 13.1508 47.1941 13.4354 46.6937 13.9006C46.2509 14.3119 46.0195 14.8927 45.6112 15.3344C45.319 15.708 44.938 16.0026 44.5029 16.1915C44.0678 16.3803 43.5924 16.4573 43.12 16.4156L43.1108 16.4486C43.7513 16.5876 44.419 16.5255 45.0228 16.2709C45.6266 16.0163 46.1372 15.5816 46.4847 15.026C47.0389 14.1961 47.8444 13.5658 48.7832 13.2276C49.4275 12.9684 50.1701 12.7365 50.3464 11.9826C50.3688 11.8921 50.3643 11.7971 50.3335 11.7091C50.3027 11.6211 50.2469 11.544 50.173 11.4872C50.0991 11.4304 50.0103 11.3963 49.9173 11.3892C49.8244 11.382 49.7314 11.4021 49.6497 11.4469Z" fill="black"/>
<path id="Vector_10" d="M44.0836 17.1308C43.1361 17.8541 42.0935 18.4435 40.9852 18.8823C39.7867 19.471 38.4838 19.8558 37.2523 20.3774C36.15 20.8444 35.0388 21.3124 33.9597 21.8307C33.2289 22.1818 32.119 22.6681 31.8234 23.4859C31.7825 23.6005 31.9189 23.6718 32.0101 23.6295C32.523 23.3905 32.928 22.9412 33.4237 22.6545C33.8578 22.413 34.304 22.194 34.7605 21.9982C36.0005 21.442 37.234 20.8648 38.4981 20.3632C39.6196 20.0578 40.7116 19.6531 41.7614 19.154C42.6504 18.6241 43.4478 17.9537 44.1226 17.1689L44.0836 17.1308Z" fill="black"/>
<path id="Vector_11" d="M47.5114 20.2884C46.4333 20.3772 45.3934 20.7284 44.4822 21.3114C43.4002 21.9413 42.2836 22.5097 41.1378 23.0139C38.68 23.8254 36.1771 24.4933 33.6418 25.0142L33.6502 25.0767C34.9582 24.9736 36.2572 24.7403 37.5553 24.5541C38.7929 24.4103 40.0144 24.1517 41.2042 23.7818C42.2205 23.2874 43.2026 22.7254 44.1436 22.0995C44.5524 21.905 44.9729 21.7364 45.4028 21.5948C45.1315 21.7827 44.8583 21.968 44.5718 22.1328C43.8029 22.5367 43.0867 23.034 42.4395 23.6132C41.7521 24.3019 40.9737 24.8933 40.1259 25.3708C39.2452 25.8482 38.3166 26.2323 37.3977 26.6311C35.9723 27.2498 34.6141 27.9509 33.2509 28.694C32.8106 28.9339 31.2755 29.5731 31.5559 30.3021H31.6172C31.8977 29.3501 33.4996 28.9433 34.2996 28.6106C35.8885 28.1084 37.4354 27.482 38.926 26.7372C40.3681 25.8447 41.6226 24.6885 43.01 23.719C43.7138 23.2273 44.4913 22.8804 45.2206 22.4327C45.7681 22.0557 46.2663 21.6119 46.7037 21.1113C47.0181 20.9787 47.3191 20.8164 47.6027 20.6265C47.6363 20.606 47.6624 20.575 47.677 20.5384C47.6915 20.5018 47.6939 20.4614 47.6836 20.4233C47.6733 20.3852 47.651 20.3515 47.62 20.3272C47.5889 20.3029 47.5508 20.2893 47.5114 20.2884Z" fill="black"/>
<path id="Vector_12" d="M47.1672 24.6984C46.2348 25.0849 45.383 25.6427 44.656 26.3428C43.7212 27.1524 42.6833 27.8345 41.5693 28.3715C40.58 28.8227 39.6216 29.3216 38.6322 29.7725C37.4069 30.3318 36.1223 30.6761 34.8559 31.1245L34.8676 31.1669C35.9818 30.9569 37.075 30.6477 38.134 30.2427C38.7587 29.914 39.4087 29.6358 40.0777 29.4106L40.3497 29.3438L39.9043 29.6302C39.1971 30.1077 38.4183 30.4214 37.6753 30.8355C36.3709 31.5086 35.2102 32.4297 34.2583 33.5471L34.2992 33.588C35.5114 32.5702 36.8214 31.675 38.21 30.9155C38.922 30.4213 39.6673 29.9769 40.4406 29.5855C40.8181 29.4372 41.1821 29.2563 41.5283 29.0449L41.5857 29.029C42.5206 28.7522 43.3618 28.2247 44.018 27.5037C44.9878 26.6121 46.1466 25.9511 47.4077 25.5701C47.9494 25.3758 47.7235 24.5114 47.1672 24.6984Z" fill="black"/>
<path id="Vector_13" d="M49.0355 26.4027C47.9963 26.6542 47.0574 27.2139 46.342 28.0085C45.8771 28.4986 45.5059 29.048 44.996 29.501C44.4802 29.9366 43.9289 30.3282 43.3478 30.6718C40.9412 32.1831 38.3951 33.4061 35.9272 34.805L35.9495 34.843C37.243 34.2741 38.5958 33.959 39.834 33.2621C41.0963 32.5512 42.3302 31.7991 43.5732 31.0569C44.6081 30.419 45.5599 29.6552 46.4068 28.783C46.8265 28.3527 47.2805 27.957 47.7641 27.5999C48.2319 27.2706 48.7686 27.0653 49.2049 26.6928C49.3497 26.5692 49.1884 26.3769 49.0355 26.4027Z" fill="black"/>
<path id="Vector_14" d="M49.9924 27.1453C49.4979 27.4216 48.9861 27.6655 48.4601 27.8756C48.0104 28.1145 47.603 28.4256 47.2542 28.7965C46.908 29.204 46.5043 29.5588 46.0557 29.8497C45.6074 30.0854 45.1782 30.3555 44.7719 30.6578C44.2782 31.0939 43.7314 31.4659 43.1445 31.765C42.6687 31.9447 42.2092 32.1648 41.771 32.4228C41.3773 32.7256 41.0037 33.0537 40.6524 33.4049C40.2446 33.7682 39.7948 34.061 39.3682 34.3966L39.3923 34.4551C40.2961 34.3838 41.0326 33.3685 41.7771 32.9354C42.7593 32.3641 43.7032 31.739 44.6736 31.1499C45.614 30.7264 46.4952 30.1824 47.2952 29.5315C48.1522 28.6987 49.0748 27.9362 50.0541 27.2513C50.1153 27.2045 50.0579 27.0995 49.9924 27.1453Z" fill="black"/>
<path id="Vector_15" d="M58.5584 10.6573C57.9572 11.2086 57.3252 11.7255 56.6657 12.2055C56.1042 12.6693 55.6532 13.2478 55.1027 13.7237C54.4981 14.1403 53.969 14.657 53.5382 15.2515C53.2924 15.8659 53.088 16.4961 52.9265 17.1379C52.3126 18.7168 51.6737 20.3126 51.1421 21.9206C50.9044 22.7256 50.7186 23.5449 50.5857 24.3736C50.3971 25.0506 50.3188 25.7535 50.3538 26.4553C50.3575 26.468 50.3644 26.4795 50.3738 26.4887C50.3833 26.498 50.3949 26.5046 50.4077 26.508C50.4205 26.5113 50.4339 26.5113 50.4467 26.508C50.4594 26.5046 50.4711 26.498 50.4805 26.4888C50.8428 26.0336 51.0538 25.4767 51.084 24.8958C51.1171 24.0181 51.2222 23.1446 51.3984 22.2841C51.875 20.6895 52.5406 19.1275 53.0855 17.5522C53.3179 16.836 53.7298 16.1912 54.2818 15.6791C54.8138 15.1573 55.395 14.6922 55.9299 14.1742C57.0211 13.1865 57.9645 12.047 58.7311 10.7906C58.7436 10.7675 58.7475 10.7407 58.7421 10.7151C58.7367 10.6894 58.7223 10.6665 58.7015 10.6505C58.6807 10.6344 58.6549 10.6263 58.6287 10.6276C58.6025 10.6288 58.5776 10.6394 58.5584 10.6573Z" fill="black"/>
<path id="Vector_16" d="M49.5466 8.09108C48.481 7.88939 47.3789 8.02455 46.3936 8.4778C45.9991 8.69523 45.3955 9.16243 45.4767 9.67532L45.5701 9.71338C46.1026 9.45493 46.6586 9.24801 47.2304 9.09545C48.0462 9.02435 48.8461 8.82727 49.6015 8.51122C49.7519 8.41805 49.7545 8.12041 49.5466 8.09108Z" fill="black"/>
<path id="Vector_17" d="M27.4537 63.0354C26.8691 63.2437 26.2266 63.2184 25.6601 62.9648C25.0936 62.7111 24.6468 62.2488 24.4127 61.6739C24.2994 60.9595 24.4083 60.2274 24.7246 59.5768C24.837 59.3012 24.9162 59.0132 24.9605 58.7188C24.991 58.3849 24.8684 58.0826 24.8773 57.7466H24.8383C24.6654 58.2998 24.4215 58.8283 24.1127 59.3187C23.9999 59.5843 23.8891 59.8514 23.8013 60.1257L23.7137 60.1563C23.2706 60.3348 22.7877 60.3913 22.3154 60.3198C21.843 60.2483 21.3985 60.0515 21.028 59.7499C20.4746 59.0851 20.1591 58.2546 20.1315 57.3901C19.9295 55.5759 20.7025 53.7824 20.1222 51.9871C20.118 51.9735 20.1096 51.9616 20.0981 51.9532C20.0866 51.9447 20.0728 51.9402 20.0585 51.9402C20.0443 51.9402 20.0304 51.9447 20.019 51.9532C20.0075 51.9616 19.9991 51.9735 19.9948 51.9871C19.8243 52.672 19.7125 53.3702 19.6605 54.0741C19.5692 54.7125 19.4137 55.3401 19.3458 55.9819C19.188 56.9288 19.2985 57.9009 19.665 58.7881C20.0826 59.4521 20.6827 59.9816 21.3935 60.3132C22.1044 60.6448 22.8957 60.7645 23.6728 60.6579C23.6077 61.0149 23.6165 61.3815 23.6986 61.7351C23.7807 62.0886 23.9344 62.4216 24.1502 62.7134C24.3291 62.9942 24.564 63.2352 24.8402 63.4212C25.1163 63.6072 25.4279 63.7343 25.7554 63.7944C26.0829 63.8546 26.4193 63.8466 26.7436 63.7709C27.0679 63.6952 27.3731 63.5534 27.6401 63.3545C27.6689 63.3243 27.6871 63.2856 27.692 63.2442C27.6969 63.2027 27.6881 63.1608 27.6671 63.1248C27.646 63.0887 27.6138 63.0605 27.5754 63.0444C27.5369 63.0283 27.4942 63.0251 27.4537 63.0354Z" fill="black"/>
<path id="Vector_18" d="M24.7578 53.4056H24.6887C23.9626 54.3168 24.4887 55.5935 24.7541 56.564C24.7613 56.5859 24.7752 56.605 24.7938 56.6185C24.8124 56.632 24.8349 56.6393 24.8579 56.6393C24.8809 56.6393 24.9033 56.632 24.922 56.6185C24.9406 56.605 24.9545 56.5859 24.9616 56.564C25.1756 56.058 25.2686 55.509 25.2332 54.9607C25.1978 54.4125 25.035 53.88 24.7578 53.4056Z" fill="black"/>
<path id="Vector_19" d="M28.4149 54.472L28.3882 54.4062L28.3255 54.3732L28.2562 54.3884L28.2131 54.4447C27.9959 54.9929 27.8291 55.5598 27.7148 56.1383C27.6652 56.7884 27.8054 57.4626 27.7838 58.1215C27.7364 58.7924 27.7237 59.4653 27.7459 60.1375C27.7948 60.8356 27.9754 61.4953 28.0667 62.1876L28.0861 62.2343L28.1328 62.2536L28.1795 62.2343L28.1988 62.1876C28.3389 60.8742 28.2903 59.5804 28.3625 58.2637C28.397 57.6321 28.4307 57.0416 28.5095 56.416C28.5411 55.7665 28.5094 55.1154 28.4149 54.472Z" fill="black"/>
<path id="Vector_20" d="M31.952 61.8287C31.9504 61.7846 31.9333 61.7426 31.9038 61.7099C31.8742 61.6772 31.834 61.6561 31.7903 61.6502C31.7466 61.6443 31.7023 61.654 31.6651 61.6776C31.6279 61.7012 31.6002 61.7373 31.587 61.7793C31.1254 62.9126 30.0484 63.8818 28.7528 63.2906C28.6816 63.2581 28.5994 63.3442 28.664 63.4058C28.9152 63.7001 29.2595 63.8995 29.6397 63.9709C30.02 64.0423 30.4132 63.9814 30.7539 63.7983C31.1263 63.6256 31.439 63.3462 31.6523 62.9956C31.8656 62.6449 31.9699 62.2387 31.952 61.8287Z" fill="black"/>
<path id="Vector_21" d="M32.1957 56.1825C32.102 55.6823 31.902 55.2311 31.8386 54.7223C31.8411 54.4566 31.7404 54.2004 31.5577 54.0075C31.5521 54.0019 30.8435 53.4912 30.7609 53.8745C30.6912 54.3905 30.6667 54.9115 30.6877 55.4317C30.6626 56.0682 30.5865 56.7021 30.6195 57.3402C30.6822 58.5406 31.4347 59.5021 31.5267 60.7073L31.5555 60.7112C31.6109 60.2639 31.5984 59.8107 31.5186 59.3671C31.4472 58.7432 31.4251 58.1147 31.4525 57.4874C31.4685 56.9217 31.4906 56.3562 31.5187 55.7909L31.6054 56.0739C31.7816 56.8273 31.8336 57.6044 31.7592 58.3746L31.8547 58.4005C32.2006 57.716 32.32 56.9393 32.1957 56.1825Z" fill="black"/>
<path id="Vector_22" d="M34.9225 52.3351C34.246 53.0315 34.3792 53.8376 34.4551 54.7367C34.5028 55.7841 34.6318 56.8262 34.8408 57.8536C35.2132 59.4057 35.1819 62.2459 32.8875 62.1387L32.8628 62.2298C34.4015 62.9263 35.3105 61.4579 35.4915 60.0656C35.6004 59.0422 35.5825 58.0093 35.4382 56.9903C35.3837 56.3728 35.3659 55.7526 35.3848 55.133C35.382 54.3893 35.1839 53.7689 35.787 53.1998C36.3603 52.6595 35.4723 51.7692 34.9225 52.3351Z" fill="black"/>
<path id="Vector_23" d="M39.2811 48.9656C39.204 47.5374 38.8446 46.1264 38.7813 44.6927H38.7476C38.7042 45.9431 38.6604 47.177 38.7087 48.4303C38.7658 49.0183 38.7654 49.6104 38.7076 50.1983C38.6155 50.7994 38.391 51.3684 38.2841 51.9676C38.2071 52.3983 38.0771 52.827 38.0112 53.2534C37.9799 53.7757 37.988 54.2996 38.0357 54.8206C38.109 55.3833 37.9587 55.9523 37.6172 56.4054C37.2801 56.8041 36.9224 57.1849 36.5454 57.5462L36.5809 57.5923C37.465 57.1809 38.1998 56.5055 38.684 55.6591C39.0205 54.73 39.0373 53.7152 38.7317 52.7754C38.7284 52.0141 38.8781 51.2598 39.1718 50.5573C39.2787 50.0339 39.3155 49.4987 39.2811 48.9656Z" fill="black"/>
<path id="Vector_24" d="M42.3324 50.5002C42.1646 50.3092 41.9323 50.3365 41.7233 50.2092C41.5144 50.082 41.4362 49.8284 41.265 49.6624C40.8857 49.2941 40.3215 49.4505 39.9019 49.1512L39.8633 49.2012C40.0643 49.3814 40.2854 49.5378 40.5223 49.6673C40.7699 49.8562 40.9769 50.093 41.1311 50.3636C41.2553 50.5518 41.446 50.6862 41.665 50.74C41.8841 50.7938 42.1153 50.763 42.3126 50.6538C42.3253 50.646 42.336 50.6355 42.3441 50.623C42.3521 50.6105 42.3573 50.5964 42.3592 50.5817C42.3611 50.567 42.3596 50.552 42.355 50.5379C42.3504 50.5238 42.3427 50.5109 42.3324 50.5002Z" fill="black"/>
<path id="Vector_25" d="M44.1869 53.013C43.904 52.2617 43.3376 51.6786 43.0854 50.8869C42.8564 50.0204 42.6709 49.143 42.5297 48.258C42.3799 47.383 42.1719 46.5189 41.907 45.6716C41.719 45.1474 41.3779 44.5334 40.7824 44.4536L40.6811 44.5308C40.5583 45.1878 41.0929 45.854 41.3919 46.3984C41.8082 47.2961 42.128 48.2356 42.3458 49.2009C42.601 50.0482 42.7707 50.9159 43.0123 51.767C43.0755 52.0589 43.2044 52.3327 43.3892 52.5674C43.5739 52.8022 43.8097 52.9918 44.0786 53.1219C44.0936 53.1259 44.1095 53.1259 44.1245 53.1219C44.1396 53.1178 44.1533 53.1099 44.1643 53.0988C44.1752 53.0878 44.1831 53.074 44.1871 53.059C44.1911 53.0439 44.191 53.0281 44.1869 53.013Z" fill="black"/>
<path id="Vector_26" d="M46.7009 53.9727C46.1531 52.745 45.9001 51.4062 45.9619 50.0632C45.8019 48.8393 45.4565 47.6468 44.9377 46.5267C44.9209 46.4986 44.8971 46.4753 44.8686 46.4591C44.8401 46.4429 44.8078 46.4344 44.7751 46.4344C44.7423 46.4344 44.7101 46.4429 44.6816 46.4591C44.6531 46.4753 44.6293 46.4986 44.6125 46.5267C44.482 46.8214 44.4127 47.1395 44.4089 47.4618C44.405 47.7841 44.4667 48.1038 44.5901 48.4015C44.8892 49.2682 45.6563 49.8623 45.7013 50.8255C45.6291 51.6384 45.6814 52.4575 45.8562 53.2546C45.7365 53.3499 45.5901 53.4058 45.4373 53.4145C45.2631 53.4442 45.0863 53.4556 44.9097 53.4483L44.8912 53.5165C45.092 53.647 45.3227 53.7244 45.5616 53.7416C45.7341 53.7485 45.9056 53.7123 46.0606 53.6364C46.1966 53.8249 46.3673 53.9856 46.5636 54.1099C46.5828 54.1204 46.6049 54.1244 46.6265 54.1213C46.6482 54.1182 46.6682 54.1082 46.6837 54.0927C46.6992 54.0773 46.7092 54.0572 46.7123 54.0356C46.7154 54.0139 46.7114 53.9918 46.7009 53.9727Z" fill="black"/>
<path id="Vector_27" d="M49.6874 51.5163C49.6056 50.9494 49.4077 50.4062 49.3171 49.8416C49.3012 49.2503 49.2126 48.6632 49.0536 48.0934C48.8477 47.6142 48.5203 47.2185 48.3523 46.7119C48.2295 46.3436 48.1385 46.1053 47.732 45.9965C47.6772 45.9828 47.6197 45.9835 47.5652 45.9986C47.5108 46.0137 47.4611 46.0426 47.4211 46.0826C47.3811 46.1226 47.3522 46.1722 47.3371 46.2267C47.322 46.2812 47.3213 46.3386 47.335 46.3935C47.417 46.6592 47.5568 46.9034 47.7442 47.1088C47.9289 47.4547 48.0218 47.8422 48.0141 48.2342C48.0828 48.9989 48.2327 49.754 48.4614 50.4869C48.8223 51.2457 49.0911 52.0449 49.2621 52.8675C49.3273 53.4606 49.2099 54.0799 48.5476 54.2541C48.2572 54.3305 47.9313 54.3257 47.6346 54.3847V54.4695C47.9122 54.5681 48.2106 54.5925 48.5005 54.5404C48.7903 54.4883 49.0615 54.3614 49.2874 54.1724C49.5055 53.8541 49.6211 53.4768 49.6187 53.091C49.7163 52.572 49.7394 52.0418 49.6874 51.5163Z" fill="black"/>
<path id="Vector_28" d="M53.2508 51.2754H53.1657C53.053 51.8711 52.7863 52.4269 52.3922 52.8876C52.0837 53.1499 51.7143 53.3304 51.3178 53.4126C50.9213 53.4947 50.5106 53.4758 50.1233 53.3577L50.0791 53.4151C50.4114 53.7259 50.8467 53.9031 51.3015 53.9127C51.7564 53.9224 52.1988 53.7638 52.544 53.4673C52.8713 53.2467 53.1269 52.9352 53.2795 52.5711C53.4243 52.1495 53.4142 51.6902 53.2508 51.2754Z" fill="black"/>
<path id="Vector_29" d="M51.9048 46.894C51.9127 46.4047 51.7839 45.9229 51.5331 45.5026C51.324 45.1257 50.9966 44.828 50.6015 44.6555C50.5202 44.6335 50.4335 44.6445 50.3603 44.686C50.2871 44.7276 50.2332 44.7964 50.2105 44.8775C50.175 45.0684 50.1835 45.265 50.2353 45.4522C50.2872 45.6394 50.3811 45.8123 50.5098 45.9577C50.8666 46.3971 51.1297 46.9049 51.2828 47.4499C51.3815 47.8496 51.559 48.2256 51.8047 48.556C52.1131 49 52.3246 49.4767 52.6554 49.9051L52.6867 49.8914C52.4606 48.8746 52.0425 47.9307 51.9048 46.894Z" fill="black"/>
<path id="Vector_30" d="M54.567 42.1722C54.3624 41.5537 54.2533 40.9076 54.2437 40.2562C54.2737 39.743 54.256 39.228 54.1907 38.718C53.9826 37.7236 53.0313 37.313 52.3818 36.6275C51.5636 35.5155 50.8589 34.3243 50.2783 33.0718C49.9324 32.5689 49.6119 32.0489 49.318 31.5139C49.1124 30.9784 48.7985 30.4911 48.396 30.0824C48.3515 30.0407 48.2926 30.018 48.2316 30.019C48.1706 30.0199 48.1124 30.0446 48.0693 30.0877C48.0262 30.1308 48.0015 30.189 48.0005 30.25C47.9995 30.311 48.0223 30.37 48.064 30.4144C48.7188 31.2193 49.1158 32.2319 49.6923 33.0974C50.3252 34.0866 50.8815 35.1227 51.3565 36.1968C51.6923 37.0033 52.1844 37.7353 52.8046 38.3506C53.6304 39.1554 53.4098 40.1842 53.5654 41.2281C54.0987 43.1679 54.8732 45.033 55.8707 46.7799C56.5462 48.4005 56.7699 51.4232 54.4968 51.8679V51.9623C56.2243 52.2403 56.8158 50.4447 56.8091 49.023C56.4251 46.6361 55.6685 44.3243 54.567 42.1722Z" fill="black"/>
<path id="Vector_31" d="M38.8312 41.1988C38.7979 40.4045 38.725 39.6146 38.7085 38.8188C38.6948 38.1885 38.6709 37.5704 38.6173 36.9422C38.6279 36.3781 38.5926 35.8141 38.5118 35.2557L38.4052 35.2276C38.0309 35.5315 38.0461 36.1584 38.0536 36.6022C38.0658 37.3467 38.1197 38.0725 38.0833 38.8188C38.0217 39.5962 38.0404 40.3778 38.1391 41.1514C38.165 41.9313 38.2974 42.7041 38.5325 43.4482C38.5827 43.5555 38.7378 43.4942 38.742 43.3915C38.7724 42.6602 38.8618 41.9316 38.8312 41.1988Z" fill="black"/>
<path id="Vector_32" d="M43.5278 13.1817C44.2007 12.9939 45.0477 13.8076 45.0477 14.5675C45.0477 15.0858 44.1695 15.7851 43.5797 16.2224C42.8622 16.7544 41.5944 15.1685 41.7843 14.7196C41.9508 14.3553 42.1921 14.0301 42.4925 13.7652C42.7928 13.5002 43.1456 13.3014 43.5278 13.1817Z" fill="black"/>
<path id="Vector_33" d="M26.8627 30.5286C26.7215 29.7887 27.672 28.9519 28.4885 29.0204C29.0457 29.067 29.7176 30.0734 30.1343 30.7466C30.6413 31.565 28.8234 32.7848 28.358 32.5404C27.9816 32.3286 27.6539 32.0401 27.3963 31.6935C27.1387 31.347 26.9569 30.9501 26.8627 30.5286Z" fill="black"/>
<path id="Vector_34" d="M31.8158 24.5586C31.8567 24.0163 32.1959 23.6646 33.0677 23.5305C33.9395 23.3964 35.038 23.3517 35.1481 24.0446C35.2582 24.7376 34.9866 24.8045 34.9866 24.8045C34.9866 24.8045 33.1571 25.2495 32.6207 25.3064C32.0844 25.3633 31.7709 25.1622 31.8158 24.5586Z" fill="black"/>
<path id="Vector_35" d="M32.3773 41.7715C32.4182 41.396 32.7575 41.1523 33.6291 41.0594C34.5008 40.9666 35.5994 40.9357 35.7095 41.4155C35.8195 41.8952 35.5481 41.9419 35.5481 41.9419C35.5481 41.9419 33.7186 42.25 33.1821 42.2894C32.6456 42.3289 32.3324 42.1894 32.3773 41.7715Z" fill="black"/>
<path id="Vector_36" d="M31.6227 45.9937C31.684 45.5101 32.0371 45.2102 32.9132 45.1278C33.7892 45.0454 34.8885 45.0529 34.9717 45.6775C35.0549 46.3021 34.7807 46.3505 34.7807 46.3505C34.7807 46.3505 32.9357 46.6697 32.3975 46.6974C31.8594 46.7251 31.5545 46.5311 31.6227 45.9937Z" fill="black"/>
<path id="Vector_37" d="M25.886 49.3816C26.1393 48.9652 26.584 48.8353 27.4174 49.1175C28.2509 49.3998 29.2515 49.855 29.0726 50.4593C28.8936 51.0635 28.6239 50.9959 28.6239 50.9959C28.6239 50.9959 26.8097 50.5347 26.3066 50.3411C25.8036 50.1476 25.6041 49.845 25.886 49.3816Z" fill="black"/>
<path id="Vector_38" d="M19.7063 49.1102C20.0262 49.1359 20.2349 49.3693 20.3178 49.9716C20.4007 50.5738 20.432 51.3326 20.0243 51.4113C19.6165 51.4901 19.5757 51.3022 19.5757 51.3022C19.5757 51.3022 19.3052 50.0394 19.2694 49.6687C19.2335 49.2981 19.3503 49.0814 19.7063 49.1102Z" fill="black"/>
<path id="Vector_39" d="M31.4558 31.1253C31.4455 30.5815 31.7509 30.1996 32.6063 29.9848C33.4617 29.7699 34.5513 29.6227 34.7256 30.3023C34.9 30.9819 34.6358 31.0741 34.6358 31.0741C34.6358 31.0741 32.8558 31.6879 32.3271 31.7946C31.7983 31.9013 31.4674 31.7309 31.4558 31.1253Z" fill="black"/>
<path id="Vector_40" d="M34.2674 34.6822C34.1779 34.1457 34.4245 33.7234 35.2394 33.3864C36.0543 33.0493 37.1109 32.7452 37.3824 33.3918C37.6538 34.0384 37.406 34.1684 37.406 34.1684C37.406 34.1684 35.7343 35.035 35.2267 35.2175C34.7191 35.4 34.3669 35.2791 34.2674 34.6822Z" fill="black"/>
<path id="Vector_41" d="M39.1751 33.191C39.4444 33.0955 40.0133 33.1072 39.9296 33.5095C39.8468 33.9065 39.9082 34.0587 38.1256 35.0279L38.0504 35.0688C37.237 35.5088 37.5811 34.2464 38.0504 33.9456C38.4909 33.6632 38.045 33.5896 39.1751 33.191Z" fill="black"/>
<path id="Vector_42" d="M20.9417 57.2268C21.0945 56.5546 21.7228 56.2773 22.5666 56.2957C23.4104 56.3141 24.1583 56.7467 24.2134 57.3747C24.2685 58.0027 24.4561 59.157 23.9064 59.0291C23.3138 58.8989 22.6998 58.9019 22.1085 59.0379C21.5032 59.1758 20.99 59.3409 20.9712 58.9741C20.8531 58.3985 20.8431 57.806 20.9417 57.2268Z" fill="black"/>
<path id="Vector_43" d="M25.0248 61.2304C25.1562 60.8179 25.4834 60.7217 26.1622 60.7217C26.8409 60.7217 27.4254 60.937 27.4254 61.6493C27.4254 61.91 27.6301 62.5332 26.9327 62.5148C26.2354 62.4964 24.9584 62.7898 24.9331 62.1113C24.896 61.8145 24.9273 61.5132 25.0248 61.2304Z" fill="black"/>
<path id="Vector_44" d="M28.7032 61.7676C28.7901 61.4129 29.06 61.3134 29.6308 61.2746C30.2015 61.2359 30.7059 61.3837 30.7466 61.9826C30.7616 62.2019 30.9691 62.7145 30.3816 62.739C29.7941 62.7634 28.7361 63.0831 28.6765 62.5136C28.6282 62.2662 28.6374 62.011 28.7032 61.7676Z" fill="black"/>
<path id="Vector_45" d="M32.3578 60.2691C32.4685 59.9213 32.7446 59.8403 33.317 59.8404C33.8894 59.8405 34.3822 60.0221 34.3821 60.6226C34.3821 60.8424 34.5542 61.368 33.9663 61.3525C33.3784 61.3369 32.3021 61.5844 32.2803 61.0115C32.249 60.7613 32.2756 60.5074 32.3578 60.2691Z" fill="black"/>
<path id="Vector_46" d="M35.9723 56.5525C36.239 56.2917 36.8851 56.5469 37.0038 56.7543C37.1225 56.9616 36.7611 57.6348 36.4881 57.6899C36.215 57.745 35.6096 57.4961 35.5913 57.2807C35.6266 57 35.7618 56.7415 35.9723 56.5525Z" fill="black"/>
<path id="Vector_47" d="M55.4003 47.7961C55.2128 47.5349 54.9323 47.3556 54.6166 47.295C54.3009 47.2344 53.9739 47.2973 53.7031 47.4705C53.3812 47.5674 53.1054 47.7778 52.9268 48.0627C52.7483 48.3475 52.6792 48.6875 52.7323 49.0194C52.9192 49.6211 53.1906 50.7559 53.6011 50.4539C54.0446 50.1369 54.5598 49.9347 55.1006 49.8654C55.6555 49.7926 56.1441 49.7755 56.0235 49.4289C55.9079 48.8538 55.6973 48.302 55.4003 47.7961Z" fill="black"/>
<path id="Vector_48" d="M52.3153 50.8663C52.0492 50.5253 51.7089 50.5482 51.0721 50.7833C50.4354 51.0185 49.9618 51.4231 50.2087 52.0911C50.299 52.3355 50.3234 52.9914 50.9709 52.7322C51.6184 52.473 52.9181 52.3057 52.7067 51.6604C52.6387 51.3693 52.5048 51.0976 52.3153 50.8663Z" fill="black"/>
<path id="Vector_49" d="M48.1527 52.1785C47.9312 51.893 47.6753 51.9096 47.2062 52.0999C46.7371 52.2902 46.4025 52.6222 46.6284 53.1785C46.7111 53.3821 46.7678 53.9264 47.2432 53.7166C47.7186 53.5068 48.6933 53.3781 48.4955 52.8407C48.4272 52.5991 48.3106 52.3738 48.1527 52.1785Z" fill="black"/>
<path id="Vector_50" d="M45.1776 51.8827C44.9677 51.6358 44.7594 51.6572 44.3948 51.8376C44.2994 51.8672 44.212 51.9181 44.1393 51.9866C44.0666 52.055 44.0105 52.1392 43.9753 52.2326C43.9401 52.326 43.9266 52.4262 43.936 52.5256C43.9454 52.625 43.9774 52.721 44.0295 52.8061C44.1174 52.9835 44.2184 53.4639 44.5865 53.2661C44.9547 53.0683 45.74 52.929 45.5243 52.459C45.4444 52.2475 45.327 52.0523 45.1776 51.8827Z" fill="black"/>
<path id="Vector_51" d="M42.1617 49.1345C41.895 48.8738 41.2488 49.129 41.1302 49.3364C41.0115 49.5437 41.3728 50.2169 41.6459 50.272C41.919 50.3271 42.5244 50.0781 42.5427 49.8628C42.5074 49.5821 42.3722 49.3235 42.1617 49.1345Z" fill="black"/>
</g>
</g>
</g>
</svg>
