<svg width="70" height="72" viewBox="0 0 70 72" fill="none" xmlns="http://www.w3.org/2000/svg">
<g id="Group 292">
<ellipse id="Ellipse 61" opacity="0.04" cx="35" cy="36" rx="35" ry="36" fill="#8951FF"/>
<mask id="mask0_666_4254" style="mask-type:alpha" maskUnits="userSpaceOnUse" x="0" y="0" width="70" height="72">
<ellipse id="Ellipse 62" cx="35" cy="36" rx="35" ry="36" fill="#8951FF"/>
</mask>
<g mask="url(#mask0_666_4254)">
<path id="Vector" d="M31.2282 42.0017C31.2985 42.1585 31.2282 42.3427 31.0714 42.4124C31.0166 42.4373 30.3328 42.7291 29.2713 42.8436L28.5545 43.7433C28.4929 43.8205 28.4027 43.8603 28.3112 43.8603C28.2434 43.8603 28.1743 43.8385 28.1171 43.7924C27.9827 43.6854 27.9603 43.4901 28.0679 43.3557L28.4369 42.8927C28.4357 42.8927 28.4344 42.8927 28.4332 42.8927C28.2478 42.8927 28.0536 42.884 27.8545 42.8691L26.915 43.7153C26.8552 43.7694 26.7806 43.7956 26.7065 43.7956C26.6213 43.7956 26.5373 43.7607 26.4757 43.6929C26.36 43.5653 26.3705 43.3687 26.4981 43.2536L27.0388 42.7664C26.844 42.7316 26.6468 42.6918 26.4433 42.6395L25.6936 43.1982C25.6376 43.2399 25.5729 43.2605 25.5075 43.2605C25.4129 43.2605 25.319 43.2175 25.2586 43.1354C25.156 42.9973 25.184 42.8031 25.3221 42.7005L25.7097 42.4111C25.5044 42.3377 25.2966 42.2574 25.0857 42.1629C24.9289 42.0926 24.8592 41.9084 24.9295 41.7516C24.9998 41.5942 25.1846 41.5245 25.3408 41.5954C28.3205 42.9326 30.7932 41.8561 30.8175 41.8449C30.9731 41.7734 31.1578 41.8449 31.2282 42.0017ZM44.1217 41.5954C41.1543 42.9282 38.6698 41.8561 38.6443 41.8443C38.4882 41.774 38.304 41.8449 38.2343 42.0023C38.1646 42.1591 38.2343 42.3427 38.3911 42.4124C38.4458 42.4373 39.129 42.7291 40.1912 42.8436L40.908 43.7427C40.9696 43.8198 41.0598 43.8596 41.1512 43.8596C41.2191 43.8596 41.2881 43.8379 41.3454 43.7918C41.4798 43.6848 41.5022 43.4894 41.3945 43.355L41.0255 42.8921C41.0268 42.8921 41.028 42.8921 41.0293 42.8921C41.2147 42.8921 41.4088 42.8834 41.6079 42.8685L42.5475 43.7147C42.6072 43.7688 42.6819 43.7949 42.7559 43.7949C42.8412 43.7949 42.9252 43.7601 42.9868 43.6923C43.1025 43.5647 43.0919 43.3681 42.9644 43.253L42.4237 42.7658C42.6178 42.731 42.815 42.6911 43.0179 42.6395L43.7689 43.1989C43.8249 43.2399 43.8896 43.2605 43.9549 43.2605C44.0495 43.2605 44.1435 43.2175 44.2044 43.1354C44.3071 42.9973 44.2785 42.8025 44.1404 42.6998L43.7527 42.4111C43.958 42.3377 44.1659 42.2574 44.3768 42.1629C44.5336 42.0926 44.6033 41.9084 44.533 41.7516C44.4633 41.5942 44.2772 41.5245 44.1217 41.5954ZM33.2976 48.2786H33.605C33.7767 48.2786 33.9161 48.1392 33.9161 47.9675C33.9161 47.7958 33.7767 47.6564 33.605 47.6564H33.2976C33.1259 47.6564 32.9865 47.7958 32.9865 47.9675C32.9865 48.1392 33.1259 48.2786 33.2976 48.2786ZM35.2813 47.9675C35.2813 47.7958 35.4206 47.6564 35.5924 47.6564H35.8997C36.0715 47.6564 36.2109 47.7958 36.2109 47.9675C36.2109 48.1392 36.0715 48.2786 35.8997 48.2786H35.5924C35.42 48.2786 35.2813 48.1399 35.2813 47.9675ZM32.948 42.1678C32.948 39.9385 30.7634 38.1247 28.0791 38.1247C25.3949 38.1247 23.2103 39.9385 23.2103 42.1678C23.2103 44.3979 25.3949 46.2116 28.0791 46.2116C30.7634 46.2116 32.948 44.3979 32.948 42.1678ZM28.0791 45.5894C25.7371 45.5894 23.8325 44.0544 23.8325 42.1678C23.8325 40.2819 25.7377 38.7469 28.0791 38.7469C30.4205 38.7469 32.3257 40.2819 32.3257 42.1678C32.3257 44.0544 30.4205 45.5894 28.0791 45.5894ZM41.3833 38.1247C38.6991 38.1247 36.5145 39.9385 36.5145 42.1678C36.5145 44.3979 38.6991 46.2116 41.3833 46.2116C44.0676 46.2116 46.2522 44.3979 46.2522 42.1678C46.2528 39.9385 44.0682 38.1247 41.3833 38.1247ZM41.3833 45.5894C39.0413 45.5894 37.1367 44.0544 37.1367 42.1678C37.1367 40.2819 39.0419 38.7469 41.3833 38.7469C43.7247 38.7469 45.6299 40.2819 45.6299 42.1678C45.6306 44.0544 43.7253 45.5894 41.3833 45.5894ZM35.5594 50.4757C35.178 50.4352 34.9061 50.541 34.7256 50.6138C34.6821 50.6318 34.6211 50.6561 34.5937 50.6592C34.5726 50.6561 34.5122 50.6318 34.4687 50.6138C34.2882 50.5416 34.0151 50.434 33.6349 50.4757C33.0786 50.541 31.2916 51.0313 31.2157 51.0518L30.7603 51.1769L31.0558 51.5465C31.0969 51.5975 32.0681 52.8052 32.803 53.308C33.3997 53.7155 34.0188 53.9196 34.6311 53.9196C35.2446 53.9196 35.8512 53.7143 36.4212 53.303C37.1373 52.7859 38.1173 51.6 38.1584 51.5496L38.4645 51.1775L37.9997 51.0518C37.9226 51.0307 36.1144 50.541 35.5594 50.4757ZM33.7077 51.0941C33.9279 51.0668 34.086 51.1308 34.2366 51.1906C34.4394 51.2733 34.7219 51.2864 34.959 51.1906C35.1089 51.1296 35.2688 51.0668 35.4872 51.0941C35.7212 51.1215 36.2575 51.2466 36.7771 51.376C36.0472 51.5994 35.4051 51.7668 34.5831 51.7668C33.8309 51.7668 33.3269 51.6131 32.6294 51.4009C32.5858 51.3878 32.5392 51.3735 32.4944 51.3598C32.9872 51.236 33.4837 51.1196 33.7077 51.0941ZM36.0559 52.7984C35.1214 53.4735 34.1445 53.471 33.1539 52.7934C32.8596 52.5924 32.5112 52.2477 32.2119 51.9254C32.2897 51.9491 32.3743 51.9733 32.4477 51.9957C33.1676 52.216 33.7369 52.389 34.5825 52.389C35.4878 52.389 36.1717 52.2116 36.9463 51.9746C36.6564 52.2807 36.3309 52.5999 36.0559 52.7984ZM42.8872 20.2211C43.418 18.0726 43.3813 15.6901 42.2675 13.4502C41.2172 11.339 39.0345 9.56132 36.5705 8.80968C34.8239 8.27831 32.1154 8.00391 29.1164 9.71252C23.4673 12.9306 25.7054 18.958 26.1123 19.9287C22.9788 21.4637 19.4658 23.535 17.1854 27.6796C13.3345 34.6801 16.374 40.8699 18.8262 43.4876C19.0041 44.8583 20.0799 47.2625 21.2565 47.4716C23.0155 50.8459 25.897 54.1374 28.8681 56.238V56.2392C28.8787 56.2809 29.873 60.4684 27.3001 62.3114C25.5498 63.5646 22.5825 63.7705 20.9691 63.7811C20.798 63.7823 20.6592 63.923 20.6605 64.0947C20.6617 64.2652 20.8011 64.4033 20.9716 64.4033C20.9716 64.4033 20.9728 64.4033 20.9741 64.4033C23.0342 64.3896 25.8665 64.1028 27.6622 62.8167C29.9651 61.1678 29.789 58.0549 29.5892 56.7214C31.3476 57.8439 33.1066 58.5234 34.6516 58.5234C36.3341 58.5234 38.1615 57.8557 39.9423 56.7407C39.7444 58.0847 39.5801 61.1759 41.8724 62.8173C43.6681 64.1028 46.5004 64.3896 48.5606 64.4039C48.5618 64.4039 48.5631 64.4039 48.5631 64.4039C48.7335 64.4039 48.8729 64.2658 48.8742 64.0953C48.8754 63.9236 48.7367 63.783 48.5655 63.7817C46.9521 63.7705 43.9854 63.5646 42.2345 62.312C39.7407 60.5257 40.5962 56.5479 40.6609 56.2666C43.6264 54.1946 46.3834 50.9311 48.0273 47.4809C49.2487 47.3633 50.1528 45.175 50.3482 43.8727C51.1235 43.4098 51.75 40.8712 51.9971 39.1383C52.4699 35.8237 53.1923 24.7266 42.8872 20.2211ZM17.7305 27.9801C20.2678 23.367 24.4485 21.394 27.8066 19.8086C30.7459 18.4217 33.284 17.2233 33.796 14.7232C33.8303 14.5546 33.722 14.3903 33.5534 14.3561C33.5322 14.3517 33.5117 14.3499 33.4899 14.3499C33.3456 14.3499 33.2161 14.4513 33.1856 14.5988C32.7364 16.7933 30.4435 17.876 27.5409 19.2461C27.2559 19.3805 26.9654 19.518 26.6704 19.6592C26.2592 18.7029 24.1959 13.2318 29.4231 10.2538C32.2312 8.65351 34.7611 8.90986 36.3882 9.40576C38.6947 10.1082 40.7337 11.7646 41.7106 13.7277C44.0203 18.3744 41.4163 23.6962 38.9293 25.8304C35.8568 28.4667 32.9542 30.6332 30.3938 32.5441C25.8889 35.9065 21.9827 38.8222 19.0919 42.8492C17.942 41.4896 13.5678 35.5456 17.7305 27.9801ZM48.4952 44.5329C48.4392 43.8422 48.3552 43.2517 48.316 43.001C47.85 40.0274 44.7315 36.3452 40.9011 34.2464C37.3035 32.2753 34.3567 31.4682 30.7889 33.5284C28.9154 34.6104 21.6815 39.8339 20.8975 43.4185L20.8558 43.6064C20.7886 43.9076 20.7258 44.2062 20.6903 44.5335C20.4558 43.8093 20.289 43.0987 20.2094 42.4155C22.9521 38.8931 26.444 36.2705 30.7665 33.0437C31.3271 32.6256 31.9064 32.1919 32.4975 31.747C42.321 31.5373 46.9907 38.004 48.9389 42.039C48.8829 42.8548 48.7298 43.691 48.4952 44.5329ZM19.4453 43.4334C19.5218 43.3239 19.6052 43.2231 19.6836 43.1161C19.8771 44.1919 20.2467 45.3119 20.7507 46.435C20.1621 45.7549 19.5772 44.4196 19.4453 43.4334ZM34.6522 57.9024C30.4554 57.9024 24.3751 52.3305 21.6149 46.7778C21.1302 45.2739 21.2808 44.5547 21.4625 43.7421L21.5048 43.5504C22.1886 40.4263 28.7293 35.4361 31.1 34.0666C34.4307 32.1433 37.1062 32.8757 40.6018 34.7915C44.2766 36.805 47.2626 40.2981 47.7007 43.0968C47.84 43.9928 47.9657 45.2727 47.9122 46.2396C45.513 52.1961 39.4638 57.9024 34.6522 57.9024ZM48.3982 46.6528C48.4075 46.6304 49.2637 44.1938 49.4335 43.141C49.492 43.2829 49.548 43.4204 49.599 43.5504C49.6376 43.6493 49.6843 43.7197 49.7334 43.7763C49.5835 44.8378 48.9936 46.145 48.3982 46.6528ZM50.1485 43.2474C48.69 39.5514 44.2331 31.3363 33.3176 31.1254C35.2066 29.6912 37.2276 28.1095 39.3337 26.302C39.3966 26.2485 39.4588 26.1838 39.5217 26.1265C40.2372 26.3773 43.5592 27.7854 47.5221 33.3567C47.906 33.8968 48.1437 34.1102 48.377 34.1102C48.4056 34.1102 48.4343 34.1071 48.4629 34.1008C48.6159 34.0679 48.7279 33.9471 48.7609 33.7779C48.9407 32.8751 46.5035 27.6367 43.2481 25.3923C43.1069 25.2953 42.9133 25.3295 42.815 25.472C42.718 25.6132 42.7534 25.8073 42.8947 25.9044C45.4327 27.6541 47.3454 31.2598 47.9502 32.8857C44.2828 27.7692 41.1643 26.116 40.007 25.6443C41.1008 24.4702 42.1362 22.7722 42.723 20.8352C49.6345 23.904 51.3668 30.0832 51.5852 34.7672C51.7849 39.0636 50.6892 42.599 50.1485 43.2474ZM20.2473 37.1584C19.8136 34.9601 19.5343 29.4529 26.3021 25.7924C33.564 21.865 33.144 20.2055 33.139 20.1887C33.06 20.0357 33.1253 19.8602 33.2784 19.7812C33.4296 19.7028 33.6243 19.7737 33.7027 19.9262C33.8757 20.2622 34.3473 22.1487 26.5989 26.34C20.4253 29.6788 20.3518 34.476 20.8571 37.0383C20.8907 37.2069 20.7812 37.3706 20.6119 37.4036C20.592 37.4079 20.5715 37.4098 20.551 37.4098C20.4066 37.4098 20.2766 37.3065 20.2473 37.1584Z" fill="black"/>
</g>
</g>
</svg>
