<svg width="169" height="70" viewBox="0 0 169 70" fill="none" xmlns="http://www.w3.org/2000/svg">
<path d="M14.3374 8.46342C16.2136 11.1995 19.8095 11.7076 23.0146 11.7076L24.5389 1.54514H24.2653C23.1709 8.61977 17.4643 8.11165 13.8293 0.0598579C11.2887 1.74057 5.26938 4.90657 5.26938 8.42434C5.26938 19.2122 24.109 17.4924 24.109 27.5376C24.109 34.8467 9.33436 32.1888 9.33436 24.7624C9.33436 22.0655 10.7024 20.0721 13.8293 18.5868L13.5557 18.2741L5.26938 22.6518C0.813532 28.0848 6.67648 33.9477 12.6176 33.9477C17.4643 33.9477 28.2521 30.469 28.2521 24.4497C28.2521 16.3589 9.09984 13.8183 9.09984 5.80555C9.09984 4.90657 9.13892 3.6558 10.4679 2.56138L13.6729 0.411635C12.3831 3.26494 13.0476 6.54819 14.3374 8.46342ZM46.5727 30H56.0706L55.7579 2.63956H51.1458V28.2802L46.4554 2.60047H38.6381L33.9868 28.3584L33.6742 2.63956H29.062V30H38.4036L42.4686 7.52535L46.5727 30ZM80.8422 6.78271C81.5067 2.36595 79.3178 0.685238 77.3635 0.685238C73.1813 0.685238 69.3508 5.61012 63.8397 5.61012C62.0026 5.61012 60.0092 4.35936 61.299 1.50605L61.2209 1.38879C60.5564 2.48321 59.8919 4.98474 59.8919 7.72078C59.8919 9.47967 60.83 11.8639 62.7843 11.8639C66.732 11.8639 73.7285 1.15428 76.7382 1.19336C77.2072 1.19336 77.4808 1.38879 77.4808 2.09235C77.3244 7.83804 57.3513 15.6944 57.3513 24.8797C57.3513 27.8503 59.3447 31.2508 63.9178 31.2508C66.9666 31.2508 71.3442 23.2381 75.4092 10.9259H75.8392L70.1326 27.0685C71.1879 29.0619 73.8458 30.7817 76.0346 30.7817C81.4676 30.7817 86.9006 21.1274 83.2265 18.9386C81.7021 18.0396 78.2625 20.6584 76.5036 23.1599L76.66 23.3162C77.4026 22.4172 77.7544 22.3391 78.3798 22.4172C80.4123 22.6127 79.2006 30.9381 76.4645 30.1954C75.292 29.8827 75.0574 27.7721 76.1128 23.5898C77.0899 19.8375 80.3341 10.0269 80.8422 6.78271ZM76.5427 5.53195C74.0412 13.9355 70.9143 24.9969 65.6376 24.9969C63.9569 24.9969 63.1752 23.8244 63.2534 22.0655C63.5661 14.9518 69.859 12.0985 76.3473 5.33651L76.5427 5.53195ZM102.486 2.63956L98.4207 28.8665L94.3166 2.63956H85.4049V30H90.0171L90.2907 7.0954L93.8476 30H103.111L106.59 7.64261V30H111.241L111.554 2.63956H102.486ZM119.13 2.63956H114.323V30H119.169L119.13 2.63956Z" fill="#9747FF"/>
<path d="M47.0805 33L42.9205 59.84L38.7205 33H29.6005V61H34.3205L34.6005 37.56L38.2405 61H47.7205L51.2805 38.12V61H56.0405L56.3605 33H47.0805ZM80.6342 37.24C81.3142 32.72 79.0742 31 77.0742 31C72.7942 31 68.8742 36.04 63.2342 36.04C61.3542 36.04 59.3142 34.76 60.6342 31.84L60.5542 31.72C59.8742 32.84 59.1942 35.4 59.1942 38.2C59.1942 40 60.1542 42.44 62.1542 42.44C66.1942 42.44 73.3542 31.48 76.4342 31.52C76.9142 31.52 77.1942 31.72 77.1942 32.44C77.0342 38.32 56.5942 46.36 56.5942 55.76C56.5942 58.8 58.6342 62.28 63.3142 62.28C66.4342 62.28 70.9142 54.08 75.0742 41.48H75.5142L69.6742 58C70.7542 60.04 73.4742 61.8 75.7142 61.8C81.2742 61.8 86.8342 51.92 83.0742 49.68C81.5142 48.76 77.9942 51.44 76.1942 54L76.3542 54.16C77.1142 53.24 77.4742 53.16 78.1142 53.24C80.1942 53.44 78.9542 61.96 76.1542 61.2C74.9542 60.88 74.7142 58.72 75.7942 54.44C76.7942 50.6 80.1142 40.56 80.6342 37.24ZM76.2342 35.96C73.6742 44.56 70.4742 55.88 65.0742 55.88C63.3542 55.88 62.5542 54.68 62.6342 52.88C62.9542 45.6 69.3942 42.68 76.0342 35.76L76.2342 35.96ZM91.0236 47.84H92.2236L98.6636 61H103.664L97.1036 47.6C101.144 46.84 103.704 44.36 103.704 40.16C103.704 34.52 99.1436 33 94.1836 33H86.1036V61H90.9836L91.0236 47.84ZM91.0236 44.04V36.8H94.1836C96.8636 36.76 98.7836 37.4 98.7836 40.4C98.7836 43.44 96.8636 44.04 94.1836 44.04H91.0236ZM111.041 33H106.121V61H111.081V49.64H118.001L112.281 61H117.201L124.081 46.52H116.161L123.681 33H118.761L111.041 46.88V33ZM145.695 31.56C146.695 33.64 144.975 36.24 143.135 36.24C139.175 36.24 136.055 31.16 130.455 31.2C126.015 31.2 125.095 35.12 125.095 37.16C125.095 44.52 137.175 45 139.255 45.08V45.32C136.975 45.32 124.655 44.52 124.655 52.96C124.655 63.56 144.735 64.6 147.255 57.76C149.815 50.76 139.415 45.28 136.695 48.72C135.575 50.12 137.695 54 139.815 56.16L140.015 56.04C139.255 55.16 139.215 54.8 139.375 54.16C139.975 52.04 148.855 53.12 146.775 57.68C144.935 61.72 137.295 61.12 132.935 54.28C130.575 50.56 132.735 45.92 136.855 46C138.895 46.04 142.975 47.44 142.975 45.32C142.975 42 132.575 47.6 130.495 39.28C129.215 34.2 133.455 33.6 134.815 33.6C140.375 33.6 142.095 41.92 145.095 41.92C146.775 41.92 147.215 39.56 147.215 37.76C147.215 35.08 146.535 32.6 145.855 31.52L145.695 31.56ZM149.354 36.64H156.114V61H161.074L161.034 36.64H167.754V33.04H149.354V36.64Z" fill="#9747FF"/>
</svg>
