<svg width="156" height="78" viewBox="0 0 156 78" fill="none" xmlns="http://www.w3.org/2000/svg">
<path d="M68.6362 34.5137H79.8091L79.4413 2.32853H74.0158V32.4907L68.4983 2.28255H59.3025L53.831 32.5826L53.4632 2.32853H48.0377V34.5137H59.0267L63.8085 8.07589L68.6362 34.5137ZM108.949 7.20229C109.731 2.00668 107.156 0.0295869 104.857 0.0295869C99.9371 0.0295869 95.4312 5.82293 88.9481 5.82293C86.7871 5.82293 84.4422 4.3516 85.9595 0.995145L85.8675 0.857207C85.0859 2.14462 84.3043 5.08726 84.3043 8.30579C84.3043 10.3748 85.4078 13.1795 87.7067 13.1795C92.3506 13.1795 100.581 0.581335 104.121 0.627313C104.673 0.627313 104.995 0.857207 104.995 1.68483C104.811 8.44372 81.3156 17.6855 81.3156 28.4905C81.3156 31.9849 83.6606 35.9851 89.0401 35.9851C92.6264 35.9851 97.7761 26.5594 102.558 12.0761H103.064L96.3507 31.0653C97.5922 33.4103 100.719 35.4333 103.294 35.4333C109.685 35.4333 116.076 24.0765 111.754 21.5017C109.96 20.4442 105.914 23.5248 103.845 26.4674L104.029 26.6514C104.903 25.5938 105.317 25.5019 106.052 25.5938C108.443 25.8237 107.018 35.6172 103.799 34.7436C102.42 34.3758 102.144 31.893 103.385 26.9732C104.535 22.5592 108.351 11.0185 108.949 7.20229ZM103.891 5.73097C100.949 15.6164 97.2703 28.6285 91.0632 28.6285C89.0861 28.6285 88.1665 27.2491 88.2584 25.18C88.6263 16.8119 96.0289 13.4554 103.661 5.50107L103.891 5.73097ZM134.409 2.32853L129.627 33.1804L124.799 2.32853H114.316V34.5137H119.742L120.064 7.57012L124.248 34.5137H135.145L139.237 8.21383V34.5137H144.708L145.076 2.32853H134.409ZM153.989 2.32853H148.333V34.5137H154.035L153.989 2.32853Z" fill="black" fill-opacity="0.87"/>
<path d="M61.4389 40.6064L58.2041 61.4767L54.9383 40.6064H47.8467V62.3787H51.5169L51.7346 44.1521L54.565 62.3787H61.9365L64.7047 44.5876V62.3787H68.406L68.6549 40.6064H61.4389ZM87.5297 43.9033C88.0585 40.3886 86.3167 39.0512 84.7615 39.0512C81.4335 39.0512 78.3853 42.9702 73.9998 42.9702C72.5379 42.9702 70.9516 41.9749 71.9781 39.7044L71.9158 39.6111C71.3871 40.4819 70.8583 42.4726 70.8583 44.6498C70.8583 46.0495 71.6048 47.9468 73.16 47.9468C76.3014 47.9468 81.8689 39.4244 84.2639 39.4555C84.6371 39.4555 84.8548 39.6111 84.8548 40.1709C84.7304 44.7431 68.8366 50.9949 68.8366 58.3042C68.8366 60.668 70.4229 63.374 74.062 63.374C76.488 63.374 79.9716 56.9978 83.2064 47.2003H83.5485L79.0074 60.046C79.8472 61.6322 81.9622 63.0008 83.704 63.0008C88.0274 63.0008 92.3508 55.3183 89.427 53.5765C88.214 52.8611 85.4769 54.945 84.0773 56.9356L84.2017 57.06C84.7926 56.3447 85.0726 56.2825 85.5702 56.3447C87.1876 56.5002 86.2234 63.1252 84.0462 62.5342C83.1131 62.2854 82.9264 60.6058 83.7662 57.2778C84.5438 54.2918 87.1254 46.4849 87.5297 43.9033ZM84.1084 42.908C82.1177 49.5952 79.6295 58.3975 75.4305 58.3975C74.0931 58.3975 73.471 57.4644 73.5332 56.0647C73.782 50.4039 78.7897 48.1334 83.9528 42.7525L84.1084 42.908ZM95.6083 52.1457H96.5414L101.549 62.3787H105.437L100.336 51.9591C103.477 51.3681 105.468 49.4397 105.468 46.1739C105.468 41.7883 101.922 40.6064 98.0655 40.6064H91.7826V62.3787H95.5772L95.6083 52.1457ZM95.6083 49.1909V43.5612H98.0655C100.149 43.5301 101.642 44.0277 101.642 46.3605C101.642 48.7243 100.149 49.1909 98.0655 49.1909H95.6083ZM111.174 40.6064H107.348V62.3787H111.205V53.5454H116.586L112.138 62.3787H115.964L121.313 51.1193H115.155L121.002 40.6064H117.177L111.174 51.3992V40.6064ZM138.12 39.4866C138.898 41.104 137.56 43.1257 136.129 43.1257C133.05 43.1257 130.624 39.1756 126.27 39.2067C122.817 39.2067 122.102 42.2548 122.102 43.8411C122.102 49.5641 131.495 49.9374 133.112 49.9996V50.1862C131.34 50.1862 121.76 49.5641 121.76 56.1269C121.76 64.3693 137.374 65.178 139.333 59.8593C141.324 54.4163 133.237 50.1551 131.122 52.83C130.251 53.9186 131.899 56.9356 133.548 58.6152L133.703 58.5219C133.112 57.8376 133.081 57.5577 133.206 57.06C133.672 55.4116 140.577 56.2514 138.96 59.7971C137.529 62.9386 131.588 62.472 128.198 57.1534C126.363 54.2607 128.043 50.6527 131.246 50.715C132.833 50.7461 136.005 51.8347 136.005 50.1862C136.005 47.6046 127.918 51.9591 126.301 45.4896C125.305 41.5395 128.602 41.0729 129.66 41.0729C133.983 41.0729 135.321 47.5424 137.654 47.5424C138.96 47.5424 139.302 45.7073 139.302 44.3077C139.302 42.2237 138.773 40.2953 138.244 39.4555L138.12 39.4866ZM140.965 43.4368H146.222V62.3787H150.078L150.047 43.4368H155.273V40.6375H140.965V43.4368Z" fill="#7E73FA"/>
<g filter="url(#filter0_d_331_85)">
<path d="M25.9909 16.9815C29.4961 22.0932 36.2144 23.0426 42.2025 23.0426L45.0505 4.05598H44.5393C42.4946 17.2736 31.8329 16.3242 25.0416 1.28103C20.2949 4.42111 9.04903 10.3362 9.04903 16.9084C9.04903 37.0634 44.2472 33.8503 44.2472 52.6178C44.2472 66.2735 16.6437 61.3078 16.6437 47.433C16.6437 42.3943 19.1995 38.67 25.0416 35.895L24.5304 35.3108L9.04903 43.4896C0.724151 53.6402 11.6779 64.5939 22.7778 64.5939C31.8329 64.5939 51.9879 58.0947 51.9879 46.8488C51.9879 31.7326 16.2055 26.9859 16.2055 12.0157C16.2055 10.3362 16.2785 7.99935 18.7614 5.95464L24.7495 1.93825C22.3396 7.2691 23.5811 13.4032 25.9909 16.9815Z" fill="#7E73FA"/>
</g>
<defs>
<filter id="filter0_d_331_85" x="0.724121" y="1.28102" width="62.0824" height="75.8111" filterUnits="userSpaceOnUse" color-interpolation-filters="sRGB">
<feFlood flood-opacity="0" result="BackgroundImageFix"/>
<feColorMatrix in="SourceAlpha" type="matrix" values="0 0 0 0 0 0 0 0 0 0 0 0 0 0 0 0 0 0 127 0" result="hardAlpha"/>
<feOffset dx="5.40928" dy="5.40928"/>
<feGaussianBlur stdDeviation="2.70464"/>
<feComposite in2="hardAlpha" operator="out"/>
<feColorMatrix type="matrix" values="0 0 0 0 0 0 0 0 0 0 0 0 0 0 0 0 0 0 0.2 0"/>
<feBlend mode="normal" in2="BackgroundImageFix" result="effect1_dropShadow_331_85"/>
<feBlend mode="normal" in="SourceGraphic" in2="effect1_dropShadow_331_85" result="shape"/>
</filter>
</defs>
</svg>
